<svg width="340" height="279" viewBox="0 0 340 279" fill="none" xmlns="http://www.w3.org/2000/svg">
<path d="M111.069 233.641C170.945 233.641 219.485 185.418 219.485 125.931C219.485 66.4435 170.945 18.2197 111.069 18.2197C51.192 18.2197 2.65233 66.4435 2.65233 125.931C2.65233 185.418 51.192 233.641 111.069 233.641Z" fill="#B40000"/>
<path d="M201.127 146.83C212.746 97.4228 181.849 48.0133 132.118 36.4708C82.3877 24.9282 32.6546 55.6236 21.0365 105.031C9.41836 154.438 40.3147 203.847 90.0455 215.39C139.776 226.932 189.509 196.237 201.127 146.83Z" fill="#201F1F"/>
<path d="M111.187 128.233C110.165 128.233 109.34 127.414 109.34 126.438V52.7185C109.34 51.7429 110.165 50.9233 111.147 50.9233H111.187C112.169 50.9233 112.993 51.7429 112.993 52.7185V126.477C112.993 127.414 112.169 128.233 111.187 128.233Z" fill="#FEFEFE"/>
<path d="M112.758 127.413C112.286 128.31 111.187 128.622 110.283 128.154L66.2881 104.622C65.4239 104.153 65.0704 103.061 65.5417 102.202V102.163C66.0131 101.304 67.113 100.953 67.9772 101.422L111.972 124.954C112.915 125.461 113.229 126.554 112.758 127.413Z" fill="#FEFEFE"/>
<path d="M340 129.715H142.612V251.085H340V129.715Z" fill="#DFDFDF"/>
<path d="M241.325 195.786L340 135.101V129.715H142.612V135.101L241.325 195.786Z" fill="#181818"/>
<path d="M241.325 190.4L142.612 129.715H340L241.325 190.4Z" fill="#DFDFDF"/>
<path opacity="0.32" d="M142.612 251.124H315.41V154.145V148.76H142.612V251.124Z" fill="#9FA0A0"/>
<path d="M305.904 157.228H108.515V278.598H305.904V157.228Z" fill="#DFDFDF"/>
<path d="M207.19 223.298L305.904 162.614V157.228H108.515V162.614L207.19 223.298Z" fill="#181818"/>
<path d="M207.19 217.952L108.515 157.228H305.904L207.19 217.952Z" fill="#DFDFDF"/>
<path d="M250.674 23.1367L257.745 22.6294L264.816 22.1221C264.816 22.1221 268.194 41.1276 272.043 43.1569C272.043 43.1569 278.211 65.4406 260.848 66.6504C239.833 68.1333 246.432 44.9131 246.432 44.9131C250.007 42.4154 250.674 23.1367 250.674 23.1367Z" fill="#E50000"/>
<path d="M292.116 129.794L299.776 88.4661C298.715 69.8118 296.162 51.4307 296.162 51.4307C286.342 45.85 272.043 43.1963 272.043 43.1963L271.926 43.3134C264.737 49.2453 254.563 49.9868 246.589 45.1085L246.432 45.0305C246.432 45.0305 231.348 49.6745 222.431 56.5821C222.431 56.5821 221.331 67.1971 223.61 80.1536C225.495 90.8857 228.009 101.501 231.505 111.842L237.594 129.872H292.116V129.794Z" fill="#E50000"/>
<path d="M292.116 129.795L299.776 88.4665C299.54 84.564 299.501 80.7785 299.54 77.1491C288.699 93.3838 275.932 109.228 255.349 104.077C242.661 100.877 234.058 85.4616 224.827 77.4613C224.159 76.8759 223.492 76.3296 222.824 75.7832C223.138 77.4223 223.452 79.1394 223.767 80.8956C225.534 91.3935 228.127 101.774 231.544 111.843L237.594 129.795H292.116Z" fill="#B40000"/>
<path d="M239.636 27.6633C241.443 25.2827 244.036 28.5219 244.036 28.5219C244.036 28.5219 239.911 16.0727 242.74 10.2969C245.568 4.52108 256.292 6.70652 256.292 6.70652C256.292 6.70652 266.583 3.03811 270.197 8.38462C273.811 13.7311 271.493 26.6096 271.493 26.6096C271.493 26.6096 273.615 23.0192 275.736 25.1266C277.857 27.234 273.065 33.244 271.926 34.0245C271.926 34.0245 265.366 48.5811 259.277 49.0103C253.188 49.4396 244.625 35.9367 244.625 35.9367C243.407 35.3514 237.829 30.0439 239.636 27.6633Z" fill="white"/>
<path d="M259.238 11.5847C259.238 11.5847 267.29 12.4043 268.469 16.58C269.058 18.6094 268.744 20.8729 268.508 22.9412C268.39 24.0339 268.037 29.8488 268.312 29.9658C268.587 30.0829 269.137 29.8878 269.333 29.7317C270.354 28.7951 271.101 27.5072 271.768 26.3365C273.104 24.0339 275.304 24.2681 276.05 25.595C276.05 25.595 276.325 4.6772 267.526 4.56013C258.766 4.40402 259.238 11.5847 259.238 11.5847Z" fill="#5B5B5B"/>
<path d="M254.092 11.9369C254.092 11.9369 246.236 13.8882 245.686 18.1811C245.411 20.2884 246.039 22.4739 246.55 24.4642C246.825 25.5179 248.003 31.2547 247.728 31.4108C247.453 31.5669 246.903 31.4498 246.668 31.2937C245.528 30.5132 244.586 29.3034 243.761 28.2497C242.111 26.1813 239.951 26.6886 239.44 28.0936C239.44 28.0936 236.219 7.44899 244.9 6.08309C253.581 4.71719 254.092 11.9369 254.092 11.9369Z" fill="#5B5B5B"/>
<path d="M277.503 165.541C276.875 166.712 273.89 168.351 274.754 170.107C275.186 170.965 277.857 169.443 278.486 168.741C279.35 167.804 285.517 159.804 286.577 157.463C287.402 155.628 288.188 153.794 289.091 152.116C287.206 150.789 285.517 149.111 283.985 147.316C281.078 148.37 277.975 149.892 275.107 150.867C273.575 151.375 271.926 151.687 270.394 152.116C269.412 152.389 267.369 152.74 267.172 153.989C266.976 155.355 269.019 155.121 269.844 155.043C271.022 154.926 273.222 153.989 273.929 155.355C274.95 157.346 271.179 159.297 269.844 160.507C268.626 161.638 264.187 164.995 267.172 165.541C267.801 165.658 272.358 162.341 273.065 161.912C272.908 162.068 269.961 164.487 269.804 164.643C269.019 165.541 266.819 167.336 267.33 168.351C268.469 170.536 273.418 165.424 274.165 164.721L272.279 166.751C270.669 168.273 269.647 169.6 270.826 170.224C272.436 171.044 276.05 166.79 277.503 165.541Z" fill="white"/>
<path d="M278.289 148.487L288.188 155.98C288.188 155.98 322.677 119.296 320.163 104.818C316.038 81.051 303.822 53.9282 296.555 51.6257C293.53 50.65 290.113 62.787 294.119 79.9583C294.119 79.9583 301.229 105.247 300.758 107.862C300.326 110.515 278.289 148.487 278.289 148.487Z" fill="#E50000"/>
<path d="M240.893 185.678C241.443 186.927 244.272 188.8 243.25 190.439C242.74 191.259 240.186 189.503 239.636 188.8C238.851 187.786 233.351 179.317 232.487 176.897C231.819 174.985 231.191 173.112 230.405 171.356C232.409 170.185 234.216 168.663 235.905 166.985C238.694 168.273 241.679 170.029 244.429 171.239C245.921 171.863 247.532 172.331 249.025 172.878C249.967 173.229 252.01 173.736 252.088 174.985C252.167 176.39 250.164 175.961 249.339 175.805C248.16 175.571 246.039 174.478 245.214 175.805C244.036 177.717 247.65 179.941 248.828 181.268C249.967 182.478 254.092 186.225 251.067 186.537C250.439 186.615 246.157 182.946 245.489 182.439C245.607 182.595 248.357 185.249 248.514 185.444C249.221 186.381 251.264 188.371 250.674 189.347C249.378 191.454 244.821 185.912 244.154 185.171L245.882 187.356C247.335 188.995 248.278 190.4 247.021 190.908C245.489 191.571 242.229 187.044 240.893 185.678Z" fill="white"/>
<path d="M240.265 168.742L230.877 174.947C230.877 174.947 198.509 135.336 201.73 120.975C206.994 97.4422 215.95 61.4215 223.217 55.9189C225.731 54.0066 233.783 69.1095 233.194 78.5538C233.194 78.5538 221.213 125.58 221.528 128.233C221.842 130.887 240.265 168.742 240.265 168.742Z" fill="#E50000"/>
<path d="M270.629 7.01917C270.629 7.01917 270.786 3.81907 267.133 1.82876C263.48 -0.161552 256.213 -1.02012 250.439 1.82876C244.664 4.67763 242.936 5.34107 241.247 4.40445C239.558 3.46784 240.618 2.49219 240.618 2.49219C240.618 2.49219 236.847 2.45317 237.044 8.26799C237.24 14.0828 244.429 21.3026 253.817 21.3026C268.194 21.3416 272.829 11.351 270.629 7.01917Z" fill="#5B5B5B"/>
</svg>
