<svg width="350" height="248" viewBox="0 0 350 248" fill="none" xmlns="http://www.w3.org/2000/svg">
<path d="M317.342 222.909H63.4121C56.3871 222.909 50.7047 217.789 50.7047 211.482V18.7164C50.7047 12.4095 56.3871 7.28906 63.4121 7.28906H317.342C324.367 7.28906 330.049 12.4095 330.049 18.7164V211.482C330.049 217.789 324.367 222.909 317.342 222.909Z" fill="#DFDFDF"/>
<path d="M317.342 20.8398H63.4121V209.39H317.342V20.8398Z" fill="white"/>
<path d="M235.97 186.332C275.533 162.751 288.489 111.562 264.908 71.9987C241.326 32.4354 190.138 19.4795 150.574 43.0609C111.011 66.6423 98.055 117.831 121.636 157.394C145.218 196.958 196.407 209.914 235.97 186.332Z" fill="#181818"/>
<path d="M181.244 32.2045C226.797 25.6479 269.072 57.2135 275.66 102.767C282.279 148.32 250.714 190.594 205.161 197.245L181.244 32.2045Z" fill="#E50000"/>
<path d="M187.426 197.994C187.301 197.994 187.145 197.962 187.021 197.962L192.828 114.912L262.453 68.3281C272.444 83.1899 277.783 101.361 276.441 120.625C273.194 166.584 233.354 201.209 187.426 197.994Z" fill="#5B5B5B"/>
<path d="M182.243 197.307C187.083 197.963 191.86 198.181 196.606 197.994L193.265 114.662L110.62 103.641C104.532 149.287 136.597 191.219 182.243 197.307Z" fill="#DFDFDF"/>
<path d="M159.514 135.55L82.1766 95.0547C78.8983 101.299 76.3069 108.043 74.5896 115.224C69.8439 134.894 72.2168 154.626 79.9911 171.705L159.514 135.55Z" fill="#5B5B5B"/>
<path d="M201.601 122.904L285.558 107.699C286.244 111.383 286.65 115.036 286.838 118.658C287.649 134.269 284.121 149.318 277.19 162.525L201.601 122.904Z" fill="#E50000"/>
<path d="M84.0499 93.1817C83.1757 92.807 80.0223 93.9935 78.149 95.2111C77.0874 95.898 74.7458 96.6161 72.9349 97.1157C73.1534 98.1148 73.2783 99.1451 73.3095 100.175C73.3095 100.113 76.2132 99.6759 76.5254 99.5822C77.4933 99.27 78.2739 98.5207 79.3979 98.8017C79.8974 98.9265 80.4906 99.3324 80.9277 99.551C81.521 99.8632 82.9572 101.299 83.6753 101.05C84.7368 100.644 82.9884 99.3949 82.8011 99.0514C82.5201 98.5519 82.6137 97.584 83.4255 97.8025C84.5183 98.0835 86.3604 99.3949 87.5468 98.8329C89.0143 98.146 84.4558 96.8347 83.6753 96.3351C84.9242 96.9596 88.983 98.2084 89.3265 97.4903C89.9509 96.1166 85.6423 95.3984 84.4558 94.8052C85.7047 95.3984 87.2034 95.7419 87.859 95.5233C89.3577 95.055 84.9554 93.5563 84.0499 93.1817Z" fill="#DFDFDF"/>
<path d="M79.6164 172.766C78.711 173.047 75.6824 171.486 73.9964 170.05C73.0286 169.238 70.7806 168.239 69.0634 167.552C69.3756 166.584 69.6254 165.554 69.8127 164.555C69.8127 164.617 72.6227 165.398 72.9349 165.523C73.8716 165.96 74.5272 166.803 75.6824 166.615C76.182 166.553 76.8064 166.241 77.2748 166.053C77.8992 165.804 79.4915 164.555 80.1784 164.898C81.2088 165.429 79.3042 166.459 79.0857 166.771C78.7422 167.24 78.7422 168.208 79.554 168.083C80.678 167.927 82.645 166.865 83.769 167.521C85.1427 168.364 80.4594 169.144 79.6164 169.55C80.9278 169.051 85.1115 168.301 85.3613 169.051C85.8296 170.487 81.4585 170.705 80.2097 171.143C81.521 170.674 83.0509 170.518 83.6753 170.83C85.1115 171.517 80.5531 172.516 79.6164 172.766Z" fill="#DFDFDF"/>
<path d="M29.38 129.523C32.4398 132.052 36.967 131.709 39.9331 129.055C44.7725 124.684 53.8269 116.629 56.7618 114.381C60.8519 111.227 79.1793 99.7376 79.1793 99.7376L76.4318 94.5547C76.4318 94.5547 53.5772 104.671 50.3301 107.2C47.1142 109.729 28.3497 121 27.5691 125.558C27.3194 127.182 28.1311 128.524 29.38 129.523Z" fill="#E50000"/>
<path d="M29.38 129.523C32.4398 132.052 36.967 131.709 39.9331 129.055C44.7725 124.684 53.8269 116.629 56.7618 114.381C60.8519 111.227 79.1793 99.7376 79.1793 99.7376L76.4318 94.5547C76.4318 94.5547 53.5772 104.671 50.3301 107.2C47.1142 109.729 28.3497 121 27.5691 125.558C27.3194 127.182 28.1311 128.524 29.38 129.523Z" fill="#E50000"/>
<path d="M32.6895 107.106C32.8144 107.231 32.9081 107.356 33.033 107.481C34.157 108.636 35.3746 109.792 36.7172 110.697C37.529 111.228 38.8091 111.602 39.5272 112.164C39.8082 112.383 40.1204 112.602 40.4014 112.789C39.9955 115.099 38.9652 121.125 39.1213 123.467C39.1213 123.467 31.7841 122.936 29.099 119.97C29.1302 120.001 32.1588 111.821 32.6895 107.106Z" fill="white"/>
<path d="M40.0267 115.068C40.1829 114.163 40.3077 113.351 40.4014 112.789C40.0892 112.602 39.8082 112.383 39.5272 112.164C38.8091 111.602 37.5602 111.228 36.7172 110.697C35.3746 109.792 34.1882 108.636 33.033 107.481C32.9081 107.356 32.8144 107.231 32.6895 107.106C32.1588 111.821 29.099 120.001 29.099 120.001C30.0669 121.063 31.628 121.812 33.2515 122.343C33.8448 118.908 36.0928 115.849 40.0267 115.068Z" fill="#DFDFDF"/>
<path d="M36.7797 238.145C36.7797 238.145 36.967 245.483 38.1222 246.482C39.2774 247.481 53.8269 247.918 55.0758 246.575C56.3247 245.233 55.6066 242.985 52.4532 242.111C49.1124 241.174 47.4576 242.079 45.3657 241.205C43.2739 240.331 43.8359 237.021 43.8359 237.021L36.7797 238.145Z" fill="#5B5B5B"/>
<path d="M0.655664 237.896C0.655664 237.896 -0.468333 245.015 0.624441 246.076C1.71722 247.106 16.5789 248.293 17.8591 247.013C19.1704 245.733 18.5147 243.453 15.4237 242.454C12.1142 241.393 10.4906 242.08 8.36753 241.299C6.68153 240.675 7.80553 237.303 7.80553 237.303L0.655664 237.896Z" fill="#5B5B5B"/>
<path d="M11.3961 196.84C11.0839 176.576 13.3943 162.651 14.4246 156.126C16.8599 156.22 19.264 156.438 21.6994 157.531C26.1329 159.56 30.6289 161.496 35.0937 163.432C31.4719 170.925 23.5103 195.435 22.5736 200.555C21.3872 206.924 8.05531 239.458 8.05531 239.458L0 238.49C0.124888 233.245 11.4273 198.619 11.3961 196.84Z" fill="#DFDFDF"/>
<path d="M27.9438 160.435C30.2855 161.59 32.7208 162.464 35.1561 163.37C31.5968 170.738 25.1026 191.095 23.6352 196.496C22.5112 193.093 17.0473 184.819 14.9242 175.796C13.5192 169.739 13.2694 163.494 14.2373 157.375C14.2373 157.344 14.2373 157.312 14.2373 157.312C18.7957 157.625 23.1668 158.093 27.9438 160.435Z" fill="#DFDFDF"/>
<path d="M21.9179 159.342C25.0713 160.403 30.785 161.933 35.0936 163.463C38.091 171.05 46.9893 189.003 47.4576 197.12C47.9572 206.081 44.8662 239.988 44.8662 239.988H35.6244C35.6244 239.988 34.7814 201.772 33.4701 199.306C29.2239 191.188 24.5093 184.788 21.8555 179.73C17.3595 171.268 15.8296 165.836 15.049 161.902C14.7056 160.153 13.1757 154.315 16.1418 152.473C18.5771 153.16 19.2952 158.436 21.9179 159.342Z" fill="#DFDFDF"/>
<path d="M38.4656 165.304C38.4656 165.304 30.7225 168.426 23.0731 167.708C17.4219 167.177 14.487 167.084 11.1775 165.304C11.1775 165.304 14.7056 137.766 18.7957 129.055C22.8858 120.375 29.5673 118.721 29.5673 118.721C29.5673 118.721 34.8439 121.78 39.1525 121.718C39.1525 121.718 39.0588 138.64 38.7154 145.416C38.4032 152.128 38.4656 165.304 38.4656 165.304Z" fill="#E50000"/>
<path d="M38.8403 142.918C38.8715 142.168 38.9027 141.388 38.9027 140.545C38.9027 140.451 38.9027 140.326 38.9027 140.232C38.934 139.452 38.934 138.609 38.9652 137.766C38.9652 137.641 38.9652 137.485 38.9652 137.36C38.9964 136.423 38.9964 135.455 39.0276 134.519V134.488C38.6842 134.488 38.3407 134.488 37.9973 134.425C35.3122 133.894 32.9705 132.396 30.6289 131.022C30.223 130.803 29.8171 130.585 29.4112 130.397C28.9429 134.019 30.5664 138.422 31.2845 141.325C33.2203 149.287 34.2819 159.372 32.6271 167.052C36.0615 166.303 38.4968 165.366 38.4968 165.366C38.4968 165.366 38.4344 152.191 38.7778 145.447C38.8091 144.853 38.8403 144.135 38.8715 143.417C38.8403 143.199 38.8403 143.042 38.8403 142.918Z" fill="#E50000"/>
<path d="M70.9678 170.488L74.215 164.056C74.215 164.056 58.1356 153.753 52.2658 147.82C46.396 141.888 40.0267 129.836 35.562 129.056C31.066 128.307 26.57 130.773 29.1614 137.017C31.7529 143.262 44.8974 151.536 47.5825 154.252C50.2676 157.031 68.3452 169.02 70.9678 170.488Z" fill="#E50000"/>
<path d="M30.504 94.5864C30.504 94.5864 42.3684 93.2127 43.1802 95.2109C43.992 97.2091 44.1793 102.829 44.9598 104.016C45.7404 105.202 47.1142 106.607 46.6146 107.388C46.0838 108.137 45.5218 107.981 45.2096 108.824C44.8662 109.698 44.9911 114.537 43.43 115.255C41.8689 115.974 33.876 115.568 30.9723 111.009C28.0375 106.451 24.7591 94.9923 30.504 94.5864Z" fill="white"/>
<path d="M27.5067 95.6789L35.3747 99.3319C35.3747 99.3319 35.1249 103.922 37.4041 107.918C37.4041 107.918 36.686 109.011 35.9679 108.386C35.2185 107.762 34.7502 107.45 34.5629 106.294C34.3755 105.139 33.6887 102.079 31.628 103.609C29.5673 105.108 31.7529 106.919 32.7832 107.356C32.7832 107.356 34.438 113.319 31.2846 112.914C31.2846 112.914 28.3497 111.071 25.8519 103.89C23.3229 96.7093 25.5709 94.3364 27.5067 95.6789Z" fill="#5B5B5B"/>
<path d="M46.6146 93.0876C46.6146 93.0876 49.4246 97.1465 42.8992 99.8316C36.3738 102.548 26.9447 95.398 26.9447 95.398C26.9447 95.398 27.1945 91.8387 32.4086 90.34C36.3113 89.216 39.9643 89.3722 41.9313 91.6201C45.3345 95.4605 46.6146 93.0876 46.6146 93.0876Z" fill="#5B5B5B"/>
<path d="M326.24 109.761C326.115 109.886 326.021 110.011 325.928 110.135C324.866 111.259 323.742 112.415 322.493 113.32C321.713 113.882 320.495 114.257 319.839 114.819C319.558 115.037 319.309 115.256 318.996 115.443C319.465 117.629 320.62 123.405 320.526 125.684C320.526 125.684 327.583 124.966 330.049 122.062C330.049 122.062 326.896 114.288 326.24 109.761Z" fill="white"/>
<path d="M326.396 110.791C326.271 110.916 326.178 111.041 326.084 111.166C325.022 112.29 323.898 113.445 322.649 114.35C321.869 114.912 320.651 115.287 319.996 115.849C319.715 116.068 319.465 116.286 319.153 116.473C319.246 116.942 319.371 117.597 319.527 118.347C319.558 118.347 319.59 118.347 319.621 118.347C324.304 118.347 327.083 121.219 328.082 124.685C328.925 124.248 329.674 123.717 330.205 123.093C330.205 123.093 327.052 115.318 326.396 110.791Z" fill="#E50000"/>
<path d="M315.5 237.084C315.5 237.084 315.874 244.109 314.844 245.171C313.814 246.233 299.888 247.731 298.577 246.545C297.266 245.358 297.797 243.142 300.731 242.08C303.885 240.925 305.508 241.674 307.475 240.675C309.411 239.676 308.631 236.554 308.631 236.554L315.5 237.084Z" fill="#DFDFDF"/>
<path d="M348.689 236.959C348.689 236.959 350.656 243.609 349.719 244.764C348.782 245.888 334.795 248.855 333.39 247.762C331.985 246.7 332.328 244.452 335.138 243.11C338.167 241.705 339.884 242.298 341.726 241.111C343.568 239.956 342.507 236.896 342.507 236.896L348.689 236.959Z" fill="#DFDFDF"/>
<path d="M347.596 196.277C348.408 176.794 346.534 163.337 345.691 157.062C343.35 157.093 341.008 157.249 338.666 158.248C334.327 160.09 329.987 161.839 325.647 163.587C328.956 170.893 335.981 194.653 336.762 199.586C337.761 205.737 342.038 239.488 342.038 239.488L350 239.207C350 234.18 347.534 197.962 347.596 196.277Z" fill="#E50000"/>
<path d="M332.609 160.871C330.33 161.901 327.988 162.713 325.616 163.493C328.863 170.674 335.794 194.216 336.731 199.43C337.917 196.183 342.507 184.599 344.755 175.951C346.253 170.175 346.659 164.18 345.879 158.248C345.879 158.217 345.879 158.217 345.879 158.186C341.476 158.373 337.261 158.716 332.609 160.871Z" fill="#B40000"/>
<path d="M338.76 156.812C335.732 157.78 330.205 159.154 326.021 160.559C322.993 167.802 314.844 188.752 313.314 196.402C311.222 207.017 307.694 238.458 307.694 238.458L316.655 239.644C316.655 239.644 325.647 197.401 326.958 195.059C331.204 187.347 335.825 181.259 338.51 176.451C344.942 164.836 345.348 159.185 346.222 155.095C343.818 155.688 341.32 156 338.76 156.812Z" fill="#E50000"/>
<path d="M284.434 103.422C285.277 103.516 287.244 105.826 288.18 107.606C288.711 108.605 290.21 110.197 291.427 111.384C290.834 112.102 290.272 112.851 289.773 113.632C289.804 113.6 287.712 111.977 287.525 111.758C286.9 111.071 286.619 110.135 285.62 109.885C285.183 109.76 284.559 109.822 284.09 109.822C283.497 109.822 281.717 110.322 281.28 109.791C280.625 108.979 282.529 108.792 282.841 108.605C283.31 108.324 283.622 107.543 282.904 107.356C281.936 107.106 279.906 107.293 279.22 106.357C278.377 105.17 282.529 106.169 283.341 106.107C282.092 106.076 278.345 105.233 278.408 104.546C278.501 103.203 282.217 104.515 283.403 104.577C282.154 104.515 280.812 104.109 280.406 103.64C279.469 102.548 283.591 103.328 284.434 103.422Z" fill="#DFDFDF"/>
<path d="M338.885 135.019C339.478 131.241 337.012 127.651 333.359 126.495C327.395 124.591 316.28 121.032 312.971 119.689C308.381 117.816 289.897 108.23 289.897 108.23L286.931 113.039C286.931 113.039 306.445 127.057 310.129 128.525C313.814 129.961 332.297 140.046 336.45 138.453C337.948 137.891 338.635 136.549 338.885 135.019Z" fill="#5B5B5B"/>
<path d="M338.885 135.019C339.478 131.241 337.012 127.651 333.359 126.495C327.395 124.591 316.28 121.032 312.971 119.689C308.381 117.816 289.897 108.23 289.897 108.23L286.931 113.039C286.931 113.039 306.445 127.057 310.129 128.525C313.814 129.961 332.297 140.046 336.45 138.453C337.948 137.891 338.635 136.549 338.885 135.019Z" fill="#5B5B5B"/>
<path d="M322.337 165.898C322.337 165.898 329.55 166.929 336.856 165.992C342.288 165.305 347.221 163.307 348.345 161.246C348.345 161.246 344.38 138.704 340.196 130.461C336.044 122.218 329.55 120.813 329.55 120.813C329.55 120.813 324.554 123.904 320.401 123.967C320.401 123.967 320.995 140.234 321.494 146.728C322.025 153.253 322.337 165.898 322.337 165.898Z" fill="#5B5B5B"/>
<path d="M328.613 142.576C329.206 139.797 330.642 135.488 330.08 132.022C329.706 132.241 329.3 132.428 328.925 132.647C326.708 134.021 324.523 135.551 321.931 136.144C321.619 136.206 321.276 136.237 320.932 136.237C321.12 140.203 321.307 144.199 321.525 146.728C322.025 153.222 322.337 165.867 322.337 165.867C322.337 165.867 324.367 166.148 327.333 166.273C325.522 158.967 326.958 150.287 328.613 142.576Z" fill="#5B5B5B"/>
<path d="M329.456 102.33C329.456 102.33 326.178 96.1475 322.181 96.5846C318.185 97.0217 314.282 98.1457 313.814 99.7381C313.345 101.299 313.907 104.734 312.939 106.357C311.972 107.981 310.067 110.229 310.691 110.853C311.191 111.353 312.377 112.196 312.502 112.477C312.627 112.758 314.095 117.909 314.969 118.409C315.843 118.908 323.399 115.568 324.492 113.226C325.616 110.916 329.955 106.388 329.456 102.33Z" fill="#DFDFDF"/>
<path d="M323.368 96.7725C323.368 96.7725 320.152 105.702 312.19 104.953C312.19 104.953 310.223 101.331 312.159 98.4585C313.658 96.2729 318.216 94.2123 323.368 96.7725Z" fill="#E50000"/>
<path d="M348.345 129.399C347.939 124.966 345.723 122.405 342.538 119.533C338.698 116.099 336.231 112.539 334.826 107.544C333.546 102.954 334.17 98.5517 329.768 95.3671C326.49 92.9942 321.276 94.3367 319.121 96.054C319.09 96.2413 319.121 96.3662 319.059 96.5223C319.059 96.5223 316.093 99.3323 320.839 103.329C322.525 104.734 323.305 107.075 323.461 107.481C323.93 106.638 324.211 106.576 324.46 106.357C324.929 105.983 325.522 105.826 326.146 106.482C327.083 107.45 325.678 109.23 324.804 109.355C324.648 109.386 324.429 109.604 324.179 109.854C324.648 111.165 325.584 114.725 326.271 121.906C326.459 123.873 327.395 125.34 328.582 126.839C329.924 128.525 330.892 128.587 331.673 130.586C332.516 132.74 330.798 137.86 334.889 140.264C336.699 141.326 341.008 141.107 341.976 140.795C347.565 138.891 348.876 134.894 348.345 129.399Z" fill="#E50000"/>
<path d="M283.903 157.405C282.81 157.78 281.749 158.092 280.656 157.874C280.125 157.78 279.657 157.655 279.126 157.749C278.595 157.874 277.939 157.78 277.346 157.78C276.815 157.749 276.129 157.655 275.629 157.967C275.005 158.342 275.816 158.81 276.378 159.029C277.003 159.279 279.095 158.748 279.438 159.403C279.782 160.028 277.221 160.527 276.722 160.621C275.504 160.84 274.911 160.122 273.849 159.778C273.225 159.591 272.881 159.684 273.131 160.371C273.287 160.902 273.912 161.121 274.38 161.339C275.348 161.745 276.503 161.995 277.565 161.87C276.753 162.057 275.348 161.87 274.536 161.683C273.974 161.527 271.695 160.496 271.383 161.37C270.758 163.088 276.378 163.775 277.346 163.431C276.347 163.681 275.317 163.525 274.286 163.431C273.693 163.369 272.257 163.15 272.757 164.118C273.475 165.554 276.659 164.68 278.127 164.555C277.19 164.961 276.347 164.992 275.286 165.148C274.005 165.367 274.599 166.21 275.941 166.241C276.503 166.241 277.627 166.085 277.877 166.023C280.437 165.554 281.624 164.742 283.497 163.056C284.153 162.463 286.026 162.057 286.12 161.277C286.338 159.809 284.683 158.436 283.903 157.405Z" fill="#DFDFDF"/>
<path d="M284.121 163.369L281.561 157.468C281.561 157.468 298.171 147.851 304.728 142.731C311.285 137.61 319.121 126.464 323.649 126.308C328.176 126.121 332.328 129.149 328.956 134.988C325.584 140.826 311.534 147.352 308.537 149.725C305.571 152.097 286.9 162.213 284.121 163.369Z" fill="#5B5B5B"/>
</svg>
