<svg width="350" height="302" viewBox="0 0 350 302" fill="none" xmlns="http://www.w3.org/2000/svg">
<path d="M350 0H128.416V242.491H350V0Z" fill="#DFDFDF"/>
<path d="M335.094 17.1406H143.322V225.31H335.094V17.1406Z" fill="#B40000"/>
<path d="M291.829 128.149C286.337 121.834 279.787 125.678 279.787 125.678C279.787 125.678 294.065 94.1799 285.043 78.5682C284.18 77.0776 283.081 75.8224 281.826 74.7633C284.101 64.3686 274.138 59.9754 266.215 55.9352C261.311 53.4247 255.585 51.3066 250.25 50.2083C239.934 48.0509 228.323 48.5216 218.909 53.6993C208.436 59.5047 197.884 71.3115 186.979 68.605C184.704 73.9004 185.057 78.2544 186.587 84.5697C187.882 89.9436 190.98 95.7097 194.942 100.456C197.453 113.518 203.101 125.678 203.101 125.678C203.101 125.678 196.511 121.834 191.059 128.149C185.567 134.464 200.081 150.351 203.376 152.233C203.376 152.233 206.592 164.786 215.496 175.69C218.83 179.809 223.341 183.692 227.931 186.595H226.872C226.872 186.595 223.812 215.504 218.203 225.271H262.724C257.546 216.249 254.565 190.949 254.133 187.144C258.997 184.202 263.861 180.083 267.431 175.69C276.335 164.746 279.551 152.233 279.551 152.233C282.807 150.351 297.32 134.464 291.829 128.149Z" fill="white"/>
<path d="M232.795 138.78V128.542C237.345 125.561 240.993 122.148 243.778 118.225C246.249 114.813 247.465 111.4 247.465 107.988C247.465 107.517 247.426 107.007 247.386 106.497C247.23 105.085 246.798 104.183 246.053 103.751C245.307 103.32 244.366 103.124 243.229 103.124C242.287 103.124 241.503 103.438 240.797 104.026C240.13 104.614 239.777 105.438 239.777 106.458C239.777 107.046 239.816 107.556 239.855 107.948C239.934 108.341 239.973 108.655 240.051 108.851C240.13 109.047 240.247 109.361 240.444 109.831C240.64 110.302 240.797 110.694 240.914 111.008L225.577 113.989C225.499 113.675 225.303 113.126 225.067 112.42C224.832 111.714 224.675 111.243 224.636 111.008C224.557 110.773 224.479 110.38 224.322 109.87C224.165 109.361 224.087 108.929 224.047 108.615C224.008 108.301 223.969 107.909 223.93 107.439C223.89 106.968 223.851 106.458 223.851 105.948C223.851 105.83 223.851 105.752 223.851 105.634C223.851 103.673 224.126 101.869 224.675 100.221C225.303 98.5344 226.283 96.9653 227.695 95.514C229.068 94.0627 231.029 92.9644 233.579 92.1406C236.129 91.3561 239.149 90.9639 242.679 90.9639C249.661 90.9639 255.035 92.376 258.723 95.2002C262.449 98.0244 264.293 101.947 264.293 107.046C264.293 111.596 262.724 116.225 259.625 120.893C256.487 125.561 252.76 128.934 248.367 131.013V138.701H232.795V138.78ZM232.363 155.725V142.545H248.916V155.725H232.363Z" fill="black"/>
<path d="M20.3893 118.617C20.3893 118.617 25.5669 127.796 23.0173 130.581C23.0173 130.581 29.96 136.896 35.373 134.228C40.786 131.561 37.648 129.208 37.648 129.208C37.648 129.208 33.8433 127.56 31.9605 119.637C30.0777 111.714 20.3893 118.617 20.3893 118.617Z" fill="white"/>
<path d="M25.8415 132.659C26.7436 131.208 27.8419 129.953 29.3325 128.894C31.0583 127.717 33.098 127.168 35.1769 126.972C34.0394 125.521 32.8234 123.206 31.9605 119.637C30.0777 111.714 20.3893 118.617 20.3893 118.617C20.3893 118.617 25.5669 127.796 23.0173 130.581C23.0173 130.581 24.1548 131.6 25.8415 132.659Z" fill="#DFDFDF"/>
<path d="M15.996 107.712C15.996 107.712 19.0163 99.5142 24.0371 99.3965C29.0578 99.2396 32.3526 99.7887 33.1764 101.632C34.0001 103.515 35.6475 108.732 37.0988 110.575C38.5501 112.419 41.5704 114.733 41.5704 115.635C41.6096 116.538 38.7462 117.087 38.6286 117.479C38.5109 117.871 37.5695 124.461 36.5889 125.245C35.6083 126.03 25.6453 123.167 23.9194 120.421C22.1935 117.675 16.0353 112.811 15.996 107.712Z" fill="white"/>
<path d="M26.2727 107.359C27.6064 108.261 30.9404 109.163 36.0004 106.26C41.0603 103.358 37.6478 91.4726 26.665 93.3946C15.6429 95.3166 16.545 99.1999 14.5838 100.298C12.6226 101.357 11.1321 102.691 10.426 105.044C9.21007 109.084 9.52387 113.713 15.1722 117.831C20.899 121.95 24.3115 120.813 24.3115 120.813C24.3899 119.4 24.0369 117.086 22.7817 116.498C22.2718 116.263 21.6835 116.263 20.8597 115.713C19.3692 114.694 19.9184 111.791 22.5856 111.909C23.8408 111.948 24.6253 114.066 25.449 114.772C26.3119 115.517 26.7826 115.282 27.1749 115.086C27.9594 114.694 28.2732 112.144 26.2727 109.751C24.9391 108.261 24.9391 106.456 26.2727 107.359Z" fill="#5B5B5B"/>
<path d="M3.67919 281.638C3.67919 281.638 -0.870854 290.542 0.148983 292.385C1.16882 294.229 20.1927 302.113 22.4285 300.975C24.7035 299.838 24.8212 296.582 21.1733 293.954C17.2509 291.13 14.7013 291.522 12.387 289.404C10.0728 287.247 12.387 283.246 12.387 283.246L3.67919 281.638Z" fill="#E50000"/>
<path d="M55.1037 284.109C55.1037 284.109 55.6921 294.621 57.3395 295.915C58.987 297.21 79.5798 297.131 81.2272 295.209C82.8747 293.287 81.8548 290.62 77.6578 289.757C73.8923 289.012 71.1073 289.796 68.2047 288.619C65.6551 287.6 64.243 281.912 64.243 281.912L55.1037 284.109Z" fill="#B40000"/>
<path d="M50.8674 177.102L24.0372 178.749C24.0372 178.749 44.2383 226.918 46.9841 232.684C49.7691 238.489 54.0839 286.227 54.0839 286.227L66.4399 284.226C66.4399 284.226 63.8118 235.39 63.1841 231.35C58.7517 203.657 50.8674 177.102 50.8674 177.102Z" fill="#5B5B5B"/>
<path d="M41.7671 196.871C42.6301 192.399 43.2577 186.555 44.2383 182.083C44.6305 180.318 47.1017 180.24 47.2979 178.435C46.9056 178.121 46.5134 177.768 46.2388 177.337L24.0372 178.71C24.0372 178.71 44.2383 226.879 46.9841 232.645C47.2586 233.233 47.6509 234.135 48.1216 235.351C48.1216 234.371 48.0824 233.39 48.0039 232.449C47.4155 224.682 40.7865 201.97 41.7671 196.871Z" fill="#5B5B5B"/>
<path d="M43.3361 179.337H20.3893C20.3893 179.337 16.3491 187.653 17.7612 197.459C19.1341 207.265 16.1529 226.329 15.996 228.839C15.8391 231.35 3.95385 272.654 2.18871 282.068L12.7403 285.834C12.7403 285.834 30.0779 235.233 30.784 234.213C31.4508 233.272 43.3361 179.337 43.3361 179.337Z" fill="#5B5B5B"/>
<path d="M52.397 167.725C52.397 167.725 56.947 174.276 60.085 173.766C63.223 173.256 85.2279 158.821 85.2279 158.821L80.5994 155.762C80.5994 155.762 63.1053 167.725 61.3402 167.215C60.3988 166.941 55.7311 154.938 51.9655 145.956C47.2978 134.894 44.6306 133.286 44.6306 133.286L52.397 167.725Z" fill="white"/>
<path d="M52.397 167.725C52.397 167.725 56.947 174.276 60.085 173.766C63.223 173.256 85.2279 158.821 85.2279 158.821L80.5994 155.762C80.5994 155.762 63.1053 167.725 61.3402 167.215C60.4772 166.98 55.3781 153.447 51.6517 145.249C46.5918 134.07 44.6306 133.325 44.6306 133.325L52.397 167.725Z" fill="#E50000"/>
<path d="M54.2405 149.643C54.2798 149.604 52.3578 145.446 51.7302 144.191C46.5918 134.11 44.6306 133.286 44.6306 133.286L49.0629 153.016C50.8672 152.035 53.2992 150.976 54.2405 149.643Z" fill="#E50000"/>
<path d="M54.2405 149.643C54.2798 149.604 52.3578 145.446 51.7302 144.191C46.5918 134.11 44.6306 133.286 44.6306 133.286L49.0629 153.016C50.8672 152.035 53.2992 150.976 54.2405 149.643Z" fill="#B40000"/>
<path d="M16.0353 187.497C16.0353 187.497 36.6286 192.674 54.2408 186.281C54.2408 186.281 50.4751 169.218 50.4751 160.039C50.4751 152.233 48.0432 135.562 43.9245 132.62C40.002 129.796 37.3346 129.051 37.3346 129.051C37.3346 129.051 35.9618 132.463 32.7845 133.209C29.6465 133.954 23.5665 129.953 23.5665 129.953C23.5665 129.953 11.1321 134.817 9.48463 137.523C6.07202 143.093 15.1331 158.862 17.1336 167.06C19.2125 175.297 16.0353 187.497 16.0353 187.497Z" fill="#E50000"/>
<path d="M32.353 189.418C31.4901 185.653 31.4116 181.769 30.9409 177.808C30.5879 174.434 30.3918 171.218 31.0978 168.08C30.8625 167.217 30.5879 166.393 30.3918 165.648C29.3327 161.921 29.4111 153.527 24.9787 149.291C22.429 146.859 19.291 143.054 15.4861 142.387C10.8967 141.603 13.1326 141.563 9.01393 140.622C9.21005 142.152 7.17033 145.015 7.83717 147.055C10.5045 153.606 15.8391 161.725 17.1336 167.06C19.1341 175.258 15.996 187.496 15.996 187.496C15.996 187.496 23.0566 189.222 32.353 189.418Z" fill="#B40000"/>
<path d="M156.031 171.257C181.527 159.215 192.393 128.815 180.39 103.319C168.347 77.8223 137.948 66.9568 112.451 78.9598C89.1906 89.9429 78.129 116.263 85.5426 140.151L11.642 175.846C8.07251 177.533 6.58195 181.769 8.22941 185.339L8.30786 185.457C9.99456 189.026 14.2309 190.517 17.8004 188.869L91.701 153.174C105.43 174.081 132.77 182.24 156.031 171.257ZM98.6831 141.917C89.4259 122.304 97.8202 98.8471 117.433 89.5899C137.085 80.3327 160.502 88.7269 169.759 108.34C179.017 127.952 170.622 151.409 151.01 160.666C131.397 169.963 107.98 161.568 98.6831 141.917Z" fill="#5B5B5B"/>
<path d="M22.2721 155.528C22.2721 155.528 28.8227 169.022 30.1956 169.139C31.5685 169.257 55.4568 167.374 57.1827 166.354C58.2025 165.766 58.9478 164.864 59.85 164.119C60.2422 163.805 60.6737 163.412 61.066 163.138C61.5759 162.824 62.1643 162.667 62.5958 162.275C62.9488 161.961 64.2825 160.039 64.9885 160.196C65.5769 160.353 65.5377 160.784 65.42 161.255C65.3023 161.843 64.4394 162.432 64.0471 162.863C63.8118 163.099 63.1449 163.805 63.2626 164.197C63.4195 164.746 64.5963 163.805 64.8708 163.609C65.3023 163.334 65.6161 163.059 65.9692 162.667C66.3222 162.236 66.6752 161.804 66.989 161.334C67.1851 161.059 67.3813 160.745 67.5382 160.471C67.852 160 68.1265 159.568 68.4011 159.098C68.5973 158.745 68.9503 158.313 69.421 158.549C69.9309 158.823 69.421 159.686 69.2249 160.078C68.9895 160.471 68.8326 160.863 68.6365 161.294C68.5188 161.569 68.0481 162.04 68.205 162.353C68.7149 162.04 69.1464 161.334 69.4994 160.863C69.7348 160.549 70.9508 158.549 71.5392 158.941C72.4413 159.568 71.3823 160.863 70.9508 161.412C70.6762 161.765 70.3624 162.157 70.0486 162.432C69.8917 162.55 69.2249 163.256 69.3425 163.256C70.1663 163.177 70.7939 161.883 71.3038 161.294C71.6176 160.941 72.6375 159.843 72.7944 160.902C72.8728 161.334 72.5982 161.687 72.3629 162.04C72.0491 162.55 71.5392 163.138 71.0292 163.452C70.637 163.726 70.1663 164.432 70.1663 164.432C70.7939 164.432 72.0491 162.824 72.5982 163.256C72.9513 163.53 72.559 164.315 72.3629 164.511C70.9116 166.119 68.7149 167.217 66.8321 168.237C64.7924 169.336 62.635 170.316 60.4776 171.179C57.3788 172.395 31.137 180.632 27.999 180.24C24.861 179.848 16.5452 163.766 14.1524 159.098C11.7989 154.508 22.2721 155.528 22.2721 155.528Z" fill="white"/>
<path d="M13.3286 162.823C13.3286 162.823 21.6442 159.724 26.4296 155.409C26.4296 155.409 18.5454 130.737 10.6221 136.385C1.60046 142.857 13.3286 162.823 13.3286 162.823Z" fill="#E50000"/>
<path d="M80.6787 157.214C81.1101 156.94 81.6593 157.254 82.3653 157.842C81.4239 156.665 80.3256 155.449 81.4239 155.292C82.483 155.135 83.2282 156.783 84.0127 157.293C83.6205 156.704 81.1494 155.018 82.13 153.763C82.6791 153.017 85.3071 155.959 85.8563 156.547C85.3464 156.077 83.1498 153.763 84.3265 153.292C85.3856 152.86 86.8761 154.861 87.6214 155.488C88.1705 155.959 88.955 156.351 89.0727 157.097C89.308 158.587 87.1899 159.568 86.0524 159.882C84.6011 160.313 82.9537 159.921 81.6593 159.136C80.8356 158.705 80.2472 157.489 80.6787 157.214Z" fill="white"/>
</svg>
