<svg width="200" height="177" viewBox="0 0 200 177" fill="none" xmlns="http://www.w3.org/2000/svg">
<path d="M118.314 166.481H81.6863L84.7019 122.315H115.321L118.314 166.481Z" fill="#181818"/>
<path d="M123.115 159.406C122.675 158.734 121.932 158.339 121.12 158.339H100.847H99.1533H78.8796C78.0909 158.339 77.3254 158.734 76.8847 159.406L71.3407 167.664C70.2737 169.265 71.4103 171.399 73.3356 171.399H99.1533H100.847H126.664C128.59 171.399 129.726 169.265 128.659 167.664L123.115 159.406Z" fill="#181818"/>
<path d="M189.689 134.052H10.3108C4.62766 134.052 0.0115662 129.436 0.0115662 123.753V10.2992C0.0115662 4.6161 4.62766 0 10.3108 0H189.689C195.372 0 199.988 4.6161 199.988 10.2992V123.753C200.012 129.436 195.395 134.052 189.689 134.052Z" fill="#181818"/>
<path d="M190.803 8.88428H9.22058V123.8H190.803V8.88428Z" fill="#6F7070"/>
<path d="M125.087 86.6157H115.136V123.684H125.087V86.6157Z" fill="#DFDFDF"/>
<path d="M125.087 86.6157H115.136V98.2372H125.087V86.6157Z" fill="#DFDFDF"/>
<path d="M152.018 29.1353H151.786H151.554H93.1686V88.9358H148.956H151.763H175.4V52.5173C175.423 39.5969 164.938 29.1353 152.018 29.1353Z" fill="#E50000"/>
<path d="M116.806 88.9123H69.5546V52.5171C69.5546 39.5966 80.0394 29.1118 92.9598 29.1118H93.4237C106.344 29.1118 116.829 39.5966 116.829 52.5171V88.9123H116.806Z" fill="#E50000"/>
<path d="M112.77 83.8091H73.5908V53.6305C73.5908 42.9138 82.2662 34.2383 92.983 34.2383H93.3774C104.094 34.2383 112.77 42.9138 112.77 53.6305V83.8091Z" fill="#181818"/>
<path d="M98.8285 84.3193H53.9897V88.9122H98.8285V84.3193Z" fill="#E50000"/>
<path d="M150.441 66.783C151.856 66.783 153.247 64.5329 153.247 61.2854C153.247 54.7904 149.072 49.7104 141.997 49.7104C135.572 49.7104 130.376 54.9528 130.376 61.3782C130.376 67.734 135.224 72.4661 141.603 72.4661C143.551 72.4661 146.126 71.8166 148.028 70.3784L149.606 73.1156C147.634 74.6466 144.224 75.644 141.603 75.644C133.298 75.644 126.989 69.5666 126.989 61.3782C126.989 53.0739 133.623 46.6021 141.997 46.6021C150.348 46.6021 156.611 52.7491 156.611 61.1694C156.611 66.2727 153.851 69.5434 150.046 69.5434C148.005 69.5434 146.497 68.7547 146.033 66.899L145.964 66.4814C144.618 68.3603 142.786 69.1722 140.861 69.1722C137.033 69.1722 133.391 66.0175 133.391 61.2622C133.391 56.8781 136.128 53.213 140.373 53.213C143.064 53.213 144.827 55.0224 144.966 55.3239V53.5842H149.165V65.0432C149.188 66.3423 149.698 66.783 150.441 66.783ZM138.031 61.1462C138.031 63.3963 139.306 65.3912 141.324 65.3912C143.459 65.3912 144.711 63.4659 144.711 61.1926C144.711 58.9658 143.412 57.1796 141.255 57.1796C139.33 57.1796 138.031 58.989 138.031 61.1462Z" fill="white"/>
<path d="M102.749 96.7296C103.073 87.4278 109.429 79.541 112.77 76.0152V74.0435H82.0111C75.748 74.0435 72.0134 77.2446 68.6267 82.5334C66.1447 86.4072 63.9178 91.348 63.7091 96.7528C63.2451 109.372 65.9823 115.519 57.7708 123.893C49.5592 132.243 45.8942 137.022 48.3298 150.685H87.3695C84.9338 137.045 88.5989 132.267 96.8104 123.893C105.045 115.496 102.308 109.348 102.749 96.7296Z" fill="#E5E6ED"/>
<path d="M107.272 76.9429H78.5084C78.1605 77.3372 77.7893 77.7547 77.4182 78.1955H106.182C106.576 77.7547 106.947 77.314 107.272 76.9429Z" fill="#DFDFDF"/>
<path d="M102.749 82.9507H73.9851C73.73 83.3682 73.4748 83.7858 73.2428 84.2033H102.006C102.238 83.7858 102.494 83.3682 102.749 82.9507Z" fill="#DFDFDF"/>
<path d="M99.7332 88.9585H70.9696C70.8072 89.376 70.668 89.7936 70.5288 90.2111H99.2925C99.4316 89.7936 99.594 89.376 99.7332 88.9585Z" fill="#DFDFDF"/>
<path d="M98.2486 94.9897H69.485C69.4386 95.4073 69.3922 95.8248 69.369 96.2424H98.1326C98.1558 95.8248 98.2022 95.4073 98.2486 94.9897Z" fill="#DFDFDF"/>
<path d="M98.0631 100.998H69.2994C69.2994 101.415 69.2994 101.856 69.3226 102.25H98.0863C98.0631 101.856 98.0631 101.415 98.0631 100.998Z" fill="#DFDFDF"/>
<path d="M98.179 107.005H69.4154C69.4154 107.423 69.4154 107.864 69.4154 108.258H98.179C98.2022 107.864 98.2022 107.446 98.179 107.005Z" fill="#DFDFDF"/>
<path d="M97.9239 113.037H69.1371C69.0675 113.454 68.9979 113.872 68.9051 114.289H97.6687C97.7847 113.872 97.8543 113.454 97.9239 113.037Z" fill="#DFDFDF"/>
<path d="M95.9058 119.044H67.1422C66.9102 119.462 66.655 119.88 66.3535 120.297H95.1171C95.3955 119.88 95.6738 119.462 95.9058 119.044Z" fill="#DFDFDF"/>
<path d="M91.0113 125.052H62.2477C61.8302 125.47 61.4358 125.911 61.0415 126.305H89.8051C90.1994 125.911 90.5938 125.493 91.0113 125.052Z" fill="#DFDFDF"/>
<path d="M85.8153 131.06H57.0517C56.7501 131.478 56.4718 131.895 56.2166 132.313H84.9802C85.2586 131.895 85.537 131.478 85.8153 131.06Z" fill="#DFDFDF"/>
<path d="M82.823 137.091H54.0593C53.9434 137.509 53.8274 137.926 53.7346 138.344H82.4982C82.591 137.903 82.707 137.486 82.823 137.091Z" fill="#DFDFDF"/>
<path d="M82.0111 143.099H53.2475C53.2475 143.517 53.2475 143.934 53.2707 144.352H82.0343C82.0111 143.934 82.0111 143.517 82.0111 143.099Z" fill="#DFDFDF"/>
<path d="M67.2581 87.5899C66.9798 87.1724 65.3792 88.4946 65.1473 88.8426C64.8225 89.3529 64.3122 89.7008 63.9642 90.4199C63.6859 90.9766 63.4539 91.5101 63.1756 92.0669C63.0132 92.3684 63.0596 92.7396 62.9436 93.0643C62.8508 93.3195 62.3637 94.0618 62.0853 94.3865C61.9925 94.5025 62.1549 94.5489 61.9229 94.7345C62.5492 95.268 62.5956 95.7551 62.9668 96.4974C62.99 96.451 63.4539 96.0103 63.7555 95.8247C64.0106 95.6623 65.6344 95.0592 65.8895 94.92C66.8406 94.4793 67.2581 94.1777 67.4669 94.0154C67.6293 93.8762 68.3484 93.6442 68.2556 93.3891C68.07 92.8091 67.1885 93.1571 66.9566 93.1803C66.5622 93.2499 65.9359 93.621 65.2168 93.5514C64.9385 93.5282 64.5209 93.0875 64.7065 92.438C64.8457 91.8813 65.2632 91.3942 65.704 91.023C65.9823 90.7911 67.0262 89.8168 67.3277 89.5616C68.186 88.8194 67.7916 88.2858 67.0262 88.773C66.8638 88.8658 65.6344 89.8632 65.5184 89.9328C65.6344 89.7704 65.7736 89.6544 65.8431 89.5848C66.3303 88.9817 67.5829 88.0771 67.2581 87.5899Z" fill="#DFDFDF"/>
<path d="M33.0897 73.4634C33.1593 73.5794 33.2057 73.6953 33.2753 73.7881C33.9016 74.7856 34.5743 75.8294 35.3862 76.6877C35.8965 77.2212 36.7316 77.6619 37.1491 78.1955C37.3115 78.4042 37.497 78.613 37.6826 78.7754C37.0099 80.3527 35.3166 84.5281 35.0382 86.2446C35.0382 86.2446 29.8654 84.6905 28.404 82.1157C28.4504 82.1389 31.9531 76.7573 33.0897 73.4634Z" fill="#DFDFDF"/>
<path d="M33.9248 82.9275C33.9016 81.3502 33.3913 79.68 32.417 78.4042C32.0923 77.9635 31.7443 77.5692 31.3732 77.1748C32.0691 75.899 32.6954 74.5536 33.0897 73.4634C33.1593 73.5794 33.2057 73.6953 33.2753 73.7881C33.9016 74.7856 34.5743 75.8294 35.3862 76.6877C35.8965 77.2212 36.7316 77.6619 37.1491 78.1955C37.3115 78.4042 37.497 78.613 37.6826 78.7754C37.0099 80.3527 35.3166 84.5281 35.0382 86.2446C35.0382 86.2446 34.1567 85.9663 33.0201 85.4791C33.6 84.7833 33.948 83.8786 33.9248 82.9275Z" fill="#DFDFDF"/>
<path d="M13.8598 169.033C13.8598 169.033 13.0712 174.275 13.9062 175.041C14.7181 175.806 25.6437 176.572 26.5947 175.621C27.5458 174.67 27.0586 173 24.7854 172.281C22.3498 171.515 21.1203 172.165 19.5894 171.469C18.0584 170.773 18.5455 168.36 18.5455 168.36L13.8598 169.033Z" fill="#6F7070"/>
<path d="M32.2547 169.033C32.2547 169.033 31.466 174.275 32.301 175.041C33.1129 175.806 44.0385 176.572 44.9895 175.621C45.9406 174.67 45.4534 173 43.1802 172.281C40.7446 171.515 39.5152 172.165 37.9842 171.469C36.4532 170.773 36.9403 168.36 36.9403 168.36L32.2547 169.033Z" fill="#6F7070"/>
<path d="M12.1433 139.481C9.4989 124.82 9.5221 114.428 9.4989 109.58C11.2618 109.348 13.048 109.232 14.9501 109.743C18.4295 110.67 21.8858 111.552 25.3653 112.433C23.6256 118.302 20.7956 137.022 20.7028 140.872C20.5868 145.604 19.427 170.726 19.427 170.726L13.1176 170.865C12.584 167.038 12.3521 140.733 12.1433 139.481Z" fill="#E50000"/>
<path d="M19.7981 111.065C21.6307 111.622 23.5096 111.97 25.3653 112.341C23.6488 118.117 20.8652 136.674 20.6796 140.71C19.4502 138.367 14.7645 130.063 12.1665 123.777C10.45 119.555 9.5221 115.055 9.4989 110.485C9.4989 110.462 9.4989 110.439 9.4989 110.439C12.816 110.114 16.0403 109.951 19.7981 111.065Z" fill="#E50000"/>
<path d="M15.5532 109.511C17.896 110.207 22.141 111.135 25.3653 112.132C27.8009 117.63 34.5975 132.22 35.8733 138.066C37.6594 146.138 37.6826 170.262 37.6826 170.262L31.582 170.309C31.582 170.309 27.4066 142.983 26.6643 141.081C23.6952 133.426 18.244 128.114 16.1331 124.496C11.0067 115.751 10.6123 111.413 9.87006 108.305C11.6562 108.745 13.5815 108.931 15.5532 109.511Z" fill="#E50000"/>
<path d="M30.4917 88.8658C31.7907 86.2446 30.7701 84.3889 33.5537 85.2936C38.1234 86.7781 42.4843 96.6134 45.1287 97.2629C48.8169 98.1444 62.3869 93.4587 62.3869 93.4587L63.7787 96.915C63.7787 96.915 45.8942 104.732 42.9714 103.99C40.0487 103.248 32.3474 94.8737 30.4685 92.0437C29.819 91.0463 29.9582 89.9097 30.4917 88.8658Z" fill="#DFDFDF"/>
<path d="M30.4917 88.8658C31.7907 86.2446 30.7701 84.3889 33.5537 85.2936C38.1234 86.7781 42.4843 96.6134 45.1287 97.2629C48.8169 98.1444 62.3869 93.4587 62.3869 93.4587L63.7787 96.915C63.7787 96.915 45.8942 104.732 42.9714 103.99C40.0487 103.248 32.3474 94.8737 30.4685 92.0437C29.819 91.0463 29.9582 89.9097 30.4917 88.8658Z" fill="#DFDFDF"/>
<path d="M27.8241 116.145C27.8241 116.145 22.2802 115.867 16.9218 114.104C12.9552 112.805 9.5453 110.578 8.98859 108.861C8.98859 108.861 15.2516 92.5311 19.5894 86.9639C23.9271 81.3967 28.9839 81.2808 28.9839 81.2808C28.9839 81.2808 32.2778 84.3427 35.3862 84.969C35.3862 84.969 32.5794 97.1008 31.2572 101.902C29.9118 106.704 27.8241 116.145 27.8241 116.145Z" fill="#DFDFDF"/>
<path d="M26.5483 97.7501C26.5019 95.5696 26.0612 92.1366 26.9658 89.6313C27.221 89.8401 27.4994 90.0489 27.7313 90.2808C29.1927 91.6494 30.6309 93.1108 32.4634 93.9227C32.6954 94.0155 32.9505 94.0851 33.2057 94.1315C32.4866 97.0774 31.7443 100.047 31.234 101.925C29.9118 106.727 27.8241 116.168 27.8241 116.168C27.8241 116.168 26.27 116.075 24.0199 115.751C26.4555 110.485 26.6411 103.781 26.5483 97.7501Z" fill="#DFDFDF"/>
<path d="M33.5072 66.0871C33.5072 66.0871 37.8914 63.0251 40.4662 64.6953C43.041 66.3654 44.5256 67.7804 44.2936 69.0098C44.0616 70.2392 43.0642 73.4171 43.157 74.8553C43.2498 76.2935 43.9457 78.4972 43.6441 78.9611C43.3426 79.425 41.7188 78.7291 41.5332 78.8683C41.3477 79.0075 38.5641 82.023 37.7986 82.0462C37.0331 82.0926 33.0201 77.1982 33.0897 75.2265C33.1593 73.2548 31.7443 68.6619 33.5072 66.0871Z" fill="#DFDFDF"/>
<path d="M38.7961 69.4968C39.1672 70.4246 40.5126 72.0252 44.0617 72.3267C47.6339 72.6283 50.0463 65.4606 43.8297 62.6074C37.6362 59.7543 36.7084 62.0043 35.3398 61.8651C33.9712 61.726 32.765 61.8651 31.6052 62.8162C29.5871 64.4167 28.1489 66.8756 29.5639 70.8886C30.9788 74.9711 33.0897 75.5743 33.0897 75.5743C33.6232 74.9016 34.2495 73.6025 33.8088 72.8835C33.6232 72.5819 33.3217 72.3963 33.1129 71.8164C32.7186 70.7958 34.0176 69.52 35.2934 70.4942C35.8965 70.9581 35.5717 72.3035 35.7341 72.9299C35.8965 73.6026 36.2212 73.6489 36.4996 73.6953C37.0331 73.7649 38.077 72.6051 37.8914 70.703C37.7986 69.4504 38.4249 68.5689 38.7961 69.4968Z" fill="#181818"/>
<path d="M55.7295 116.585C55.9846 116.655 56.3094 116.725 56.379 116.794C56.7501 117.096 57.5156 117.165 57.8404 117.165C58.6058 117.165 59.7889 117.119 60.4152 117.513C60.7863 117.745 62.9436 119.207 61.9925 119.949C61.8533 120.042 61.5054 120.135 61.4126 120.088C61.2038 119.903 60.6239 119.392 60.6239 119.392C60.6239 119.392 61.0647 119.787 61.1575 119.903C61.227 119.995 61.3662 120.158 61.3894 120.274C61.4358 120.529 61.0647 120.877 60.8327 120.877C60.6007 120.877 60.5311 120.598 60.392 120.436C60.392 120.436 60.392 120.436 60.392 120.459C60.508 120.645 60.8327 120.877 60.4152 121.294C59.9512 121.758 59.928 121.341 59.6961 121.178C59.6265 121.132 59.5569 121.062 59.4873 120.97C59.5569 121.062 59.8353 121.341 59.8816 121.434C60.0208 121.712 59.2785 122.176 58.861 121.967C58.6058 121.828 58.1187 121.202 57.9563 121.178C57.7708 121.155 57.562 121.086 57.3764 121.039C56.8197 120.877 56.3094 120.506 55.8919 120.111C55.7063 119.926 55.3351 119.578 55.1496 119.369C54.7088 118.859 54.5929 118.65 54.4769 118.464C55.1264 117.861 55.4975 117.421 55.7295 116.585Z" fill="#DFDFDF"/>
<path d="M54.6856 119.926L57.5156 116.145C57.5156 116.145 47.2628 106.425 43.4353 101.624C39.6079 96.822 35.8965 87.5202 32.6722 86.6156C29.4479 85.7109 25.9684 87.1723 27.3834 91.9276C28.7984 96.6829 37.7522 103.758 39.4919 105.985C41.2317 108.188 52.8763 118.65 54.6856 119.926Z" fill="#DFDFDF"/>
</svg>
