<svg width="170" height="177" viewBox="0 0 170 177" fill="none" xmlns="http://www.w3.org/2000/svg">
<path d="M74.1059 163.968C115.034 163.968 148.212 130.79 148.212 89.8623C148.212 48.9347 115.034 15.7563 74.1059 15.7563C33.1784 15.7563 0 48.9347 0 89.8623C0 130.79 33.1784 163.968 74.1059 163.968Z" fill="#E50000"/>
<path d="M129.855 96.7235C133.646 65.9334 111.759 37.8999 80.9684 34.1089C50.1783 30.3179 22.1448 52.2051 18.3538 82.9952C14.5628 113.785 36.45 141.819 67.2401 145.61C98.0302 149.401 126.064 127.514 129.855 96.7235Z" fill="white"/>
<path d="M83.3256 128.895C104.888 123.803 118.24 102.196 113.149 80.6339C108.057 59.0717 86.45 45.7194 64.8878 50.8109C43.3255 55.9023 29.9733 77.5095 35.0647 99.0717C40.1562 120.634 61.7633 133.986 83.3256 128.895Z" fill="#E50000"/>
<path d="M101.712 89.8616C101.712 105.113 89.3579 117.468 74.1059 117.468C58.854 117.468 46.4998 105.113 46.4998 89.8616C46.4998 74.6096 58.854 62.2554 74.1059 62.2554C89.3579 62.2554 101.712 74.6096 101.712 89.8616Z" fill="white"/>
<path d="M86.8519 89.862C86.8519 96.8909 81.1544 102.608 74.1061 102.608C67.0773 102.608 61.3602 96.9104 61.3602 89.862C61.3602 82.8332 67.0577 77.1162 74.1061 77.1162C81.1349 77.1162 86.8519 82.8137 86.8519 89.862Z" fill="#E50000"/>
<path d="M107.097 56.7728C107.097 56.7728 106.02 59.3771 106.079 59.2987C106.138 59.2204 104.434 58.4959 104.336 58.5155C104.238 58.5351 102.828 58.4764 102.261 58.3589C101.693 58.2414 101.242 57.8498 101.066 57.7323C100.851 57.6148 100.518 57.2036 100.831 57.1253C101.105 57.047 101.419 57.419 101.595 57.4973C101.771 57.5756 102.398 57.5756 102.398 57.5756C102.398 57.5756 102.163 57.4777 101.712 57.2819C101.164 57.0665 100.342 56.7337 100.185 56.577C100.028 56.4204 100.067 56.0875 100.498 56.1658C101.007 56.2637 101.477 56.4987 101.575 56.5183C101.654 56.5379 102.476 56.8316 102.476 56.8316C102.476 56.8316 101.771 56.5574 101.536 56.4595C101.262 56.3421 100.498 56.0288 100.009 55.8134C99.5388 55.598 99.6367 55.0693 100.067 55.1085C100.381 55.128 101.458 55.7155 101.634 55.7742C101.81 55.833 102.554 56.1658 102.554 56.1658C102.554 56.1658 101.673 55.7546 101.516 55.6567C101.36 55.5588 100.381 55.1868 100.263 54.8931C100.205 54.756 100.263 54.4623 100.616 54.521C101.007 54.5798 101.595 54.8148 101.849 54.9518C102.065 55.0693 103.475 55.7351 103.788 55.7546C104.062 55.7742 104.375 55.7351 104.375 55.3826L104.865 54.5015C104.865 54.5015 105.198 54.6581 105.354 55.4609C105.374 55.8917 106.098 56.44 107.097 56.7728Z" fill="#DFDFDF"/>
<path d="M136.523 67.1705C136.523 64.9972 134.82 63.196 132.666 62.8827C129.142 62.3541 122.583 61.336 120.606 60.8857C117.845 60.2591 106.626 56.5 106.626 56.5L105.393 59.476C105.393 59.476 117.61 65.6237 119.823 66.0936C122.015 66.5831 133.312 70.5772 135.505 69.3241C136.249 68.8738 136.523 68.0711 136.523 67.1705Z" fill="#AFB2B2"/>
<path d="M145.451 96.597L144.746 94.4629H112.99L113.675 96.597H145.451Z" fill="#181818"/>
<path d="M149.23 107.913L148.506 105.76H116.592L117.277 107.913H149.23Z" fill="#181818"/>
<path d="M140.674 85.2811L139.969 83.147H108.212L108.898 85.2811H140.674Z" fill="#181818"/>
<path d="M153.028 119.348L152.304 117.175H120.214L120.919 119.348H153.028Z" fill="#181818"/>
<path d="M156.885 130.919L156.161 128.726H123.895L124.6 130.919H156.885Z" fill="#181818"/>
<path d="M160.782 142.607L160.057 140.375H127.615L128.32 142.607H160.782Z" fill="#181818"/>
<path d="M164.737 154.413L163.973 152.181H131.374L132.079 154.413H164.737Z" fill="#181818"/>
<path d="M168.378 171.427H168.535C169.533 171.427 170.238 170.448 169.925 169.489L140.106 80.1704C139.91 79.5635 139.343 79.1719 138.716 79.1719H136.66L166.988 170.429C167.184 171.016 167.732 171.427 168.378 171.427Z" fill="#181818"/>
<path d="M136.073 171.427H136.23C137.228 171.427 137.933 170.468 137.62 169.509L109.133 80.19C108.937 79.583 108.369 79.1719 107.742 79.1719H107.703C106.705 79.1719 106 80.1312 106.294 81.0906L134.663 170.409C134.879 171.016 135.447 171.427 136.073 171.427Z" fill="#181818"/>
<path d="M136.014 53.1909C135.956 53.2692 135.897 53.328 135.818 53.4063C135.192 54.0328 134.546 54.6789 133.802 55.1684C133.352 55.4621 132.647 55.6579 132.275 55.9711C132.118 56.0886 131.961 56.2061 131.785 56.304C132.001 57.557 132.568 60.8658 132.47 62.158C132.47 62.158 136.484 61.8643 137.953 60.2393C137.972 60.2393 136.288 55.7753 136.014 53.1909Z" fill="#DFDFDF"/>
<path d="M133.841 59.9065C134.115 58.7709 134.761 57.6354 135.681 56.8718C135.995 56.6173 136.308 56.3627 136.641 56.1474C136.347 55.1097 136.093 54.0329 135.995 53.1714C135.936 53.2497 135.877 53.3084 135.799 53.3868C135.172 54.0133 134.526 54.6594 133.782 55.1489C133.332 55.4425 132.627 55.6383 132.255 55.9516C132.098 56.0691 131.942 56.1865 131.766 56.2844C131.981 57.5375 132.549 60.8463 132.451 62.1385C132.451 62.1385 133.136 62.0798 134.056 61.9231C133.782 61.3162 133.684 60.6114 133.841 59.9065Z" fill="#DFDFDF"/>
<path d="M133.782 124.927C133.782 124.927 133.665 128.941 133.038 129.489C132.412 130.037 124.443 130.272 123.758 129.548C123.073 128.823 123.484 127.59 125.187 127.101C127.028 126.591 127.928 127.081 129.064 126.611C130.219 126.141 129.906 124.32 129.906 124.32L133.782 124.927Z" fill="#181818"/>
<path d="M153.557 124.79C153.557 124.79 154.164 128.687 153.557 129.274C152.95 129.842 144.825 130.488 144.12 129.783C143.415 129.078 143.767 127.825 145.451 127.296C147.272 126.709 148.153 127.081 149.308 126.65C150.229 126.318 149.602 124.458 149.602 124.458L153.557 124.79Z" fill="#181818"/>
<path d="M147.664 102.314C147.84 91.2328 146.567 83.597 145.999 80.0337C144.668 80.0924 143.337 80.2099 142.025 80.7973C139.597 81.9133 137.15 82.9705 134.702 84.0278C136.68 88.1393 141.026 101.551 141.555 104.351C142.201 107.836 149.504 125.652 149.504 125.652L153.909 125.104C153.831 122.246 147.644 103.293 147.664 102.314Z" fill="#DFDFDF"/>
<path d="M138.599 82.3821C137.326 83.0086 135.995 83.4981 134.663 83.9875C136.621 88.0208 140.165 99.1611 140.968 102.137C141.594 100.277 144.59 95.7544 145.725 90.801C146.489 87.4922 146.626 84.0659 146.097 80.7179C146.097 80.6983 146.097 80.6983 146.097 80.6787C143.611 80.8353 141.222 81.1095 138.599 82.3821Z" fill="#DFDFDF"/>
<path d="M141.907 81.7753C140.185 82.3627 137.052 83.185 134.702 84.0269C133.058 88.1776 128.183 98.0062 127.948 102.451C127.674 107.345 129.357 125.906 129.357 125.906H134.409C134.409 125.906 134.879 104.976 135.583 103.645C137.913 99.2201 140.498 95.6959 141.966 92.9352C144.433 88.3146 145.255 85.3387 145.686 83.1654C145.882 82.206 146.704 78.9951 145.099 77.9966C143.728 78.4077 143.337 81.3054 141.907 81.7753Z" fill="#DFDFDF"/>
<path d="M132.842 85.0454C132.842 85.0454 137.091 86.7684 141.261 86.3572C144.355 86.0635 145.96 86.0048 147.762 85.0258C147.762 85.0258 145.823 69.9501 143.591 65.1925C141.359 60.4348 137.698 59.5342 137.698 59.5342C137.698 59.5342 134.8 61.218 132.451 61.1788C132.451 61.1788 132.51 70.4396 132.686 74.14C132.882 77.8404 132.842 85.0454 132.842 85.0454Z" fill="#AFB2B2"/>
<path d="M132.647 72.7886C132.627 72.3775 132.627 71.9467 132.608 71.4964C132.608 71.4377 132.608 71.379 132.608 71.3398C132.588 70.9091 132.588 70.4587 132.568 69.9889C132.568 69.9105 132.568 69.8322 132.568 69.7539C132.549 69.2449 132.549 68.7162 132.549 68.1876V68.168C132.745 68.168 132.94 68.168 133.117 68.1289C134.585 67.8352 135.877 67.0129 137.15 66.2689C137.365 66.1514 137.6 66.0339 137.816 65.936C138.07 67.9135 137.189 70.3413 136.797 71.9076C135.74 76.2737 135.153 81.7753 136.073 85.9848C134.193 85.5736 132.843 85.0646 132.843 85.0646C132.843 85.0646 132.882 77.8596 132.686 74.1592C132.666 73.8263 132.647 73.4543 132.647 73.0432C132.647 72.9453 132.647 72.8669 132.647 72.7886Z" fill="#4F5151"/>
<path d="M138.09 49.4312C138.09 49.4312 136.367 45.8482 134.096 45.9853C131.805 46.1223 130.336 46.4943 130.043 47.395C129.729 48.276 129.22 50.7038 128.633 51.6044C128.046 52.505 126.793 53.6798 126.812 54.0909C126.832 54.5021 128.144 54.6391 128.222 54.7958C128.3 54.9524 129.005 57.9284 129.475 58.2221C129.945 58.5353 134.35 56.8124 135.016 55.5006C135.701 54.228 138.285 51.761 138.09 49.4312Z" fill="#DFDFDF"/>
<path d="M133.43 49.7838C133.215 49.8034 132.921 49.9405 132.745 49.9796C132.412 50.0384 132.059 50.0775 131.727 50.1167C131.041 50.2342 130.356 50.3321 129.69 50.1167C128.692 49.7838 129.025 48.8049 128.555 48.1196C128.339 47.7868 127.869 47.7868 127.615 47.4148C127.38 47.0624 127.321 46.5533 127.321 46.1422C127.341 45.1045 128.359 45.0066 129.162 44.8108C130.101 44.5759 130.16 44.0668 130.591 43.3424C131.707 41.5999 133.273 44.0277 134.487 43.871C135.114 43.7927 135.779 43.3816 136.386 43.734C136.915 44.0277 137.228 44.5563 137.581 45.0262C137.953 45.5157 138.305 45.3199 138.853 45.5157C139.245 45.6723 139.676 46.0443 139.969 46.3575C140.596 47.082 141.007 48.1588 140.811 49.1182C140.654 49.9209 140.008 50.3516 139.969 51.2131C139.95 51.8788 139.989 52.7207 139.656 53.3276C139.186 54.2282 138.109 54.3457 137.404 54.9527C136.739 55.54 135.779 55.9512 134.859 55.7358C134.761 55.1093 134.82 54.0325 135.388 53.7192C135.603 53.6017 135.877 53.5626 136.23 53.2885C136.876 52.7794 136.484 51.4676 135.29 51.6243C134.565 51.7222 134.252 53.6996 133.449 53.3668C132.843 53.1318 133.567 52.1333 133.743 51.7809C133.959 51.3306 134.076 50.195 133.645 49.823C133.606 49.7838 133.528 49.7643 133.43 49.7838Z" fill="#181818"/>
<path d="M114.282 85.1246C114.047 85.105 113.773 85.0462 113.695 85.0854C113.303 85.2225 112.657 85.0267 112.403 84.9287C111.796 84.6938 110.856 84.2826 110.229 84.4001C109.857 84.4588 107.664 84.9679 108.212 85.8882C108.291 86.0057 108.545 86.2015 108.624 86.1623C108.858 86.084 109.485 85.849 109.485 85.849C109.485 85.849 108.996 86.0253 108.898 86.1036C108.819 86.1623 108.643 86.2407 108.584 86.319C108.467 86.5148 108.643 86.9064 108.839 86.9651C109.035 87.0239 109.172 86.8477 109.328 86.7498C109.328 86.7498 109.328 86.7498 109.309 86.7498C109.152 86.8672 108.819 86.9456 109.035 87.4155C109.27 87.9246 109.426 87.6113 109.642 87.5526C109.72 87.533 109.798 87.4938 109.877 87.4547C109.798 87.4938 109.485 87.6505 109.426 87.7092C109.231 87.8854 109.681 88.512 110.092 88.4533C110.347 88.4141 110.934 88.0617 111.071 88.1008C111.228 88.14 111.424 88.14 111.58 88.1596C112.089 88.1987 112.598 88.0617 113.068 87.8659C113.284 87.768 113.675 87.6113 113.891 87.4938C114.4 87.2197 114.968 86.7889 115.105 86.6714C114.752 86.0253 114.224 85.8686 114.282 85.1246Z" fill="#DFDFDF"/>
<path d="M115.045 87.8844L113.264 84.3798C113.264 84.3798 122.055 78.7411 125.285 75.491C128.496 72.2409 131.981 65.6428 134.428 65.2316C136.876 64.8205 139.343 66.1714 137.933 69.5782C136.504 72.9849 129.318 77.5272 127.85 79.0152C126.401 80.5227 116.494 87.0816 115.045 87.8844Z" fill="#AFB2B2"/>
<path d="M139.48 4.71347C137.913 4.04779 132.901 1.42423 128.868 10.9395C125.03 20.0046 120.978 32.2609 120.978 32.2609C120.978 32.2609 130.963 24.0378 138.011 17.1852C145.412 10.0193 140.948 5.65326 139.48 4.71347Z" fill="#E50000"/>
<path d="M130.904 11.9771L121.311 21.8448C118.413 24.8208 115.809 28.0513 113.499 31.4972L74.3409 89.8617L118.726 41.8152C123.738 36.3919 127.85 30.205 130.885 23.4894L134.624 15.2467C133.175 14.444 131.903 13.328 130.904 11.9771Z" fill="#181818"/>
<path d="M119.353 33.0245C119.353 33.0245 112.892 15.0316 118.942 3.38215C124.972 -8.26726 132.862 13.9156 132.862 13.9156L119.353 33.0245Z" fill="#E50000"/>
<path d="M119.314 32.9271C119.314 32.9271 138.423 32.8879 147.35 23.2551C156.259 13.6223 132.725 13.7398 132.725 13.7398L119.314 32.9271Z" fill="#E50000"/>
<path d="M105.041 56.8128C104.904 56.754 104.747 57.1456 104.59 57.1065L104.61 56.6757C104.551 56.2841 103.083 56.1862 102.75 56.0099C101.771 55.5008 102.162 54.8743 102.613 55.0113C102.926 55.1092 103.611 55.305 103.885 55.4225C104.16 55.54 104.63 55.4813 104.904 55.54C105.178 55.5988 105.941 56.2645 106.176 56.4211C106.686 56.754 105.569 57.0281 105.041 56.8128Z" fill="#DFDFDF"/>
<path d="M35.9468 113.514C35.9468 113.514 28.0565 115.491 22.1437 119.857C16.2309 124.243 10.1027 137.811 8.88885 147.346C7.67496 156.881 5.26676 164.321 8.88885 169.196C12.5109 174.071 24.2191 175.05 34.3022 176.048C44.3853 177.027 58.2863 174.619 61.0861 171.115C63.8858 167.61 63.6705 141.081 58.4038 131.076C53.1371 121.071 43.6021 113.298 35.9468 113.514Z" fill="#AFB2B2"/>
<path d="M49.3779 170.585C47.3612 169.92 45.2663 169.176 43.6021 167.805C40.0192 164.849 37.8263 163.968 33.3624 164.007C29.2704 164.046 25.335 164.027 21.8304 161.716C18.6978 159.641 16.9553 155.04 17.7189 151.418C18.2671 148.775 19.0502 146.68 20.6948 144.526C22.9856 141.472 23.4359 139.279 22.6136 135.481C21.6346 130.919 21.4976 127.023 22.8289 122.519C23.5142 120.189 25.1392 118.486 26.9797 116.959C25.3546 117.781 23.6904 118.741 22.1633 119.876C16.2504 124.262 10.1223 137.83 8.90838 147.365C7.69449 156.9 5.28629 164.34 8.90838 169.215C12.5305 174.09 24.2386 175.069 34.3217 176.068C44.4048 177.046 58.3058 174.638 61.1056 171.134C61.6538 170.448 62.0845 168.902 62.3782 166.768C58.854 170.213 54.3117 172.23 49.3779 170.585Z" fill="#4F5151"/>
<path d="M34.8503 115.49C34.8503 115.49 26.3922 113.434 25.2371 107.032C24.0819 100.63 27.4495 98.3979 30.0339 99.8859C32.6183 101.374 33.0295 100.571 34.8307 99.4551C36.632 98.3391 39.2751 100.14 40.5869 102.04C41.8987 103.939 42.1532 101.707 45.2663 101.472C48.3793 101.217 49.4561 104.095 47.8115 107.874C46.1865 111.633 44.6202 115.647 34.8503 115.49Z" fill="#AFB2B2"/>
<path d="M44.0133 111.888C41.8205 112.456 43.1127 109.617 42.7602 108.638C42.1925 108.658 41.9771 109.617 41.7813 110.028C41.3701 110.929 40.4304 111.516 39.4514 111.516C38.0809 111.497 37.9047 110.009 37.3173 109.089C37.0628 108.697 36.9649 108.717 36.8083 109.186C36.6321 109.695 36.8083 110.283 36.3188 110.694C35.4378 111.418 33.9889 110.596 33.3037 110.009C32.5597 109.363 32.2464 108.305 31.4632 107.679C31.3262 107.835 31.2675 108.031 31.2087 108.227C31.0129 109.147 31.0717 110.909 29.5641 110.576C28.2915 110.302 27.43 108.227 27.0188 107.17C26.549 105.956 26.0986 104.487 26.0986 103.176C26.0986 102.608 26.1378 102.04 26.2161 101.492C26.2553 101.179 26.3727 100.474 26.5294 100.2H26.5098C25.2959 101.277 24.5519 103.528 25.198 107.052C26.177 112.495 32.4422 114.806 34.3022 115.373C34.6154 115.471 34.9679 115.53 35.3007 115.53C42.9952 115.55 45.4034 112.867 46.911 109.852C46.911 109.852 46.911 109.872 46.8914 109.872C46.9305 109.813 44.7964 111.673 44.0133 111.888Z" fill="#4F5151"/>
<path d="M38.4137 134.521C42.5644 134.932 46.304 136.792 46.2453 140.943L39.3144 140.825C39.3144 139.259 37.7089 138.887 36.6908 138.867C36.0643 138.848 33.9889 138.828 33.9693 140.081C33.9106 142.92 46.7347 140.199 46.5977 148.246C46.5194 153.082 42.7015 154.805 38.0613 155.059L38.2767 160.189L34.0476 160.11L34.4001 154.942C30.1123 154.413 26.1378 152.318 26.2161 147.991L33.147 148.109V148.265C33.147 150.184 35.2811 150.595 36.3579 150.615C37.4152 150.634 39.471 150.595 39.4906 149.205C39.5493 146.249 26.7252 148.716 26.8622 140.943C26.9405 136.459 30.4451 134.795 34.7721 134.501L34.5959 129.333L38.8249 129.411L38.4137 134.521Z" fill="white"/>
<path d="M28.683 112.436L27.9194 116.469C27.9194 116.469 30.0731 118.545 35.9663 118.545C41.8596 118.545 45.0313 116.469 45.0313 116.469L44.6398 112.828C44.6593 112.828 36.5929 114.864 28.683 112.436Z" fill="#181818"/>
</svg>
