<svg width="350" height="270" viewBox="0 0 350 270" fill="none" xmlns="http://www.w3.org/2000/svg">
<path d="M141.075 205.946C128.29 191.517 90.5587 171.929 100.484 149.448C108.931 130.319 149.39 132.685 144.526 109.613C141.634 95.9731 137.92 84.3382 146.695 68.825C156.293 51.9314 184.953 61.1342 194.878 45.4566C203.424 31.9812 192.315 11.1764 209.964 2.17089C225.609 -5.81578 244.54 9.79602 247.367 23.633C250.884 40.921 233.76 49.072 231.558 64.1251C230.145 73.7222 238.887 77.0418 243.883 83.7466C248.681 90.1557 252.987 99.4241 253.283 107.378C254.236 131.305 228.008 134.395 215.584 149.579C204.081 163.646 225.313 172.75 222.125 188.066C218.707 204.598 195.174 213.604 178.609 213.374C167.139 213.177 148.996 214.886 141.075 205.946Z" fill="#5B5B5B"/>
<path d="M157.772 213.834C157.673 213.801 157.574 213.801 157.476 213.735C156.95 213.472 156.753 212.913 157.081 212.42C157.311 212.092 180.713 176.891 182.06 132.652C182.948 103.171 195.207 84.3051 205.264 68.8248C211.345 59.4906 216.636 51.3396 217.425 43.1557C217.491 42.4984 218.115 41.9725 218.805 42.0054C219.529 42.0382 219.989 42.597 219.923 43.2543C219.036 51.9969 213.58 60.378 207.335 69.9751C197.442 85.1925 185.347 103.729 184.427 132.62C182.981 177.384 159.251 212.979 159.021 213.308C158.758 213.735 158.232 213.899 157.772 213.834Z" fill="white"/>
<path d="M184.032 132.784C183.474 132.685 183.079 132.192 183.145 131.666C183.211 131.075 183.802 130.614 184.46 130.647C194.385 131.239 207.598 125.454 211.608 115.791C212.101 114.641 212.561 113.359 213.087 111.979C215.519 105.504 218.543 97.3531 224.919 94.4279C228.041 92.9818 231.656 92.9818 235.6 94.3622C236.225 94.5923 236.488 95.2167 236.225 95.8083C235.962 96.3999 235.272 96.6629 234.647 96.4986C231.262 95.3153 228.403 95.3153 225.905 96.4657C220.515 98.9636 217.655 106.556 215.387 112.636C214.861 114.017 214.368 115.331 213.875 116.515C209.307 127.459 194.977 133.507 184.229 132.849C184.164 132.817 184.098 132.784 184.032 132.784Z" fill="white"/>
<path d="M176.999 131.667C172.397 130.615 168.913 128.61 166.58 125.62C162.899 120.887 162.307 113.755 164.969 104.979C165.232 104.092 165.561 103.106 165.923 101.988C167.993 95.7106 171.148 86.1135 168.026 80.7561C167.007 78.9813 165.364 77.831 162.997 77.2394C162.34 77.075 161.946 76.4177 162.143 75.8261C162.34 75.2016 162.997 74.8401 163.655 75.0044C166.646 75.7604 168.815 77.3051 170.162 79.6058C173.745 85.7848 170.392 95.9407 168.19 102.58C167.829 103.664 167.5 104.65 167.237 105.505C164.805 113.656 165.232 120.131 168.486 124.338C171.28 127.92 176.144 129.892 182.915 130.254C183.605 130.287 184.032 130.812 183.999 131.404C183.934 131.996 183.342 132.456 182.685 132.423C180.68 132.324 178.774 132.061 176.999 131.667Z" fill="white"/>
<path d="M171.378 199.898C169.998 199.635 168.716 199.208 167.566 198.518C167.073 198.222 166.941 197.597 167.336 197.137C167.697 196.677 168.42 196.546 168.913 196.874C174.862 200.457 186.925 195.79 192.052 192.174C194.188 190.663 196.127 188.033 198.165 185.24C201.813 180.244 205.626 175.084 211.608 174.886C212.265 174.854 212.758 175.314 212.725 175.872C212.692 176.431 212.166 176.891 211.542 176.924C206.809 177.056 203.391 181.756 200.071 186.258C197.935 189.184 195.897 191.944 193.432 193.686C188.798 196.94 178.741 201.246 171.378 199.898Z" fill="white"/>
<path d="M161.65 197.729C160.237 197.466 158.889 196.973 157.542 196.283C150.081 192.306 145.644 182.117 144.493 176.201C143.869 173.013 144.822 168.806 145.841 164.336C147.451 157.171 149.16 149.71 144.493 146.325C144 145.964 143.935 145.273 144.362 144.813C144.789 144.353 145.545 144.287 146.038 144.649C151.757 148.856 149.851 157.303 148.142 164.698C147.156 168.971 146.235 173.013 146.794 175.807C147.846 181.164 152.02 190.958 158.79 194.574C161.42 195.987 164.246 196.316 167.106 195.56C167.697 195.396 168.322 195.691 168.486 196.217C168.651 196.743 168.289 197.302 167.665 197.433C165.627 197.992 163.622 198.091 161.65 197.729Z" fill="white"/>
<path d="M232.642 254.491C210.72 249.068 193.366 244.171 192.873 220.966C192.643 208.937 198.001 200.655 210.654 193.983C220.909 188.593 226.168 186.752 228.534 176.103C232.314 159.078 224.097 142.283 234.812 125.85C246.775 107.477 273.759 115.858 286.216 99.1945C297.39 84.24 303.536 64.8814 327.135 65.1772C347.019 65.4072 355.138 86.1792 346.625 100.575C341.826 108.693 333.445 114.379 330.06 123.089C326.806 131.371 330.389 138.142 333.577 145.701C340.61 162.43 342.352 179.653 323.158 190.696C311.687 197.302 302.846 203.087 306.987 215.478C311.326 228.493 313.265 235.921 297.489 245.715C285.69 253.045 274.909 252.453 261.368 253.012C248.649 253.538 231.689 257.021 219.693 251.533L232.642 254.491Z" fill="#DFDFDF"/>
<path d="M239.742 242.462C237.901 240.358 236.652 238.189 236.028 235.921C233.366 226.193 242.634 216.431 251.048 207.59C255.288 203.153 259.33 198.88 261.204 195.265C266.364 185.372 267.909 176.564 266.824 162.727C265.509 146.326 269.914 139.621 283.323 128.775C294.597 119.605 305.771 109.548 308.894 99.5563C309.124 98.7675 310.143 98.3731 311.096 98.6032C312.082 98.8661 312.673 99.6878 312.443 100.477C309.091 111.093 297.522 121.511 285.887 130.879C272.937 141.33 268.895 147.378 270.111 162.99C271.031 174.789 270.341 184.977 264.195 196.678C262.157 200.556 258.016 204.895 253.677 209.43C245.559 217.91 236.586 227.31 238.953 236.02C239.873 239.372 242.404 242.462 246.677 245.453C247.367 245.946 247.63 246.734 247.17 247.195C246.709 247.655 245.789 247.655 245.066 247.129C242.963 245.617 241.155 244.072 239.742 242.462Z" fill="white"/>
<path d="M267.481 178.207C267.251 177.944 267.12 177.681 267.087 177.352C267.054 176.629 267.777 176.103 268.665 176.202C276.586 177.056 282.436 170.877 288.779 164.205C294.367 158.289 300.25 152.11 308.269 150.401C309.19 150.204 310.241 150.664 310.57 151.42C310.931 152.176 310.504 152.932 309.584 153.129C302.55 154.608 296.93 160.458 291.606 166.046C285.065 172.915 278.426 179.883 268.796 178.831C268.27 178.798 267.81 178.535 267.481 178.207Z" fill="white"/>
<path d="M261.138 198.387C261.007 198.255 260.908 198.091 260.842 197.926C260.053 195.954 259.758 194.278 259.429 192.668C258.936 190.038 258.476 187.771 256.175 184.911C254.959 183.399 253.579 182.052 252.264 180.77C249.503 178.042 246.611 175.281 245.329 170.811C243.489 164.435 243.587 156.514 245.691 147.18C245.986 145.865 246.644 144.058 247.367 142.118C248.386 139.325 250.325 134.099 249.7 132.916C249.306 132.225 249.569 131.404 250.358 131.174C251.114 130.911 252.067 131.207 252.494 131.864C253.809 133.869 252.593 137.517 250.456 143.236C249.766 145.109 249.109 146.884 248.846 148.034C247.433 154.246 246.217 163.12 248.386 170.614C249.47 174.361 251.804 176.629 254.532 179.258C255.945 180.606 257.391 182.019 258.739 183.728C261.533 187.179 262.058 190.005 262.584 192.733C262.88 194.245 263.176 195.823 263.866 197.565C264.162 198.288 263.702 198.945 262.847 199.011C262.256 199.142 261.565 198.847 261.138 198.387Z" fill="white"/>
<path d="M100.846 251.368C76.5902 246.963 53.8463 248.837 44.0191 222.247C36.2296 201.213 54.3722 181.427 36.131 166.965C25.1535 158.256 7.8326 153.063 4.02003 138.207C0.0431353 122.726 19.829 112.899 16.2794 98.0433C13.3214 85.7511 -3.7037 84.9623 0.733341 68.9561C4.67737 54.7575 17.1668 51.2079 27.0598 54.0345C40.3051 57.8142 41.4226 69.9421 50.2309 78.3889C56.1141 84.0091 64.4295 78.356 73.0406 77.3371C81.6189 76.3183 92.6293 77.0742 99.8929 80.8539C123.491 93.1461 104.593 119.21 108.866 140.409C113.007 160.918 141.864 148.527 156.786 163.909C174.205 181.887 161.058 212.979 143.902 227.67C132.497 237.432 117.247 254.358 100.846 251.368Z" fill="#DFDFDF"/>
<path d="M124.28 246.01C124.149 246.076 124.017 246.141 123.886 246.174C123.097 246.371 122.275 245.878 122.078 245.155C121.914 244.597 106.138 191.812 67.6833 157.072C46.024 137.516 40.8967 117.303 36.8541 101.494C34.5206 92.2912 32.5157 84.436 27.9143 80.1962C27.5528 79.8675 27.5856 79.1773 28.0129 78.6514C28.4402 78.1255 29.0975 77.9941 29.459 78.3227C34.422 82.8584 36.4926 90.9436 38.9247 100.442C42.9345 116.021 48.0289 135.971 69.3924 155.133C108.603 190.3 124.74 243.906 124.905 244.465C125.069 245.09 124.806 245.714 124.28 246.01Z" fill="white"/>
<path d="M69.1952 155.527C68.7022 155.889 68.0448 155.889 67.6504 155.462C67.2232 155.002 67.2889 154.213 67.7819 153.72C75.5714 146.062 80.6329 131.272 75.5385 121.97C74.9469 120.886 74.2567 119.702 73.5007 118.486C70.0497 112.702 65.8427 105.668 68.0448 98.7991C69.1294 95.4467 71.6602 92.3901 75.5714 89.7278C76.1958 89.3006 76.886 89.3992 77.1818 89.9579C77.4448 90.4838 77.1818 91.2069 76.5902 91.667C73.2378 93.9348 71.2001 96.3341 70.3126 99.0621C68.4392 104.912 72.4161 111.551 75.67 116.942C76.4259 118.191 77.149 119.374 77.7406 120.491C83.558 131.107 77.8392 147.048 69.3266 155.396C69.2938 155.429 69.2609 155.495 69.1952 155.527Z" fill="white"/>
<path d="M63.2134 160.392C59.1379 163.317 55.1281 164.631 51.2827 164.401C45.3338 164.04 39.9107 159.8 35.5723 152.241C35.145 151.518 34.6849 150.63 34.159 149.677C31.2996 144.353 27.0269 136.432 21.8011 135.709C20.092 135.478 18.4486 136.037 16.7067 137.385C16.2137 137.779 15.6221 137.681 15.3591 137.188C15.0962 136.695 15.2605 136.004 15.7535 135.643C17.9228 133.901 20.1577 133.178 22.3927 133.474C28.4402 134.295 32.9758 142.676 36.0324 148.297C36.5254 149.217 36.9856 150.071 37.4128 150.794C41.4555 157.762 46.3527 161.673 51.6442 162.002C56.2456 162.265 61.2085 159.8 66.3686 154.673C66.8945 154.147 67.6176 154.147 68.0448 154.574C68.4721 155.034 68.4064 155.823 67.9134 156.316C66.4015 157.894 64.791 159.241 63.2134 160.392Z" fill="white"/>
<path d="M121.651 220.505C120.106 221.425 118.463 222.083 116.688 222.379C115.899 222.51 115.176 222.017 115.045 221.261C114.913 220.505 115.406 219.815 116.195 219.683C125.496 218.073 131.609 203.184 132.398 195.296C132.727 192.042 131.609 188 130.426 183.727C128.356 176.2 126.219 168.543 131.511 162.955C132.07 162.331 133.023 162.265 133.614 162.725C134.206 163.185 134.239 164.073 133.68 164.631C129.473 169.036 131.445 176.036 133.351 182.872C134.6 187.375 135.816 191.648 135.422 195.428C134.699 202.56 129.999 215.476 121.651 220.505Z" fill="white"/>
<path d="M110.575 226.586C109.063 227.506 107.354 228.164 105.48 228.558C95.1272 230.793 82.0133 224.877 75.8343 220.506C72.6133 218.205 69.7539 213.866 66.763 209.331C62.1288 202.264 57.4288 195.099 51.4799 196.02C50.8554 196.118 50.2967 195.658 50.2309 195.001C50.1652 194.343 50.6582 193.719 51.2827 193.62C58.5791 192.47 63.9365 200.588 68.7679 207.885C71.6273 212.223 74.3881 216.364 77.2476 218.402C82.8678 222.346 95.423 227.999 104.823 225.929C108.57 225.107 111.396 223.102 113.171 219.98C113.566 219.322 114.42 219.092 115.11 219.454C115.8 219.815 116.063 220.637 115.669 221.327C114.42 223.529 112.678 225.304 110.575 226.586Z" fill="white"/>
<path d="M284.375 269.511H68.2092C65.3169 269.511 62.9505 267.144 62.9505 264.252V122.76C62.9505 119.867 65.3169 117.501 68.2092 117.501H284.375C287.267 117.501 289.634 119.867 289.634 122.76V264.252C289.634 267.144 287.267 269.511 284.375 269.511Z" fill="#181818"/>
<path d="M268.796 127.591H73.3693V257.875H268.796V127.591Z" fill="white"/>
<path d="M282.567 193.489C282.567 195.757 280.727 197.598 278.459 197.598C276.191 197.598 274.351 195.757 274.351 193.489C274.351 191.221 276.191 189.381 278.459 189.381C280.727 189.381 282.567 191.254 282.567 193.489Z" fill="white"/>
<path d="M224.919 233.554H117.312C114.354 233.554 111.922 231.154 111.922 228.164V158.847C111.922 155.889 114.321 153.457 117.312 153.457H224.919C227.877 153.457 230.309 155.856 230.309 158.847V228.164C230.309 231.122 227.91 233.554 224.919 233.554Z" fill="#DFDFDF"/>
<path d="M224.919 159.833H117.312V227.144H224.919V159.833Z" fill="#5B5B5B"/>
<path d="M151.132 172.29V216.562L194.254 194.409L151.132 172.29Z" fill="#E50000"/>
<path d="M172.825 116.68C172.825 116.68 145.479 116.515 135.882 110.139C126.285 103.73 124.609 78.2912 138.544 67.8723C152.48 57.4535 155.372 54.2654 155.997 47.3962C156.621 40.5271 156.457 24.981 174.534 24.9153C192.249 24.8495 190.737 39.3767 192.085 48.6123C193.038 55.0542 201.879 64.5528 209.603 70.4688C219.529 78.0282 230.67 123.056 172.825 116.68Z" fill="#181818"/>
<path d="M169.669 42.7949L175.618 42.9921L181.567 43.1893C181.567 43.1893 182.783 59.4585 185.807 61.4633C185.807 61.4633 189.028 80.7234 174.435 80.2632C156.786 79.7045 164.279 60.7731 164.279 60.7731C167.434 58.9326 169.669 42.7949 169.669 42.7949Z" fill="#E50000"/>
<path d="M149.785 117.403H197.771L201.813 101.857C202.438 86.0809 202.668 70.009 202.668 70.009C195.799 64.4544 184.788 60.4775 184.788 60.4775C179.004 64.8488 170.195 65.2432 164.674 60.4775C164.674 60.4775 153.762 64.9474 146.597 70.009C146.597 70.009 145.151 76.6809 145.874 87.1984C146.564 97.3214 147.911 107.444 149.785 117.403Z" fill="#E50000"/>
<path d="M219.726 117.403C216.045 98.9315 212.659 87.198 209.636 80.2631C205.692 71.1918 202.668 70.0086 202.668 70.0086C199.151 69.6799 196.522 99.0958 190.507 117.403H219.726Z" fill="#E50000"/>
<path d="M197.573 90.7153C196.62 93.3118 194.944 95.4153 193.301 97.7488C191.822 99.8523 187.746 111.553 171.773 110.435C165.167 109.975 159.053 103.468 156.358 96.8285C155.241 94.1006 154.715 91.4712 154.123 88.6118C153.696 86.5412 153.565 83.879 152.513 82.0713C150.508 82.5643 150.311 85.5552 149.588 87.2971C149.16 88.3489 146.268 92.3586 146.038 89.3678C146.761 98.8006 148.01 108.168 149.785 117.403H201.353C200.367 106.59 197.508 94.002 197.573 90.7153Z" fill="#B40000"/>
<path d="M188.831 45.6876C187.122 43.847 185.248 46.805 185.248 46.805C185.248 46.805 185.971 43.5183 186.136 39.8044C182.192 37.6352 178.215 35.0715 174.468 33.9212V33.8555H174.435H174.402V33.8883C170.655 35.0387 166.678 37.5694 162.734 39.7715C162.899 43.4855 163.622 46.7722 163.622 46.7722C163.622 46.7722 161.748 43.8142 160.039 45.6547C158.33 47.4952 162.537 52.4253 163.523 53.0169C163.523 53.0169 167.007 61.4966 171.378 64.2902C172.529 65.0133 175.98 65.2105 177.689 64.1259C182.06 61.2994 185.347 53.0169 185.347 53.0169C186.333 52.4253 190.54 47.5281 188.831 45.6876Z" fill="white"/>
<path d="M186.103 36.7478C186.103 36.7478 180.121 47.331 165.265 46.345C165.265 46.345 165.988 47.5939 165.101 49.8617C165.101 49.8617 164.049 45.6876 161.748 47.0023C160.532 47.6925 160.532 49.4016 161.781 51.2421C162.34 52.0638 158.133 50.5519 158.133 50.5519C158.133 50.5519 156.391 34.4143 167.073 30.766C177.788 27.0849 186.103 36.7478 186.103 36.7478Z" fill="#5B5B5B"/>
<path d="M181.173 31.1937C181.041 31.9825 180.943 32.7384 180.943 33.4944C180.976 35.1377 178.609 36.3209 178.543 37.9314C178.872 38.2929 179.201 38.6873 179.529 39.0817C181.534 41.5796 182.389 43.0258 183.112 46.1153C183.309 46.9698 182.816 47.5943 184.164 49.9607C184.164 49.9607 185.183 45.7537 187.746 46.3782C188.239 46.5097 189.258 47.2656 188.371 49.3362C188.042 50.0922 191.033 46.2139 191.033 46.2139C191.033 46.2139 190.901 30.865 181.173 31.1937Z" fill="#5B5B5B"/>
<path d="M160.401 188.429C160.96 189.71 163.918 191.715 162.866 193.457C162.34 194.345 159.678 192.471 159.086 191.715C158.265 190.631 152.513 181.724 151.625 179.16C150.935 177.155 150.245 175.183 149.456 173.343C151.527 172.094 153.466 170.516 155.208 168.741C158.133 170.089 161.255 171.962 164.148 173.244C165.692 173.934 167.402 174.394 168.979 174.986C169.965 175.347 172.102 175.906 172.167 177.221C172.266 178.667 170.13 178.24 169.308 178.075C168.092 177.845 165.857 176.662 165.002 178.075C163.753 180.08 167.533 182.447 168.815 183.827C169.998 185.109 174.304 189.053 171.148 189.349C170.491 189.415 165.988 185.569 165.298 185.043C165.43 185.24 168.322 188.001 168.453 188.198C169.209 189.184 171.346 191.288 170.721 192.307C169.341 194.509 164.608 188.691 163.885 187.936L165.692 190.236C167.237 191.978 168.19 193.457 166.909 193.983C165.232 194.64 161.847 189.875 160.401 188.429Z" fill="white"/>
<path d="M159.776 170.614L149.982 177.155C149.982 177.155 119.087 137.156 122.44 122.037C126.416 104.157 136.77 84.1741 142.488 74.8728C144.691 71.2903 146.597 69.9756 146.597 69.9756C152.48 75.6287 155.865 83.5496 155.109 90.6489C154.781 93.837 153.236 95.8747 151.527 99.1286C146.301 109.022 139.925 126.178 140.155 127.92C140.484 130.714 159.776 170.614 159.776 170.614Z" fill="#E50000"/>
</svg>
