<svg width="340" height="357" viewBox="0 0 340 357" fill="none" xmlns="http://www.w3.org/2000/svg">
<path d="M201.105 337.451H138.855L143.975 262.379H195.985L201.105 337.451Z" fill="#181818"/>
<path d="M209.29 325.434C208.523 324.306 207.274 323.62 205.903 323.62H171.431H168.569H134.097C132.726 323.62 131.476 324.306 130.71 325.434L121.316 339.465C119.502 342.166 121.437 345.795 124.703 345.795H168.609H171.471H215.297C218.563 345.795 220.498 342.166 218.684 339.465L209.29 325.434Z" fill="#181818"/>
<path d="M322.421 282.335H17.5382C7.86197 282.335 0 274.474 0 264.797V71.9572C0 62.2809 7.86197 54.4189 17.5382 54.4189H322.462C332.138 54.4189 340 62.2809 340 71.9572V264.797C339.96 274.474 332.098 282.335 322.421 282.335Z" fill="#181818"/>
<path d="M324.276 69.5371H15.6432V264.877H324.276V69.5371Z" fill="#E50000"/>
<path d="M283.958 322.854C248.116 316.202 206.306 308.34 206.185 322.209C206.064 335.312 221.99 345.513 235.698 352.004C243.157 349.182 251.543 348.617 259.485 347.408C273.516 345.231 287.305 347.488 301.376 347.448C316.051 341.441 323.792 330.877 323.792 330.877C323.792 330.877 311.616 327.975 283.958 322.854Z" fill="#5B5B5B"/>
<path d="M253.76 347.731C254.889 348.295 241.181 354.786 242.27 355.351C248.156 357.205 305.932 357.528 311.213 356.157C320.365 353.819 294.24 342.449 303.351 340.554C318.35 329.951 326.816 316.041 318.672 314.307C309.52 312.332 295.167 317.17 285.894 318.138C278.838 318.863 274.726 319.347 268.033 317.009L245.455 314.509C222.313 319.105 217.555 327.451 217.313 327.33C217.313 330.636 234.206 337.409 249.325 345.433C250.898 345.957 252.39 346.723 253.76 347.731Z" fill="#9FA0A0"/>
<path opacity="0.32" d="M253.76 347.731C254.889 348.295 241.181 354.786 242.27 355.351C248.156 357.205 305.932 357.528 311.213 356.157C320.365 353.819 294.24 342.449 303.351 340.554C318.35 329.951 326.816 316.041 318.672 314.307C309.52 312.332 295.167 317.17 285.894 318.138C278.838 318.863 274.726 319.347 268.033 317.009L245.455 314.509C222.313 319.105 217.555 327.451 217.313 327.33C217.313 330.636 234.206 337.409 249.325 345.433C250.898 345.957 252.39 346.723 253.76 347.731Z" fill="#181818"/>
<path d="M245.132 338.863L252.47 348.781C252.47 348.781 244.487 354.345 242.27 355.353C240.052 356.321 222.03 357.087 217.313 353.458C213.08 350.233 211.628 345.959 213.805 343.943C216.547 341.403 223.24 340.557 226.546 340.153C233.924 339.186 245.132 338.863 245.132 338.863Z" fill="#E50000"/>
<path d="M240.697 339.225L244.931 354.183C244.931 354.183 315.971 353.135 323.389 342.209C332.904 332.371 336.775 313.019 317.583 312.616C314.68 312.575 310.004 313.503 305.206 315.115C279.16 323.945 240.697 339.225 240.697 339.225Z" fill="#9FA0A0"/>
<path opacity="0.32" d="M319.237 338.216C314.802 338.216 311.092 335.999 307.464 333.781C302.908 331.04 297.949 329.225 292.748 328.016C288.272 326.967 283.555 325.395 279.967 324.186C259.324 330.878 240.738 339.224 240.738 339.224L244.044 350.957C245.858 351.4 247.672 351.844 249.487 352.368C251.664 352.569 253.841 352.811 255.938 353.376C256.381 353.497 256.825 353.577 257.268 353.658C277.669 352.529 318.833 349.384 324.276 341.361C325.163 340.071 326.937 337.853 327.582 336.402C325.97 337.007 321.212 338.216 319.237 338.216Z" fill="#181818"/>
<path d="M301.9 339.749L295.731 347.571C295.731 347.571 305.77 353.699 307.867 354.707C309.963 355.715 324.478 356.401 329.074 353.095C333.186 350.111 334.718 346.12 332.703 344.144C330.163 341.604 323.792 340.637 320.648 340.112C313.713 338.943 301.9 339.749 301.9 339.749Z" fill="#E50000"/>
<path d="M309.036 337.853L302.706 355.351C302.706 355.351 215.459 348.497 208.363 336.281C204.129 328.983 203.484 317.654 212.636 313.622C218.24 311.122 226.223 309.873 237.512 313.743C265.654 323.419 309.036 337.853 309.036 337.853Z" fill="#9FA0A0"/>
<path d="M274.726 221.777H268.557H262.388C262.388 221.777 260.614 238.59 257.389 240.606C257.389 240.606 253.398 260.482 268.557 260.482C286.902 260.482 279.725 240.606 279.725 240.606C276.5 238.63 274.726 221.777 274.726 221.777Z" fill="#E50000"/>
<path d="M284.604 225.086C282.91 223.11 280.854 226.094 280.854 226.094C280.854 226.094 283.676 214.966 280.854 210.087C278.032 205.209 268.88 207.789 268.88 207.789C268.88 207.789 259.728 205.209 256.905 210.087C254.083 214.966 256.905 226.094 256.905 226.094C256.905 226.094 254.849 223.11 253.156 225.086C251.462 227.061 255.978 232.02 257.026 232.625C257.026 232.625 263.598 244.962 268.92 244.962C274.242 244.962 280.814 232.625 280.814 232.625C281.781 232.02 286.337 227.061 284.604 225.086Z" fill="white"/>
<path d="M266.541 212.184C266.541 212.184 259.606 213.394 258.84 217.143C258.478 218.957 258.881 220.893 259.203 222.707C259.365 223.634 260.05 228.714 259.808 228.835C259.566 228.956 259.082 228.835 258.921 228.674C257.994 227.948 257.268 226.819 256.583 225.852C255.252 223.917 253.357 224.239 252.833 225.449C252.833 225.449 251.301 207.185 258.921 206.54C266.541 205.895 266.541 212.184 266.541 212.184Z" fill="#181818"/>
<path d="M271.057 212.184C271.057 212.184 277.991 213.394 278.757 217.143C279.12 218.957 278.717 220.893 278.395 222.707C278.233 223.634 277.548 228.714 277.79 228.835C278.032 228.956 278.516 228.835 278.677 228.674C279.604 227.948 280.37 226.819 281.015 225.852C282.346 223.917 284.241 224.239 284.765 225.449C284.765 225.449 286.297 207.185 278.677 206.54C271.057 205.895 271.057 212.184 271.057 212.184Z" fill="#181818"/>
<path d="M281.257 207.627C281.257 207.627 281.418 204.603 277.991 202.748C274.564 200.894 267.751 200.047 262.388 202.748C256.986 205.45 255.373 206.054 253.801 205.167C252.228 204.28 253.236 203.353 253.236 203.353C253.236 203.353 249.688 203.313 249.89 208.796C250.051 214.279 256.784 221.093 265.614 221.093C278.999 221.093 283.313 211.699 281.257 207.627Z" fill="#181818"/>
<path d="M279.725 240.607C279.08 257.501 268.557 255.767 268.557 255.767C268.557 255.767 258.034 257.501 257.389 240.607C257.389 240.607 240.576 245.244 232.351 250.768C232.351 250.768 235.859 265.524 236.061 281.933L245.656 319.187L268.516 315.034L291.377 319.187L300.972 281.933C301.214 265.564 304.682 250.768 304.682 250.768C296.537 245.284 279.725 240.607 279.725 240.607Z" fill="#DFDFDF"/>
<path d="M299.36 260.524C288.918 266.088 283.838 278.909 273.678 285.198C263.155 291.689 255.736 278.586 250.616 271.732C246.221 265.846 240.617 261.088 233.803 258.347C234.771 264.193 235.9 272.78 236.061 281.892L245.657 319.146L268.517 316.364L291.377 319.146L300.973 281.892C301.094 272.982 302.182 264.556 303.15 258.71C301.86 259.314 300.569 259.879 299.36 260.524Z" fill="#DFDFDF"/>
<path d="M232.352 250.767C232.352 250.767 213.281 295.52 213.08 301.688C212.636 313.622 238.762 318.46 250.656 316.283L255.494 315.396C255.494 315.396 237.835 250.444 232.352 250.767Z" fill="#DFDFDF"/>
<path d="M304.682 250.767C304.682 250.767 323.913 295.52 323.954 301.688C324.034 313.743 298.271 318.46 286.378 316.283L281.539 315.396C281.539 315.396 299.239 250.444 304.682 250.767Z" fill="#DFDFDF"/>
<path d="M240.456 266.491C240.415 268.547 240.173 270.725 239.649 273.063C237.795 281.167 234.892 289.674 237.956 297.899C240.254 304.148 243.963 310.478 247.35 316.445C248.519 316.485 249.648 316.445 250.656 316.243L255.494 315.356C255.494 315.397 247.39 285.602 240.456 266.491Z" fill="#DFDFDF"/>
<path d="M293.312 316.04C294.844 312.251 295.772 308.299 295.61 304.066C295.328 295.761 295.288 287.455 295.409 279.15C295.449 275.561 295.57 272.094 295.772 268.667C289.039 287.778 281.539 315.355 281.539 315.355L286.378 316.242C288.393 316.645 290.772 316.484 293.312 316.04Z" fill="#DFDFDF"/>
<path d="M298.473 315.878H238.56V319.426H298.473V315.878Z" fill="#181818"/>
<path d="M307.343 274.352H229.771C229.771 274.352 225.578 274.352 226.304 279.028C227.029 283.705 236.786 316.363 238.762 316.363C242.431 316.363 268.557 316.363 268.557 316.363C268.557 316.363 294.683 316.363 298.352 316.363C300.085 316.363 310.084 283.705 310.81 279.028C311.495 274.352 307.343 274.352 307.343 274.352Z" fill="#181818"/>
<path d="M271.742 296.971C271.742 298.745 270.29 300.196 268.516 300.196C266.742 300.196 265.291 298.745 265.291 296.971C265.291 295.197 266.742 293.745 268.516 293.745C270.331 293.745 271.742 295.197 271.742 296.971Z" fill="white"/>
<path d="M66.1614 167.227C66.1614 167.227 163.287 289.753 273.798 167.227C163.287 44.7016 66.1614 167.227 66.1614 167.227Z" fill="#181818"/>
<path d="M80.6757 167.225C80.6757 167.225 164.214 272.575 259.243 167.225C164.214 61.8344 80.6757 167.225 80.6757 167.225Z" fill="white"/>
<path d="M214.975 177.642C220.73 152.804 205.259 128.004 180.422 122.25C155.584 116.495 130.784 131.966 125.029 156.804C119.275 181.641 134.745 206.441 159.583 212.196C184.421 217.95 209.221 202.48 214.975 177.642Z" fill="#5B5B5B"/>
<path d="M199.049 167.229C199.049 183.276 186.026 196.298 169.98 196.298C153.933 196.298 140.91 183.276 140.91 167.229C140.91 151.183 153.933 138.16 169.98 138.16C186.026 138.16 199.049 151.142 199.049 167.229Z" fill="#181818"/>
<path d="M204.371 148.885C204.371 155.417 199.089 160.698 192.558 160.698C186.026 160.698 180.745 155.417 180.745 148.885C180.745 142.354 186.026 137.072 192.558 137.072C199.089 137.072 204.371 142.354 204.371 148.885Z" fill="white"/>
<path d="M159.417 93.6887H34.4717C31.0044 93.6887 28.2225 90.9067 28.2225 87.4394V6.96508C28.2225 3.49775 31.0044 0.71582 34.4717 0.71582H159.417C162.884 0.71582 165.666 3.49775 165.666 6.96508V87.4394C165.666 90.9067 162.884 93.6887 159.417 93.6887Z" fill="#DFDFDF"/>
<path d="M159.417 8.13379H34.4717V86.31H159.417V8.13379Z" fill="#181818"/>
<path d="M80.1115 29.1387V67.4003L117.405 48.2896L80.1115 29.1387Z" fill="#E50000"/>
</svg>
