<svg width="218" height="177" viewBox="0 0 218 177" fill="none" xmlns="http://www.w3.org/2000/svg">
<path d="M79.4079 94.7392L78.6919 168.961C78.6485 172.817 77.5637 175.048 72.0529 175.763C65.1969 176.651 63.1141 175.438 62.0944 173.553C60.1851 170.022 41.4613 99.0937 38.3805 94.2626C35.2779 89.4315 79.4079 94.7392 79.4079 94.7392Z" fill="#6F7070"/>
<path d="M79.2561 110.727L79.4079 94.7392C79.4079 94.7392 35.278 89.4315 38.3588 94.2626C39.0965 95.4108 41.9604 104.553 44.13 111.616L79.2561 110.727Z" fill="#4F5151"/>
<path d="M9.89347 69.1969C5.98816 69.1752 2.56017 71.8183 1.69233 75.6312C1.19331 77.8626 0.802784 80.7006 0.759391 84.2535C0.715999 88.478 1.04144 91.2294 2.08286 93.5474C3.34123 96.3638 6.20512 98.0969 9.28598 98.2052C24.3648 98.7468 78.7136 100.87 90.039 103.535C103.23 106.633 147.404 126.217 147.404 126.217L138.986 26.9951C138.986 26.9951 98.4137 59.838 72.6387 64.9507C52.5915 68.9153 22.3471 69.2402 9.89347 69.1969Z" fill="#DFDFDF"/>
<path d="M37.5344 99.376C43.1537 99.636 49.0116 99.9393 54.7394 100.264C51.1378 88.6306 52.5481 75.3505 54.3923 67.4214C48.6428 67.963 42.7848 68.3313 37.1438 68.5913C34.4752 79.9216 34.9525 90.5371 37.5344 99.376Z" fill="#181818"/>
<path d="M190.514 73.2921C190.796 109.168 173.699 138.371 152.307 138.545C130.915 138.718 113.362 109.775 113.08 73.8987C112.798 38.0229 129.895 8.8196 151.287 8.64628C172.658 8.47297 190.232 37.4163 190.514 73.2921Z" fill="#E5E6ED"/>
<path d="M187.628 73.3134C187.867 103.817 173.309 128.687 155.127 128.817C136.946 128.969 121.997 104.337 121.759 73.8334C121.52 43.3086 136.057 18.4598 154.26 18.3298C172.441 18.1781 187.39 42.7886 187.628 73.3134Z" fill="#181818"/>
<path d="M147.729 78.9244C148.51 68.049 141.394 58.6901 131.804 57.9968C128.528 57.7585 125.425 58.6468 122.692 60.2282C122.063 64.5827 121.715 69.1106 121.759 73.8117C121.824 81.8707 122.93 89.5182 124.84 96.4074C126.163 96.884 127.53 97.2523 128.984 97.3606C138.552 98.0539 146.948 89.7998 147.729 78.9244Z" fill="#E50000"/>
<path d="M90.2343 39.2356C90.1042 38.0874 90.0174 37.0258 90.6466 35.921C90.0825 36.0076 89.258 36.0943 89.3014 35.7693C89.3665 35.336 89.4533 34.6861 89.1278 34.7511C88.8241 34.8161 88.5637 34.9894 88.2817 35.1627C87.6959 35.5527 87.045 35.596 86.3507 35.6393C86.1338 36.3976 85.4829 37.5674 85.8951 38.3907C86.1121 38.8023 87.2403 38.6073 87.7393 38.8023C88.6071 39.1056 89.5401 39.1923 90.2343 39.2356Z" fill="#DFDFDF"/>
<path d="M74.331 4.20472C74.331 4.20472 69.5362 3.94475 63.0707 6.9994L66.0865 20.1279C66.0865 20.1279 69.189 18.2648 73.4415 18.5031L74.331 4.20472Z" fill="#E50000"/>
<path d="M71.1634 11.0938C71.1851 8.90571 71.337 6.71763 71.3804 4.52955C73.2245 4.20459 74.331 4.20459 74.331 4.20459L73.4415 18.5029C72.2048 16.6182 71.619 17.0514 71.3804 16.8131C71.4021 14.9283 71.1417 12.9786 71.1634 11.0938Z" fill="#E50000"/>
<path d="M100.475 4.89794C100.475 4.89794 83.3349 -1.81795 72.118 0.478454L71.3804 16.8349C71.3804 16.8349 81.3389 14.6252 95.116 20.6695L100.475 4.89794Z" fill="#E50000"/>
<path d="M99.7213 4.63358L86.2501 43.376L87.6438 43.8592L101.115 5.11678L99.7213 4.63358Z" fill="#181818"/>
<path d="M87.2403 39.3221V34.686C87.2403 34.686 73.3981 34.7943 67.6053 33.1261C61.8124 31.458 54.0235 24.6554 50.9426 25.7603C47.8401 26.8652 45.8657 30.0065 49.706 33.0178C53.5462 36.0291 62.6586 38.6288 66.6289 39.2354C69.3627 39.6687 85.0707 39.3221 87.2403 39.3221Z" fill="#6F7070"/>
<path d="M64.1122 36.4411C59.2306 34.4046 54.6093 30.0068 50.6823 25.8906C47.7533 27.0822 45.9959 30.1151 49.7276 33.0398C53.5679 36.0511 62.6802 38.6508 66.6506 39.2574C67.9958 39.4524 72.4869 39.4741 76.9346 39.4524C72.5086 39.0191 68.1477 38.1092 64.1122 36.4411Z" fill="#4F5151"/>
<path d="M63.982 92.9629C63.982 92.9629 61.27 97.3174 61.6822 98.3573C62.0727 99.3972 71.4672 104.835 72.7472 104.402C74.0056 103.968 74.266 102.473 72.5737 100.979C71.0549 99.6355 69.5796 99.2455 68.5816 97.924C67.692 96.7758 68.5816 93.8295 68.5816 93.8295L63.982 92.9629Z" fill="#181818"/>
<path d="M48.1872 55.9824C48.1872 55.9824 50.0747 57.5205 52.0491 57.2606C54.0234 57.0006 73.3981 59.0154 75.3725 60.6402C77.3468 62.2867 69.2324 94.9779 69.2324 94.9779L62.5066 93.8514C62.5066 93.8514 64.9149 69.9558 64.5244 69.7825C64.1122 69.6091 53.9584 69.6525 36.6231 69.6525C32.3924 69.6525 27.6843 60.7702 33.0216 54.5742L48.1872 55.9824Z" fill="#E50000"/>
<path d="M51.203 19.5647C50.5304 19.2831 49.9446 18.8715 49.4022 18.4165C49.1418 20.4096 48.3825 24.0709 46.3647 25.9773C46.3647 25.9773 50.5738 27.7104 54.0018 26.9522C54.0018 26.9522 53.5895 22.2944 54.3055 19.998C53.2424 20.0846 52.1793 19.998 51.203 19.5647Z" fill="#DFDFDF"/>
<path d="M49.1418 25.2407C49.7927 23.1826 51.8755 21.9044 53.9584 21.8828C54.0235 21.1895 54.1319 20.5396 54.2838 20.0197C53.2207 20.0846 52.1793 19.9763 51.1813 19.5647C50.5087 19.2831 49.9229 18.8715 49.3805 18.4165C49.1201 20.4096 48.3608 24.0709 46.343 25.9773C46.343 25.9773 47.3627 26.4106 48.8381 26.7355C48.8598 26.2589 48.9899 25.7607 49.1418 25.2407Z" fill="#DFDFDF"/>
<path d="M50.0097 8.25606C50.0097 8.25606 54.9781 6.69624 56.5402 7.67113C58.1024 8.64601 59.339 11.7223 59.057 13.5205C58.7749 15.3186 60.8578 17.3983 60.9012 18.0483C60.9446 18.5682 59.339 18.9365 59.274 19.1531C59.2306 19.3481 59.1221 22.6411 56.9525 23.1827C53.8933 23.9626 49.7927 21.5145 48.4042 19.6514C46.9939 17.81 45.345 9.36093 50.0097 8.25606Z" fill="#DFDFDF"/>
<path d="M59.2522 8.45113C58.9919 8.19116 58.3193 7.75788 58.1457 7.43292C58.0156 7.15128 57.9505 6.82632 57.7769 6.56635C57.2345 5.76478 57.1043 5.17984 54.8262 4.46493C52.8519 3.85833 50.3351 4.55158 48.773 5.80811C48.1872 6.26305 47.6882 6.82632 47.341 7.47625C47.2326 7.67122 46.8854 8.19116 46.9722 8.40781C47.0807 8.66778 47.8184 8.84109 48.0353 8.97107C48.4476 9.20938 48.7947 9.57767 49.1418 9.88097C51.3982 11.7224 54.9347 13.6722 57.4298 11.1375C57.7552 10.8125 58.0806 10.4442 58.3627 10.0543C58.8183 11.0725 59.1655 12.2207 59.057 13.3472C59.057 13.3472 59.8597 12.7406 60.0767 11.7658C60.4021 10.0976 59.8597 9.07939 59.2522 8.45113Z" fill="#181818"/>
<path d="M48.7513 8.29899C48.1438 7.97403 47.0156 8.08235 46.4082 8.21233C45.1064 8.49397 44.4121 9.44719 44.1734 10.7037C44.0433 11.462 43.9348 12.2419 43.9348 13.0218C43.9565 14.3866 44.0216 15.2532 44.5206 16.553C44.9762 17.7662 45.6271 18.9578 46.5817 19.846C47.4713 20.6476 49.1853 21.5575 50.0531 21.2108C50.3785 21.0808 50.8776 18.6761 50.7691 18.0695C50.6823 17.4629 50.3785 17.4629 49.9229 17.203C49.1202 16.748 48.2523 15.8814 48.8164 14.9066C49.6409 13.5417 51.1813 14.17 51.7237 16.0548C51.7237 16.0548 52.3312 17.1163 52.6566 16.943C52.9821 16.7697 54.5442 11.4186 48.7513 8.29899Z" fill="#181818"/>
<path d="M49.3805 15.1015C49.3805 15.1015 50.2267 14.7549 50.8558 15.4915C51.4416 16.1847 51.1596 17.2896 50.5738 16.878C49.988 16.4663 50.2267 16.0981 50.1182 15.7514C50.0314 15.4048 49.5975 15.1232 49.3805 15.1015Z" fill="#DFDFDF"/>
<path d="M30.635 54.1841C30.635 54.1841 37.6429 59.6218 52.1793 57.1955C52.1793 57.1955 52.1359 53.0359 53.3509 48.9631C54.5658 44.8902 56.3883 36.9395 56.4534 32.7583C56.5185 28.0138 53.915 25.8907 53.915 25.8907C53.915 25.8907 51.1812 28.4471 47.1241 25.1108C47.1241 25.1108 39.4219 26.9306 35.7987 35.6829C32.1971 44.4136 30.635 54.1841 30.635 54.1841Z" fill="#6F7070"/>
<path d="M48.1438 31.935C44.3904 35.9862 48.0136 45.9517 52.7651 51.4978C52.917 50.6745 53.1122 49.8296 53.3726 48.9631C54.0235 46.8183 54.8262 43.5904 55.4554 40.4274C54.197 39.6475 53.1122 38.4776 52.4179 36.8095C50.9426 33.2782 50.0097 30.8952 48.1438 31.935Z" fill="#4F5151"/>
<path d="M78.5401 59.7734C79.0825 60.1851 79.6249 60.5967 80.2975 60.6833C80.623 60.7267 80.9267 60.7483 81.1871 60.9216C81.4691 61.0949 81.8596 61.1816 82.1851 61.2899C82.5105 61.3766 82.9011 61.4632 83.1397 61.7449C83.4218 62.0698 82.8794 62.1782 82.4888 62.1998C82.0766 62.2215 80.9918 61.5066 80.6664 61.8099C80.3409 62.1132 81.7078 62.8714 81.9898 63.0231C82.6407 63.3697 83.118 63.0881 83.7906 63.1097C84.1811 63.1097 84.3547 63.2397 84.0943 63.608C83.8991 63.8896 83.5086 63.8896 83.1831 63.9113C82.5539 63.9546 81.8379 63.868 81.2521 63.5863C81.6861 63.8463 82.5105 64.0196 83.0312 64.0629C83.3784 64.0846 84.8971 63.9546 84.8971 64.4962C84.9188 65.6011 81.5559 64.8862 81.0786 64.5179C81.5993 64.8429 82.2285 64.9728 82.836 65.1245C83.1831 65.2111 84.051 65.3628 83.5736 65.8177C82.8794 66.4893 81.2305 65.3845 80.406 64.9945C80.8616 65.4061 81.3389 65.5794 81.9247 65.9044C82.619 66.2727 82.0983 66.641 81.3389 66.4027C81.0135 66.2943 80.406 65.9694 80.2758 65.9044C78.8873 65.1462 78.3883 64.4312 77.6289 63.1097C77.3685 62.6331 76.3705 62.0482 76.479 61.5716C76.6743 60.6617 77.8892 60.1851 78.5401 59.7734Z" fill="#DFDFDF"/>
<path d="M79.5598 59.0801L76.7393 62.893C76.7393 62.893 58.7315 55.1156 57.1043 53.0575C55.4771 50.9994 50.1833 43.4602 49.3588 41.4671C47.4278 36.8093 45.063 31.2633 49.3588 30.2884C51.702 29.7685 53.2207 30.3534 54.6744 33.798C56.6487 38.4991 60.8795 45.9299 62.5934 48.183C63.2877 49.0496 79.5598 59.0801 79.5598 59.0801Z" fill="#6F7070"/>
<path d="M92.2521 35.9864C92.5124 36.398 91.8181 38.1311 91.1456 38.846C90.6249 39.4093 89.9957 39.2577 89.475 38.9544C88.9109 38.6077 88.2383 38.4994 88.1515 38.1744C88.0213 36.8746 89.2363 37.8495 89.757 38.0445C89.757 38.0445 88.3034 37.3295 88.3251 36.7013C88.3902 35.5314 90.1692 36.8746 90.6682 37.1129C90.1692 36.9829 89.3665 36.4196 89.2797 36.203C88.9326 35.943 89.1495 35.5964 89.2363 35.5314C89.6268 35.1631 91.1456 36.268 91.1456 36.268C90.8635 36.073 89.757 35.6831 90.2126 35.1631C90.5164 34.8165 90.9503 35.0981 91.2324 35.1848C91.7314 35.3364 92.1653 35.7047 92.2521 35.9864Z" fill="#DFDFDF"/>
<path d="M88.8241 35.9432C88.9976 35.8782 89.1495 35.8348 89.3231 35.7915L89.3014 35.7698C89.3665 35.3366 91.0588 35.2066 91.4276 35.0116C92.5558 34.4267 92.1002 33.7118 91.5795 33.8634C91.2323 33.9717 90.4296 34.21 90.1258 34.34C89.8004 34.4917 89.2797 34.405 88.9543 34.47C88.6505 34.535 87.7827 35.2932 87.5006 35.4665C86.9365 35.8782 88.2166 36.1815 88.8241 35.9432Z" fill="#DFDFDF"/>
<path d="M214.748 49.1801C215.117 50.1983 211.754 52.3648 207.242 54.0112C202.729 55.6794 198.758 56.1993 198.39 55.1811C198.021 54.1629 201.384 51.9965 205.896 50.35C210.409 48.7035 214.38 48.1619 214.748 49.1801Z" fill="#DFDFDF"/>
<path d="M206.526 28.8806C206.96 29.8772 203.727 32.2169 199.301 34.1233C194.875 36.0298 190.948 36.788 190.536 35.7915C190.102 34.7949 193.334 32.4552 197.76 30.5487C202.165 28.6206 206.092 27.884 206.526 28.8806Z" fill="#DFDFDF"/>
<path d="M212.622 103.405C212.297 104.445 208.305 104.12 203.727 102.69C199.127 101.26 195.656 99.2668 195.981 98.2486C196.307 97.2087 200.299 97.5337 204.877 98.9635C209.455 100.393 212.926 102.386 212.622 103.405Z" fill="#DFDFDF"/>
<path d="M204.248 125.395C203.835 126.391 199.887 125.763 195.439 123.965C190.97 122.167 187.672 119.914 188.084 118.895C188.496 117.899 192.445 118.527 196.893 120.325C201.362 122.123 204.66 124.376 204.248 125.395Z" fill="#DFDFDF"/>
<path d="M217.244 76.5412C217.178 77.6244 213.251 78.296 208.435 78.036C203.618 77.7761 199.778 76.7145 199.843 75.6313C199.908 74.5481 203.835 73.8765 208.652 74.1365C213.447 74.3965 217.309 75.4797 217.244 76.5412Z" fill="#DFDFDF"/>
</svg>
