<svg width="371" height="269" viewBox="0 0 371 269" fill="none" xmlns="http://www.w3.org/2000/svg">
<path d="M301.126 228.38C293.255 219.521 270.052 207.459 276.151 193.626C281.33 181.87 306.237 183.302 303.238 169.127C301.466 160.745 299.184 153.59 304.567 144.05C310.462 133.658 328.077 139.314 334.21 129.671C339.457 121.392 332.643 108.58 343.478 103.061C353.12 98.1542 364.739 107.763 366.477 116.247C368.658 126.877 358.129 131.886 356.766 141.154C355.914 147.048 361.264 149.093 364.364 153.215C367.295 157.168 369.952 162.858 370.157 167.73C370.736 182.45 354.62 184.358 346.987 193.694C339.9 202.348 352.95 207.936 351.008 217.34C348.895 227.494 334.415 233.048 324.261 232.911C317.174 232.843 305.998 233.865 301.126 228.38Z" fill="#5B5B5B"/>
<path d="M311.416 233.21C311.347 233.21 311.279 233.176 311.245 233.142C310.904 232.971 310.802 232.63 311.007 232.324C311.143 232.119 325.522 210.483 326.373 183.259C326.919 165.133 334.449 153.514 340.65 144.008C344.398 138.249 347.635 133.241 348.146 128.232C348.18 127.823 348.555 127.517 348.998 127.517C349.44 127.517 349.747 127.891 349.679 128.3C349.134 133.684 345.795 138.829 341.945 144.723C335.846 154.093 328.418 165.473 327.873 183.259C326.987 210.79 312.404 232.665 312.233 232.869C311.995 233.176 311.688 233.278 311.416 233.21Z" fill="white"/>
<path d="M327.566 183.401C327.226 183.333 326.987 183.026 327.021 182.72C327.055 182.345 327.43 182.072 327.839 182.106C333.938 182.481 342.081 178.904 344.534 172.975C344.841 172.26 345.114 171.476 345.454 170.624C346.954 166.638 348.828 161.629 352.746 159.823C354.654 158.937 356.869 158.937 359.322 159.789C359.697 159.925 359.867 160.3 359.697 160.675C359.526 161.05 359.118 161.186 358.709 161.084C356.63 160.368 354.893 160.368 353.325 161.05C350.02 162.583 348.248 167.251 346.851 170.999C346.545 171.851 346.238 172.634 345.931 173.384C343.138 180.13 334.313 183.81 327.703 183.435C327.635 183.401 327.6 183.401 327.566 183.401Z" fill="white"/>
<path d="M323.24 182.717C320.412 182.07 318.265 180.843 316.834 179.003C314.585 176.107 314.21 171.711 315.846 166.294C316.016 165.749 316.221 165.135 316.425 164.454C317.686 160.57 319.628 154.675 317.72 151.404C317.072 150.314 316.084 149.598 314.619 149.258C314.21 149.155 313.972 148.747 314.108 148.372C314.21 147.997 314.653 147.758 315.062 147.861C316.902 148.338 318.231 149.292 319.049 150.689C321.263 154.471 319.185 160.74 317.856 164.829C317.652 165.51 317.447 166.089 317.277 166.635C315.778 171.643 316.05 175.63 318.061 178.219C319.764 180.434 322.763 181.627 326.919 181.865C327.328 181.899 327.601 182.206 327.567 182.581C327.533 182.955 327.158 183.228 326.783 183.194C325.488 183.092 324.33 182.955 323.24 182.717Z" fill="white"/>
<path d="M319.764 224.67C318.912 224.5 318.128 224.227 317.413 223.818C317.106 223.614 317.038 223.239 317.276 222.966C317.515 222.694 317.924 222.626 318.264 222.796C321.91 225.011 329.338 222.149 332.507 219.9C333.836 218.98 334.994 217.344 336.255 215.641C338.504 212.574 340.821 209.371 344.534 209.269C344.943 209.235 345.216 209.542 345.216 209.883C345.216 210.223 344.875 210.53 344.5 210.53C341.604 210.598 339.492 213.494 337.447 216.254C336.119 218.06 334.892 219.764 333.359 220.82C330.497 222.83 324.295 225.488 319.764 224.67Z" fill="white"/>
<path d="M313.801 223.339C312.949 223.168 312.097 222.896 311.28 222.453C306.68 219.999 303.954 213.764 303.239 210.118C302.864 208.176 303.443 205.587 304.056 202.827C305.044 198.431 306.101 193.832 303.239 191.753C302.932 191.515 302.898 191.106 303.136 190.833C303.409 190.561 303.852 190.527 304.159 190.731C307.668 193.321 306.51 198.5 305.453 203.065C304.84 205.689 304.295 208.176 304.636 209.914C305.283 213.219 307.838 219.216 312.029 221.464C313.665 222.316 315.368 222.521 317.14 222.078C317.515 221.976 317.89 222.146 317.992 222.487C318.094 222.793 317.856 223.134 317.481 223.236C316.254 223.509 314.994 223.543 313.801 223.339Z" fill="white"/>
<path d="M67.319 228.081C55.564 236.02 46.0918 241.88 33.4509 230.023C27.0793 224.026 24.7624 217.314 26.0572 207.978C27.0793 200.448 28.0674 197.041 23.5017 190.805C16.2783 181.027 5.06846 177.211 0.945677 164.808C-3.58597 151.213 9.83861 142.116 6.19285 129.168C2.95596 117.754 -3.99484 107.123 4.25071 96.0837C11.2356 86.6797 24.1832 90.8706 28.3059 100.718C30.6229 106.374 30.4525 112.779 33.6213 118.061C36.6878 123.137 41.492 124.262 46.637 125.965C58.2557 129.747 68.3753 136.528 67.0464 151.247C66.2628 160.072 66.0243 167.261 74.6446 171.112C83.8783 175.234 89.0232 177.892 88.3759 190.874C87.8648 200.618 83.1287 205.797 77.9497 212.919C73.1114 219.563 68.3071 229.853 60.4023 232.885L67.319 228.081Z" fill="#DFDFDF"/>
<path d="M68.8178 223.345C66.7394 223.14 64.8654 222.595 63.1959 221.641C56.1769 217.62 54.2689 207.331 52.5652 198.131C51.7134 193.531 50.8957 189.136 49.5668 186.24C45.9552 178.403 41.5257 173.088 33.2461 166.75C23.6717 159.39 21.7636 153.905 21.1163 141.809C20.5711 131.724 19.5149 121.331 15.4261 115.266C15.1195 114.789 15.2558 114.108 15.7669 113.699C16.278 113.29 16.9594 113.358 17.2661 113.835C21.6274 120.309 22.7177 131.042 23.2628 141.468C23.8421 153.155 25.5798 158.13 34.7112 165.149C41.7642 170.532 47.3521 176.086 51.6112 185.388C53.0422 188.488 53.86 192.986 54.7459 197.722C56.3814 206.615 58.2213 216.53 64.4906 220.142C66.9439 221.539 69.9422 221.948 73.6561 221.334C74.2694 221.232 74.8487 221.573 74.9509 222.05C75.0531 222.561 74.6102 223.038 73.9969 223.14C72.157 223.413 70.4193 223.515 68.8178 223.345Z" fill="white"/>
<path d="M42.276 174.183C42.0375 174.183 41.833 174.115 41.6286 173.944C41.1857 173.604 41.1857 172.956 41.6286 172.547C45.3766 168.799 44.2181 162.598 42.9574 155.954C41.8671 150.128 40.7427 144.029 43.0256 138.952C43.2982 138.373 43.9796 138.032 44.5248 138.202C45.104 138.373 45.3766 138.986 45.104 139.565C43.0937 144.029 44.15 149.821 45.1721 155.375C46.4328 162.257 47.7276 169.276 43.1619 173.842C42.9574 174.046 42.6167 174.183 42.276 174.183Z" fill="white"/>
<path d="M51.3731 187.908C51.2368 187.908 51.1005 187.874 50.9643 187.806C49.4991 187.193 48.3747 186.477 47.3185 185.796C45.5808 184.705 44.1157 183.751 41.4921 183.479C40.1292 183.342 38.8004 183.376 37.5397 183.411C34.882 183.479 32.1562 183.547 29.1578 181.945C24.8987 179.697 20.6056 175.676 16.3806 169.986C15.8014 169.202 15.0858 167.976 14.3362 166.647C13.2459 164.773 11.2356 161.263 10.3498 161.025C9.83867 160.889 9.53201 160.377 9.6683 159.866C9.83867 159.355 10.3498 159.015 10.8608 159.117C12.4282 159.389 13.8933 161.774 16.1421 165.625C16.8917 166.885 17.5731 168.078 18.0842 168.793C20.8782 172.575 25.2735 177.618 30.2822 180.276C32.8036 181.605 35.0183 181.537 37.6078 181.468C38.9366 181.434 40.3336 181.4 41.8669 181.537C45.0016 181.843 46.8415 183.036 48.6473 184.16C49.6695 184.807 50.6917 185.455 52.0205 186C52.5657 186.204 52.7701 186.818 52.4635 187.295C52.259 187.704 51.8161 187.942 51.3731 187.908Z" fill="white"/>
<path d="M131.853 33.3138C133.079 35.2219 134.306 38.8676 136.384 40.0942C139.008 41.6275 143.063 41.5253 145.925 41.4231C144.187 37.641 143.744 29.0207 147.526 25.6815C145.039 24.1483 144.937 29.0888 143.063 27.0444C142.381 26.2949 137.134 18.1856 136.623 17.2656C135.158 19.0033 135.771 24.8979 134.34 29.7021C133.625 32.1894 131.853 33.3138 131.785 33.2457C131.819 33.2457 131.819 33.2797 131.853 33.3138Z" fill="#E50000"/>
<path d="M144.085 5.23633C144.085 5.23633 157.339 6.73552 158.021 10.3813C158.702 14.0271 156.419 18.4906 156.351 20.8416C156.283 23.1926 158.293 26.5658 158.259 27.5198C158.225 28.4738 155.295 29.0531 154.715 29.5642C154.136 30.0752 150.15 36.2424 147.458 36.8557C144.8 37.469 134.987 28.7805 134.442 22.443C134.34 21.2164 132.671 18.8654 132.977 17.4343C134.272 11.4375 140.95 5.54298 144.085 5.23633Z" fill="white"/>
<path d="M141.394 0.876192C135.908 -0.0096947 139.247 3.02276 133.148 5.47599C128.719 7.28183 129.639 11.9498 131.001 14.0623C131.547 14.9141 131.274 15.7659 130.456 17.1969C129.979 20.2294 135.192 26.9417 136.794 24.8633C137.169 24.3863 135.703 21.2516 135.806 19.9228C135.465 17.708 137.441 15.4933 139.315 17.4355C139.928 18.0828 140.576 18.9687 140.542 19.8546C140.474 22.4441 141.291 23.1596 142.416 22.2738C144.119 20.979 142.177 15.7659 143.472 14.6415C146.402 12.1201 147.288 9.08768 147.288 9.08768C149.707 6.49816 146.879 1.72801 141.394 0.876192Z" fill="#5B5B5B"/>
<path d="M305.998 97.2002H61.527V253.491H305.998V97.2002Z" fill="#DFDFDF"/>
<path d="M87.1841 126.298H75.5312V224.359H87.1841V126.298Z" fill="#181818"/>
<path d="M97.2689 126.298H91.5447V224.359H97.2689V126.298Z" fill="#181818"/>
<path d="M120.065 126.298H108.241V224.359H120.065V126.298Z" fill="#181818"/>
<path d="M131.034 126.298H126.605V224.359H131.034V126.298Z" fill="#181818"/>
<path d="M149.536 126.298H145.72V224.359H149.536V126.298Z" fill="#181818"/>
<path d="M104.697 126.298H100.881V224.359H104.697V126.298Z" fill="#181818"/>
<path d="M141.7 126.298H135.942V224.359H141.7V126.298Z" fill="#181818"/>
<path d="M165.789 126.298H156.692V224.359H165.789V126.298Z" fill="#181818"/>
<path d="M175.705 126.298H169.981V224.359H175.705V126.298Z" fill="#181818"/>
<path d="M183.746 126.298H180.884V224.359H183.746V126.298Z" fill="#181818"/>
<path d="M205.62 126.298H203.644V224.359H205.62V126.298Z" fill="#181818"/>
<path d="M193.73 126.298H188.891V224.359H193.73V126.298Z" fill="#181818"/>
<path d="M219.387 126.298H216.967V224.359H219.387V126.298Z" fill="#181818"/>
<path d="M248.552 126.298H245.213V224.359H248.552V126.298Z" fill="#181818"/>
<path d="M280.99 126.298H277.651V224.359H280.99V126.298Z" fill="#181818"/>
<path d="M223.475 126.298H221.601V224.359H223.475V126.298Z" fill="#181818"/>
<path d="M242.248 126.298H240.783V224.359H242.248V126.298Z" fill="#181818"/>
<path d="M274.515 126.298H272.334V224.359H274.515V126.298Z" fill="#181818"/>
<path d="M200.543 126.298H195.705V224.359H200.543V126.298Z" fill="#181818"/>
<path d="M214.547 126.298H209.3V224.359H214.547V126.298Z" fill="#181818"/>
<path d="M239.625 126.298H235.536V224.359H239.625V126.298Z" fill="#181818"/>
<path d="M233.083 126.298H226.677V224.359H233.083V126.298Z" fill="#181818"/>
<path d="M260.273 126.298H251.278V224.359H260.273V126.298Z" fill="#181818"/>
<path d="M269.813 126.298H264.464V224.359H269.813V126.298Z" fill="#181818"/>
<path d="M292.574 126.298H285.453V224.359H292.574V126.298Z" fill="#181818"/>
<path d="M157.816 48.3428C157.816 48.3428 158.804 49.1946 159.758 53.3855C163.063 67.4575 166.266 86.8107 167.697 90.8994C169.435 95.8399 181.701 121.292 181.701 121.292L171.683 128.311C171.683 128.311 157.134 100.372 155.261 95.6355C153.387 90.8994 144.119 67.0145 144.119 67.0145L157.816 48.3428Z" fill="#B40000"/>
<path d="M162.007 95.8093C157.169 86.9845 153.353 71.7882 151.615 61.5664L144.187 66.9839C144.187 66.9839 153.455 90.8688 155.329 95.6049C157.203 100.341 171.752 128.28 171.752 128.28L174.273 126.543C170.117 115.367 167.732 106.236 162.007 95.8093Z" fill="#5B5B5B"/>
<path d="M110.933 63.5404C107.525 71.5815 101.903 93.6605 99.9612 97.2381H148.106C150.798 87.1867 154.034 74.9206 155.227 69.2646C157.953 56.2489 157.782 48.2078 157.782 48.2078C157.782 48.2078 150.593 41.9725 145.039 38.1904C145.039 38.1904 139.008 43.8805 132.092 32.9092C132.092 32.9092 116.18 37.2364 112.738 38.463C111.341 39.0082 114.715 54.5793 110.933 63.5404Z" fill="#5B5B5B"/>
<path d="M117.508 50.9648C115.089 55.2921 112.124 60.0281 110.08 63.9465C106.809 72.2602 102.38 93.7259 100.472 97.2354H121.256C121.154 95.5999 120.438 92.8741 120.438 91.0342C120.438 85.8211 120.779 80.8465 122.857 75.9741C124.765 71.5787 122.346 56.9275 121.494 55.9394C120.063 54.304 118.769 52.6344 117.508 50.9648Z" fill="#5B5B5B"/>
<path d="M292.574 92.2285C259.898 107.834 267.633 105.278 262.317 106.675C257.002 108.072 225.723 110.048 225.723 110.048L222.282 123.473C222.282 123.473 260.375 121.395 265.588 120.202C270.767 119.01 292.642 110.696 292.642 110.696L292.574 92.2285Z" fill="#E50000"/>
<path d="M239.931 110.894C240.886 112.53 242.589 113.756 245.042 113.654C250.29 113.484 255.469 113.347 260.477 112.598C263.407 112.359 266.338 111.814 269.234 110.928C274.311 109.395 279.456 107.657 284.26 105.374C286.815 104.148 289.814 103.637 292.54 102.683L292.574 110.69C292.574 110.69 270.699 119.003 265.52 120.196C260.341 121.388 222.214 123.467 222.214 123.467L225.621 110.179C230.357 110.656 235.161 110.894 239.931 110.894Z" fill="#B40000"/>
<path d="M297.038 250.396C297.038 250.396 298.435 254.45 298.435 257.551C298.435 260.686 298.23 263.991 297.276 264.774C295.368 266.342 271.109 266.546 269.132 264.297C267.156 262.049 268.485 258.437 273.596 257.176C279.116 255.847 279.865 256.393 283.341 255.098C286.816 253.769 285.964 249.885 285.964 249.885L297.038 250.396Z" fill="#B40000"/>
<path d="M350.259 245.858C350.259 245.858 352.985 249.129 354.109 252.06C355.234 254.99 356.222 258.159 355.608 259.249C354.382 261.395 331.792 270.22 329.134 268.857C326.476 267.46 326.442 263.61 330.769 260.612C335.437 257.409 336.357 257.647 339.117 255.194C341.877 252.741 339.731 249.402 339.731 249.402L350.259 245.858Z" fill="#B40000"/>
<path d="M297.208 147.317L329.883 150.963C329.883 150.963 300.649 197.677 298.434 205.173C296.22 212.669 299.252 253.453 299.252 253.453H284.465C284.465 253.453 281.296 205.275 282.011 201.663C282.761 198.051 297.208 147.317 297.208 147.317Z" fill="#181818"/>
<path d="M298.468 149.74H335.778C335.778 149.74 340.139 161.189 338.129 169.877C336.119 178.6 334.79 197.101 334.994 200.372C335.165 203.643 353.393 247.222 353.393 247.222L339.798 252.265C339.798 252.265 321.058 210.73 319.253 205.994C317.413 201.326 298.468 149.74 298.468 149.74Z" fill="#201F1F"/>
<path d="M300.036 72.5705C303.068 72.7749 306.203 72.4683 309.031 71.855C310.053 71.6165 311.109 71.2757 312.097 70.7646C312.404 74.5126 313.46 83.2693 316.561 86.5402C316.561 86.5402 316.152 90.9697 308.383 92.06C300.649 93.1503 299.048 87.3921 299.048 87.3921C299.048 87.3921 300.547 78.1243 300.036 72.5705Z" fill="white"/>
<path d="M316.56 86.7097C316.56 86.7779 316.526 86.8801 316.492 87.0164V87.0505C316.458 87.1867 316.39 87.3571 316.322 87.5275C316.322 87.5275 316.322 87.5275 316.322 87.5615C316.254 87.7319 316.118 87.9363 315.981 88.1748C315.947 88.2089 315.947 88.243 315.913 88.2771C315.641 88.72 315.232 89.197 314.652 89.674C314.618 89.7081 314.584 89.7422 314.55 89.7422C314.278 89.9807 313.937 90.2192 313.562 90.4236C313.528 90.4577 313.46 90.4918 313.426 90.4918C313.051 90.7303 312.608 90.9347 312.131 91.1392C311.654 89.197 310.666 87.3571 309.167 85.9261C306.509 83.3365 303.272 82.0418 299.797 81.9396C300.103 78.9412 300.342 75.2954 300.069 72.6037C303.102 72.8081 306.236 72.5015 309.064 71.8882C310.087 71.6497 311.143 71.3089 312.131 70.7979C312.438 74.5458 313.494 83.3025 316.595 86.5734C316.595 86.5734 316.595 86.6075 316.595 86.6757C316.56 86.6757 316.56 86.7097 316.56 86.7097Z" fill="#E50000"/>
<path d="M312.608 50.2809C312.608 50.2809 299.627 47.0781 297.719 50.2809C295.811 53.4837 296.424 58.4583 295.674 60.7071C294.925 62.9559 291.858 65.4091 291.551 66.3291C291.245 67.215 293.8 68.8164 294.175 69.4638C294.55 70.1452 296.185 77.3345 298.468 78.8337C300.751 80.3329 312.506 75.5287 315.198 69.7704C317.89 64.0121 316.118 51.9845 312.608 50.2809Z" fill="white"/>
<path d="M299.047 86.1319C299.047 86.1319 308.144 90.6635 315.538 85.2119C315.538 85.2119 329.61 87.6651 331.348 88.3807C332.779 88.9599 329.031 108.995 330.666 119.08C332.302 129.166 338.844 153.561 338.844 153.561C338.844 153.561 321.603 166.816 291.994 158.468C291.994 158.468 291.04 124.225 291.347 114.719C291.824 100.817 291.892 92.5716 291.892 92.5716C291.892 92.5716 295.299 89.0962 299.047 86.1319Z" fill="#E50000"/>
<path d="M320.616 141.528C321.911 136.247 322.796 131.068 321.876 125.582C320.854 119.653 325.113 111.851 325.931 105.82C326.783 99.3802 327.43 94.9848 331.689 91.4072C331.417 97.5062 329.441 111.237 330.701 119.074C332.337 129.16 338.879 153.556 338.879 153.556C338.879 153.556 327.941 161.903 308.554 161.12C316.152 156.52 318.469 150.319 320.616 141.528Z" fill="#B40000"/>
<path d="M307.021 52.12C307.021 52.12 306.782 55.2887 308.656 58.6619C309.508 60.1611 305.862 64.4202 307.021 66.192C307.77 67.3845 308.793 67.0438 309.644 64.5565C309.917 63.7047 310.803 63.0914 311.621 62.6825C314.687 61.1833 315.641 65.9194 312.881 67.4867C310.973 68.577 312.37 73.4835 312.37 73.4835C314.551 75.0168 321.433 72.7339 320.445 67.6571C319.798 64.4202 319.525 63.1936 320.65 62.3758C322.626 60.8426 325.147 56.7539 321.604 53.551C316.731 49.1216 320.922 47.4521 315.471 46.3617C309.985 45.3055 305.692 48.7809 307.021 52.12Z" fill="#5B5B5B"/>
<path d="M316.458 48.956C316.118 47.7975 313.903 46.3665 312.813 45.6509C311.143 44.5265 309.201 43.8451 307.191 43.4021C305.18 42.9933 303.034 42.9933 301.023 43.4703C299.286 43.8792 297.855 44.731 296.083 45.0036C294.447 45.2761 292.778 45.2761 291.585 44.3562C291.279 45.4806 291.381 47.6612 291.551 48.4108C291.926 49.9781 293.05 51.3751 294.073 52.7721C296.833 56.5201 304.022 58.36 308.894 56.0771C311.245 54.9868 313.392 54.0328 314.448 51.8862C315.027 50.6255 315.538 50.0122 316.458 48.956Z" fill="#5B5B5B"/>
<path d="M110.216 171.28C109.16 171.075 108.07 170.7 107.014 170.189C106.571 169.985 106.128 169.78 105.685 169.576C103.845 168.758 102.107 167.975 100.642 166.305C97.8822 163.238 97.337 160.104 98.6999 155.47C99.9266 151.381 102.925 148.042 107.184 146.032C109.126 145.112 110.796 144.907 112.704 144.669L113.283 144.601C115.804 144.26 117.883 142.556 119.859 140.887L120.2 140.614C121.017 139.933 121.767 139.217 122.551 138.468C123.096 137.957 123.641 137.446 124.186 136.934C131.818 130.052 142.756 131.312 150.558 133.595L150.115 135.129C142.688 132.982 132.33 131.721 125.242 138.127C124.697 138.638 124.152 139.149 123.641 139.626C122.857 140.376 122.074 141.125 121.222 141.841L120.881 142.113C118.837 143.851 116.486 145.827 113.487 146.202L112.908 146.27C111.034 146.509 109.569 146.679 107.865 147.497C104.049 149.303 101.324 152.301 100.233 155.947C99.0066 160.07 99.4495 162.591 101.835 165.249C103.095 166.646 104.594 167.327 106.332 168.111C106.775 168.315 107.218 168.52 107.695 168.724C110.728 170.189 113.726 170.087 116.895 169.951C118.735 169.883 120.643 169.78 122.619 170.019C126.878 170.53 130.694 169.337 134.681 166.271L134.953 166.066C140.098 162.08 144.153 158.945 150.627 157.105L151.581 156.833C156.317 155.504 159.485 154.584 162.211 150.393C164.869 146.304 165.618 141.228 164.085 138.025C163.063 135.844 161.053 134.617 158.157 134.311L158.327 132.744C162.654 133.186 164.63 135.503 165.516 137.343C167.561 141.636 165.925 147.599 163.54 151.279C160.473 155.981 156.76 157.037 152.024 158.4L151.069 158.673C144.902 160.445 140.95 163.477 135.941 167.361L135.669 167.6C131.341 170.939 127.116 172.234 122.414 171.654C120.575 171.416 118.735 171.518 116.963 171.586C114.748 171.654 112.499 171.757 110.216 171.28Z" fill="white"/>
<path d="M299.762 126.811L182.859 102.551C179.452 101.835 175.874 102.21 172.671 103.607L151.58 112.773C146.538 114.953 142.892 119.485 141.768 124.834L140.268 132.058C139.144 137.441 140.711 143.029 144.459 147.05L160.167 163.847C162.552 166.403 165.686 168.141 169.094 168.856L285.997 193.116C295.128 195.024 304.089 189.129 305.997 179.998L312.88 146.777C314.788 137.646 308.927 128.685 299.762 126.811ZM173.182 143.54C161.802 147.867 153.318 134.988 161.836 126.265C162.415 125.652 163.165 125.175 163.949 124.868C175.329 120.541 183.813 133.421 175.295 142.143C174.716 142.757 173.966 143.234 173.182 143.54Z" fill="#5B5B5B"/>
<path d="M191.071 153.291L199.692 126.237L206.677 127.668C207.699 127.873 208.585 128.145 209.368 128.418C210.152 128.691 210.834 129.099 211.481 129.542C212.128 130.019 212.605 130.565 212.912 131.178C213.219 131.791 213.389 132.541 213.423 133.427C213.423 133.938 213.355 134.517 213.253 135.096C213.15 135.505 213.048 135.948 212.912 136.391C211.822 139.628 209.88 141.195 207.086 141.059C209.811 142.115 210.868 144.262 210.186 147.499C210.118 147.873 209.982 148.282 209.88 148.691C209.062 151.349 207.733 153.189 205.927 154.211C204.121 155.233 201.941 155.506 199.317 154.96L191.071 153.291ZM197.818 150.633L199.419 150.974C200.85 151.281 201.941 151.144 202.724 150.599C203.474 150.054 204.087 149.032 204.564 147.567C204.7 147.192 204.803 146.817 204.871 146.476C205.075 145.42 205.041 144.568 204.769 143.955C204.394 143.137 203.474 142.592 202.009 142.285L200.578 141.979L197.818 150.633ZM201.736 138.299L203.133 138.572C204.53 138.878 205.62 138.776 206.302 138.265C207.017 137.754 207.597 136.834 208.006 135.471C208.074 135.232 208.142 135.028 208.176 134.824C208.38 133.87 208.244 133.12 207.835 132.643C207.324 132.03 206.336 131.553 204.837 131.246L204.019 131.076L201.736 138.299Z" fill="white"/>
<path d="M210.56 157.314L219.181 130.261L226.063 131.692C227.222 131.93 228.244 132.203 229.096 132.544C229.948 132.85 230.697 133.259 231.345 133.77C231.992 134.247 232.469 134.826 232.81 135.474C233.151 136.121 233.321 136.871 233.321 137.757C233.321 138.302 233.253 138.881 233.116 139.46C233.014 139.869 232.912 140.278 232.776 140.721C232.231 142.425 231.515 143.753 230.595 144.742C229.675 145.73 228.517 146.343 227.086 146.65L226.949 160.722L221.464 159.597L221.941 146.65L219.93 146.241L216.012 158.473L210.56 157.314ZM221.021 142.936L222.384 143.208C223.747 143.481 224.837 143.379 225.621 142.902C226.404 142.391 227.017 141.437 227.46 140.04C227.563 139.699 227.665 139.392 227.699 139.086C227.903 138.2 227.869 137.484 227.631 136.939C227.324 136.223 226.506 135.712 225.178 135.44L223.508 135.099L221.021 142.936Z" fill="white"/>
<path d="M228.586 161.057L242.658 135.128L248.689 136.389L245.486 164.567L240.375 163.51L241.261 157.275L236.797 156.355L233.833 162.182L228.586 161.057ZM238.399 153.05L241.772 153.766L243.544 142.59L238.399 153.05Z" fill="white"/>
<path d="M248.211 165.114L256.832 138.061L260.682 138.844L262.385 154.415L266.951 140.139L271.551 141.093L262.931 168.147L259.251 167.397L257.752 150.94L252.913 166.102L248.211 165.114Z" fill="white"/>
<path d="M267.019 169.03L275.639 141.977L282.318 143.374C284.055 143.748 285.452 144.191 286.509 144.771C287.565 145.316 288.314 146.031 288.791 146.883C289.268 147.735 289.473 148.723 289.439 149.779C289.405 150.358 289.337 150.972 289.2 151.653C289.064 152.301 288.894 152.982 288.655 153.732L285.52 163.476C284.839 165.555 284.055 167.19 283.135 168.315C282.215 169.439 280.989 170.223 279.49 170.598C277.99 170.972 276.116 170.938 273.868 170.461L267.019 169.03ZM273.765 166.407L274.958 166.645C275.401 166.747 275.81 166.781 276.185 166.781C276.559 166.781 276.866 166.747 277.139 166.713C277.411 166.645 277.65 166.543 277.888 166.338C278.127 166.134 278.297 165.964 278.467 165.759C278.638 165.589 278.774 165.282 278.944 164.907C279.115 164.533 279.251 164.192 279.353 163.919C279.456 163.613 279.592 163.204 279.762 162.659L283.169 151.994C283.374 151.381 283.51 150.87 283.612 150.392C283.681 150.086 283.715 149.779 283.749 149.541C283.817 148.893 283.646 148.416 283.238 148.041C282.829 147.667 282.147 147.394 281.125 147.156L279.967 146.917L273.765 166.407Z" fill="white"/>
<path d="M166.3 140.175C165.823 140.447 165.346 140.686 164.801 140.856C165.073 143.821 164.154 147.398 162.211 150.431C161.121 152.1 159.009 153.838 156.93 154.996C155.533 155.746 154.136 156.087 153.148 156.461C153.489 156.904 153.795 157.347 154.136 157.79C155.022 157.416 156.317 157.109 157.578 156.427C159.894 155.167 162.348 153.225 163.574 151.317C165.448 148.352 166.845 143.991 166.3 140.175Z" fill="white"/>
<path d="M216.286 108.448C218.159 106.029 222.112 106.132 224.531 107.154C226.507 107.971 226.609 110.118 226.881 113.252C227.086 115.365 227.154 117.375 226.609 117.988C224.088 119.828 224.019 112.775 223.611 111.004C223.611 111.004 224.565 118.465 223.27 119.112C220.817 120.237 220.885 113.354 220.612 111.617C221.055 113.252 221.124 116.284 220.783 116.727C220.783 118.056 219.761 117.783 219.488 117.647C218.228 116.898 218.228 111.242 218.228 111.242C218.228 112.23 219.011 115.944 217.376 115.194C216.32 114.717 216.252 113.116 216.047 112.264C215.74 110.595 215.877 108.993 216.286 108.448Z" fill="white"/>
<path d="M323.681 141.217C321.126 141.115 317.991 141.592 315.368 141.592C314.175 141.592 312.915 141.422 311.722 141.354C310.972 141.32 309.439 141.047 308.996 141.899C308.519 142.819 310.018 143.16 310.632 143.296C311.484 143.5 313.289 143.364 313.426 144.523C313.664 146.192 310.529 146.635 309.303 147.18C308.178 147.691 305.146 148.748 307.122 149.838C308.451 150.587 311.245 148.884 312.369 148.407C310.87 148.816 309.575 149.361 308.247 150.11C307.463 150.553 305.964 151.167 305.964 152.018C305.964 153.279 308.758 152.53 309.473 152.223C311.143 151.507 311.449 151.303 312.608 150.485C311.415 151.099 307.088 152.938 308.519 154.438C309.371 155.358 312.778 152.768 314.107 152.223C313.357 152.904 311.143 153.279 311.313 154.71C311.415 155.426 312.676 154.847 313.255 154.54C314.107 154.063 314.857 153.415 315.708 153.007C316.39 152.7 316.833 152.291 317.548 151.78C319.082 150.69 320.479 150.417 321.807 149.02C323.034 147.691 324.193 146.362 325.487 145.238C323.068 144.386 325.555 142.546 323.681 141.217Z" fill="white"/>
<path d="M319.934 140.536L323.58 148.918C323.58 148.918 361.06 136.754 359.322 126.907C357.789 118.253 335.948 89.3252 331.212 88.2689C324.841 86.872 322.251 102.102 325.931 105.782C333.666 113.551 344.705 124.522 343.785 126.26C342.865 128.066 319.934 140.536 319.934 140.536Z" fill="#E50000"/>
<path d="M121.017 138.732C121.324 139.754 123.368 141.458 122.448 142.65C121.971 143.264 120.165 141.662 119.791 141.049C119.245 140.197 115.702 133.11 115.259 131.134C114.884 129.566 114.543 128.067 114.134 126.636C115.77 125.887 117.337 124.864 118.768 123.672C120.847 124.898 122.993 126.534 125.038 127.727C126.128 128.34 127.355 128.851 128.479 129.396C129.195 129.737 130.728 130.316 130.694 131.304C130.66 132.394 129.092 131.917 128.479 131.713C127.593 131.44 126.026 130.384 125.276 131.372C124.186 132.769 126.809 134.814 127.627 135.938C128.411 136.994 131.307 140.231 128.922 140.231C128.411 140.231 125.412 136.994 124.935 136.585C125.038 136.722 126.946 139.039 127.048 139.175C127.525 139.993 128.956 141.696 128.377 142.412C127.184 143.945 124.118 139.243 123.641 138.596L124.799 140.436C125.787 141.833 126.401 143.025 125.378 143.332C124.118 143.775 121.971 139.959 121.017 138.732Z" fill="white"/>
<path d="M121.666 124.055L113.011 129.404C113.011 129.404 93.9305 96.2854 93.5898 86.7451C93.3172 79.0447 94.9186 69.5044 102.381 52.6044C107.151 41.8034 112.33 37.4762 114.476 38.328C116.01 38.9413 124.664 42.7915 120.405 56.0457C118.906 60.6796 109.195 80.3736 109.025 82.2816C108.888 84.1556 121.666 124.055 121.666 124.055Z" fill="#B40000"/>
<path d="M167.663 128.1C169.537 130.553 173.489 130.417 175.908 129.394C177.884 128.577 177.986 126.43 178.258 123.296C178.463 121.184 178.531 119.173 177.986 118.56C175.465 116.72 175.397 123.773 174.988 125.545C174.988 125.545 175.976 118.083 174.647 117.436C172.194 116.312 172.262 123.194 171.99 124.931C172.432 123.296 172.501 120.264 172.16 119.821C172.16 118.492 171.138 118.765 170.865 118.901C169.605 119.65 169.605 125.306 169.605 125.306C169.605 124.318 170.388 120.604 168.753 121.354C167.697 121.831 167.629 123.432 167.424 124.284C167.118 125.953 167.254 127.555 167.663 128.1Z" fill="white"/>
<path d="M163.608 4.52371C163.608 4.52371 167.322 9.87311 158.667 13.4848C150.013 17.0624 137.542 7.62432 137.542 7.62432C137.542 7.62432 137.849 2.9223 144.766 0.912021C149.945 -0.587172 154.783 -0.382737 157.407 2.61565C161.904 7.69246 163.608 4.52371 163.608 4.52371Z" fill="#5B5B5B"/>
</svg>
