<svg width="188" height="177" viewBox="0 0 188 177" fill="none" xmlns="http://www.w3.org/2000/svg">
<path d="M167.318 15.4482C167.318 15.4482 176.492 17.4918 187.096 26.7378L174.392 49.9457C174.392 49.9457 169.547 44.7439 161.359 42.9719L167.318 15.4482Z" fill="#E50000"/>
<path d="M169.619 30.1672C170.733 26.0086 171.648 21.8072 172.72 17.6343C169.419 16.0481 167.332 15.4336 167.332 15.4336L161.373 42.943C164.703 40.0563 165.589 41.1566 166.175 40.8423C167.146 37.2839 168.661 33.7255 169.619 30.1672Z" fill="#E50000"/>
<path d="M117.572 2.80109C117.572 2.80109 153.513 -0.785843 173.491 9.54625L166.146 40.8712C166.146 40.8712 148.511 31.3966 119.273 35.4551L117.572 2.80109Z" fill="#E50000"/>
<path d="M120.416 0H117.544V123.185H120.416V0Z" fill="#DFDFDF"/>
<path d="M122.617 119.455H115.343V125.228H122.617V119.455Z" fill="#181818"/>
<path d="M125.475 123.985H112.513V126.886H125.475V123.985Z" fill="#181818"/>
<path d="M66.1119 54.5041V75.0254H71.2423V60.5633C71.2423 59.1057 72.4284 57.9196 73.886 57.9196H95.8935C97.3512 57.9196 98.5373 59.1057 98.5373 60.5633V75.0254H103.668V54.5041C103.668 53.0465 102.481 51.8604 101.024 51.8604H68.7557C67.2981 51.8604 66.1119 53.0322 66.1119 54.5041Z" fill="#DFDFDF"/>
<path d="M159.872 176.06H9.90706C4.93394 176.06 0.903992 172.03 0.903992 167.057V77.069C0.903992 72.0959 4.93394 68.0659 9.90706 68.0659H159.872C164.846 68.0659 168.876 72.0959 168.876 77.069V167.057C168.876 172.03 164.846 176.06 159.872 176.06Z" fill="#181818"/>
<path d="M168.876 98.1619V77.069C168.876 72.0959 164.846 68.0659 159.872 68.0659H9.90706C4.93394 68.0659 0.903992 72.0959 0.903992 77.069V98.1619C0.903992 110.966 11.279 121.341 24.0833 121.341H145.696C158.486 121.341 168.876 110.966 168.876 98.1619Z" fill="#8B8D8D"/>
<path d="M90.2344 116.482H79.545V128.615H90.2344V116.482Z" fill="#B40000"/>
<path d="M86.6189 122.299H83.1606V125.3H86.6189V122.299Z" fill="#181818"/>
<path d="M41.0748 14.605H38.2596H35.4443C35.4443 14.605 34.6298 22.2647 33.1721 23.1793C33.1721 23.1793 31.3572 32.2253 38.2596 32.2253C46.6053 32.2253 43.347 23.1793 43.347 23.1793C41.8751 22.2647 41.0748 14.605 41.0748 14.605Z" fill="#DFDFDF"/>
<path d="M41.0748 14.605H38.2596H35.4443C35.4443 14.605 34.6298 22.2647 33.1721 23.1793C33.1721 23.1793 31.3572 32.2253 38.2596 32.2253C46.6053 32.2253 43.347 23.1793 43.347 23.1793C41.8751 22.2647 41.0748 14.605 41.0748 14.605Z" fill="#DFDFDF"/>
<path d="M45.5764 16.1057C44.7904 15.2054 43.8615 16.5773 43.8615 16.5773C43.8615 16.5773 45.1477 11.5185 43.8615 9.28912C42.5754 7.07408 38.4025 8.23162 38.4025 8.23162C38.4025 8.23162 34.2297 7.05979 32.9435 9.28912C31.6574 11.5042 32.9435 16.5773 32.9435 16.5773C32.9435 16.5773 32.0146 15.2197 31.2287 16.1057C30.4427 17.006 32.5148 19.2639 32.9864 19.5355C32.9864 19.5355 35.9874 25.1374 38.4025 25.1374C40.8176 25.1374 43.8187 19.5355 43.8187 19.5355C44.2903 19.2639 46.3481 17.006 45.5764 16.1057Z" fill="#DFDFDF"/>
<path d="M37.3593 10.2467C37.3593 10.2467 34.2011 10.804 33.8581 12.4903C33.6866 13.3192 33.8724 14.2052 34.0296 15.0197C34.1153 15.4485 34.4154 17.7493 34.3011 17.8064C34.1868 17.8636 33.9724 17.8064 33.8867 17.735C33.458 17.392 33.1293 16.8918 32.8149 16.4488C32.2147 15.5771 31.3572 15.72 31.1 16.2773C31.1 16.2773 30.3998 7.9602 33.8724 7.67439C37.3593 7.38858 37.3593 10.2467 37.3593 10.2467Z" fill="#181818"/>
<path d="M39.4028 10.2467C39.4028 10.2467 42.561 10.804 42.904 12.4903C43.0755 13.3192 42.8897 14.2052 42.7325 15.0197C42.6468 15.4485 42.3467 17.7493 42.461 17.8064C42.5753 17.8636 42.7897 17.8064 42.8754 17.735C43.3042 17.392 43.6328 16.8918 43.9472 16.4488C44.5474 15.5771 45.4049 15.72 45.6621 16.2773C45.6621 16.2773 46.3623 7.9602 42.8897 7.67439C39.4028 7.38858 39.4028 10.2467 39.4028 10.2467Z" fill="#181818"/>
<path d="M44.6189 8.84609C44.6189 8.84609 44.3474 6.97403 42.3467 6.08801C40.7319 5.35919 38.3025 5.01622 35.6444 5.68787C31.2286 6.80254 31.1715 11.3755 32.8292 12.7474C34.0868 13.7763 34.9442 14.2908 36.902 14.2908C43.0184 14.2908 45.5621 10.7039 44.6189 8.84609Z" fill="#181818"/>
<path d="M43.347 23.1797C43.0469 30.868 38.2596 30.082 38.2596 30.082C38.2596 30.082 33.4722 30.8823 33.1721 23.1797C33.1721 23.1797 25.5267 25.2947 21.7825 27.7955C21.7825 27.7955 23.3688 34.5121 23.4688 41.9718L27.8417 58.9204L38.2453 59.4349L48.6488 58.9204L53.0217 41.9718C53.1218 34.5121 54.708 27.7955 54.708 27.7955C50.9925 25.2947 43.347 23.1797 43.347 23.1797Z" fill="#AFB2B2"/>
<path opacity="0.32" d="M52.2929 32.24C47.5341 34.7694 45.2191 40.5999 40.6032 43.4581C35.8301 46.4162 32.4433 40.4427 30.1139 37.3417C28.1132 34.6551 25.5695 32.5115 22.4684 31.2539C22.9115 33.912 23.4259 37.8276 23.4831 41.9718L27.856 58.9205L38.2595 59.4349L48.6631 58.9205L53.036 41.9718C53.0932 37.9133 53.5933 34.0691 54.022 31.4254C53.4218 31.6683 52.8359 31.9399 52.2929 32.24Z" fill="#3D3D3D"/>
<path d="M57.5519 65.7653C57.5519 59.8204 50.1779 55.9048 50.1779 55.9048H25.3981C25.3981 55.9048 18.0241 59.8204 18.0241 65.7653C18.0241 66.7371 18.2528 68.3376 18.6243 70.3526H26.8557C26.527 70.9528 26.2126 71.5244 25.984 71.996C25.9125 72.1389 25.8268 72.2675 25.7553 72.4104C26.9843 72.4104 28.2133 72.4104 29.4423 72.4104C30.214 72.4104 30.9714 72.4104 31.7431 72.4104C32.2004 72.4104 32.0432 72.5962 31.9288 71.9388C31.7431 70.9956 31.1572 70.4526 31.7431 69.4666C32.2004 68.6949 34.4011 68.0518 35.3014 68.0375C35.5015 68.0375 35.6873 68.0375 35.8873 68.0375C37.1878 68.0661 38.4739 68.0661 39.7744 68.0375C40.3317 68.0232 40.689 68.1947 41.2177 68.2804C41.6322 68.3519 42.8754 68.2376 43.4185 68.9521C43.7757 69.4094 43.7329 69.8238 43.8329 70.3811C43.8615 70.5526 43.6614 72.4247 43.6043 72.4247H51.1068C50.5352 71.6959 50.0636 71.0099 49.6635 70.3669H56.9802C57.3232 68.3519 57.5519 66.7371 57.5519 65.7653Z" fill="#E50000"/>
<path d="M57.5519 65.7653C57.5519 59.8204 50.1779 55.9048 50.1779 55.9048H25.3981C25.3981 55.9048 18.0241 59.8204 18.0241 65.7653C18.0241 66.7371 18.2528 68.3376 18.6243 70.3526H26.8557C26.527 70.9528 26.2126 71.5244 25.984 71.996C25.9125 72.1389 25.8268 72.2675 25.7553 72.4104C26.9843 72.4104 28.2133 72.4104 29.4423 72.4104C30.214 72.4104 30.9714 72.4104 31.7431 72.4104C32.2004 72.4104 32.0432 72.5962 31.9288 71.9388C31.7431 70.9956 31.1572 70.4526 31.7431 69.4666C32.2004 68.6949 34.4011 68.0518 35.3014 68.0375C35.5015 68.0375 35.6873 68.0375 35.8873 68.0375C37.1878 68.0661 38.4739 68.0661 39.7744 68.0375C40.3317 68.0232 40.689 68.1947 41.2177 68.2804C41.6322 68.3519 42.8754 68.2376 43.4185 68.9521C43.7757 69.4094 43.7329 69.8238 43.8329 70.3811C43.8615 70.5526 43.6614 72.4247 43.6043 72.4247H51.1068C50.5352 71.6959 50.0636 71.0099 49.6635 70.3669H56.9802C57.3232 68.3519 57.5519 66.7371 57.5519 65.7653Z" fill="#B40000"/>
<path d="M21.7968 27.7954C21.7968 27.7954 12.3364 48.2453 13.0224 50.9605C13.1939 51.6464 24.6978 58.5917 30.1282 57.5913L32.329 57.1912C32.329 57.1912 24.2834 27.6525 21.7968 27.7954Z" fill="#AFB2B2"/>
<path d="M54.708 27.7954C54.708 27.7954 64.1684 48.2453 63.4824 50.9605C63.3109 51.6464 51.807 58.5917 46.3766 57.5913L44.1758 57.1912C44.1758 57.1912 52.2214 27.6525 54.708 27.7954Z" fill="#AFB2B2"/>
<path opacity="0.32" d="M25.4838 34.9409C25.4695 35.8841 25.3551 36.8701 25.1265 37.9277C24.2834 41.6289 22.9686 45.4731 24.3548 49.2315C25.398 52.0753 27.0843 54.9477 28.6277 57.6772C29.1564 57.6915 29.6709 57.6772 30.1282 57.5915L32.3289 57.1914C32.3289 57.1914 28.6277 43.6439 25.4838 34.9409Z" fill="#3D3D3D"/>
<path opacity="0.32" d="M49.5348 57.4915C50.2208 55.7766 50.6495 53.976 50.578 52.0468C50.4494 48.274 50.4351 44.5013 50.4923 40.7143C50.5209 39.0852 50.5637 37.4989 50.6495 35.9556C47.577 44.6585 44.1616 57.1914 44.1616 57.1914L46.3623 57.5915C47.2912 57.763 48.3773 57.7058 49.5348 57.4915Z" fill="#3D3D3D"/>
<path d="M28.8135 101.163C28.8135 101.163 22.8114 108.309 22.1112 109.824C21.411 111.338 23.1258 113.253 25.4695 112.467C27.8132 111.681 29.1708 110.095 29.2136 109.08C29.2565 108.066 30.4998 107.523 31.0428 107.451C31.5859 107.366 34.7012 103.821 34.4011 102.85C34.0867 101.878 32.529 100.806 32.529 100.806L28.8135 101.163Z" fill="black"/>
<path d="M46.7625 101.163C46.7625 101.163 52.7645 108.309 53.4648 109.824C54.165 111.338 52.4501 113.253 50.1065 112.467C47.7628 111.681 46.4052 110.095 46.3623 109.08C46.3195 108.066 45.0762 107.523 44.5331 107.451C43.9901 107.366 40.8748 103.821 41.1749 102.85C41.4893 101.878 43.0469 100.806 43.0469 100.806L46.7625 101.163Z" fill="black"/>
<path d="M30.9142 65.4512C30.1997 63.7506 30.0568 60.1494 25.2409 60.1494C15.9663 60.1494 18.1384 67.5805 18.2813 68.6952C19.6818 79.7561 26.4127 101.835 26.4127 101.835H35.7016C35.7016 101.835 32.329 74.7973 31.8002 70.6244C31.7288 70.0528 31.4144 66.623 30.9142 65.4512Z" fill="#E50000"/>
<path d="M44.676 65.4512C45.3905 63.7506 45.5334 60.1494 50.3494 60.1494C59.624 60.1494 57.4518 67.5805 57.3089 68.6952C55.9084 79.7561 49.1775 101.835 49.1775 101.835H39.8887C39.8887 101.835 43.2612 74.7973 43.79 70.6244C43.8615 70.0528 44.1901 66.623 44.676 65.4512Z" fill="#E50000"/>
<path d="M51.8928 57.4199H24.6263V59.0348H51.8928V57.4199Z" fill="#181818"/>
<path d="M55.9085 38.5278H20.6107C20.6107 38.5278 18.7101 38.5278 19.0387 40.6571C19.3674 42.7864 23.8118 57.6486 24.7121 57.6486C26.3841 57.6486 38.2596 57.6486 38.2596 57.6486C38.2596 57.6486 50.1351 57.6486 51.8071 57.6486C52.593 57.6486 57.1517 42.7864 57.4804 40.6571C57.8091 38.5278 55.9085 38.5278 55.9085 38.5278Z" fill="#181818"/>
<path d="M39.7172 48.8172C39.7172 49.6175 39.0599 50.2749 38.2596 50.2749C37.4593 50.2749 36.8019 49.6175 36.8019 48.8172C36.8019 48.017 37.4593 47.3596 38.2596 47.3596C39.0741 47.3453 39.7172 48.0027 39.7172 48.8172Z" fill="#DFDFDF"/>
<path d="M74.6577 149.151L76.2868 154.195H81.5886L77.3014 157.311L78.9449 162.341L74.6577 159.226L70.3705 162.341L71.9996 157.311L67.7125 154.195H73.0143L74.6577 149.151Z" fill="#E50000"/>
<path d="M93.5784 149.151L95.2218 154.195H100.509L96.2221 157.311L97.8656 162.341L93.5784 159.226L89.2912 162.341L90.9346 157.311L86.6475 154.195H91.9493L93.5784 149.151Z" fill="#E50000"/>
<path d="M112.513 149.151L114.143 154.195H119.444L115.157 157.311L116.786 162.341L112.513 159.226L108.226 162.341L109.855 157.311L105.568 154.195H110.87L112.513 149.151Z" fill="#E50000"/>
<path d="M131.434 149.151L133.078 154.195H138.365L134.078 157.311L135.721 162.341L131.434 159.226L127.147 162.341L128.79 157.311L124.503 154.195H129.791L131.434 149.151Z" fill="#E50000"/>
<path d="M150.355 149.151L151.998 154.195H157.3L153.013 157.311L154.642 162.341L150.355 159.226L146.082 162.341L147.711 157.311L143.424 154.195H148.726L150.355 149.151Z" fill="#E50000"/>
</svg>
