<svg width="351" height="301" viewBox="0 0 351 301" fill="none" xmlns="http://www.w3.org/2000/svg">
<path d="M214.628 292.916H160.449L164.921 227.596H210.194L214.628 292.916Z" fill="#5B5B5B"/>
<path d="M221.745 282.445C221.074 281.476 219.994 280.88 218.801 280.88H188.805H186.309H156.313C155.121 280.88 154.04 281.476 153.37 282.445L145.172 294.667C143.607 297.014 145.284 300.181 148.116 300.181H186.309H188.805H226.999C229.831 300.181 231.507 297.014 229.942 294.667L221.745 282.445Z" fill="#B40000"/>
<path d="M320.191 244.959H54.9239C46.5027 244.959 39.6838 238.141 39.6838 229.719V61.9295C39.6838 53.5084 46.5027 46.6895 54.9239 46.6895H320.191C328.612 46.6895 335.431 53.5084 335.431 61.9295V229.682C335.431 238.141 328.612 244.959 320.191 244.959Z" fill="#B40000"/>
<path d="M321.793 59.8428H53.2844V229.794H321.793V59.8428Z" fill="#FEFEFE"/>
<path d="M315.086 78.3623H59.9915V229.794H315.086V78.3623Z" fill="#DFDFDF"/>
<path d="M315.086 78.3623H59.9915V90.8823H315.086V78.3623Z" fill="#DFDFDF"/>
<path d="M302.715 131.721H223.496V142.191H302.715V131.721Z" fill="#FEFEFE"/>
<path d="M302.715 150.203H223.496V160.674H302.715V150.203Z" fill="#FEFEFE"/>
<path d="M302.715 168.722H223.496V179.192H302.715V168.722Z" fill="#FEFEFE"/>
<path d="M162.76 103.439H83.5409V113.91H162.76V103.439Z" fill="#FEFEFE"/>
<path d="M162.76 121.921H83.5409V132.391H162.76V121.921Z" fill="#FEFEFE"/>
<path d="M159.071 125.162H9.50176C4.24784 125.162 0 129.41 0 134.627V182.843C0 188.097 4.24784 192.345 9.50176 192.345H103.215L138.912 222.676L121.958 192.345H159.071C164.324 192.345 168.572 188.097 168.572 182.843V134.627C168.535 129.41 164.287 125.162 159.071 125.162Z" fill="#E50000"/>
<path d="M157.17 138.166H56.3771V143.979H157.17V138.166Z" fill="white"/>
<path d="M157.17 150.016H56.3771V155.828H157.17V150.016Z" fill="white"/>
<path d="M157.17 161.865H56.3771V167.678H157.17V161.865Z" fill="white"/>
<path d="M123.262 173.677H56.3771V179.49H123.262V173.677Z" fill="white"/>
<path d="M48.3658 157.729C48.3658 168.46 39.6465 177.18 28.9151 177.18C18.1838 177.18 9.46449 168.46 9.46449 157.729C9.46449 146.998 18.1838 138.278 28.9151 138.278C39.6465 138.278 48.3658 146.998 48.3658 157.729Z" fill="#181818"/>
<path d="M28.9152 157.617C31.9403 157.617 34.3926 155.081 34.3926 151.953C34.3926 148.825 31.9403 146.289 28.9152 146.289C25.89 146.289 23.4377 148.825 23.4377 151.953C23.4377 155.081 25.89 157.617 28.9152 157.617Z" fill="white"/>
<path d="M29.0269 158.437H28.8406C23.4749 158.437 19.1153 162.796 19.1153 168.162V174.385C22.0217 176.099 25.338 177.142 28.9524 177.142C32.5668 177.142 35.8831 176.099 38.7895 174.385V168.162C38.7895 162.833 34.4299 158.437 29.0269 158.437Z" fill="white"/>
<path d="M340.535 0H190.967C185.713 0 181.465 4.24784 181.465 9.50176V57.7185C181.465 62.9724 185.713 67.2203 190.967 67.2203H234.265L222.676 97.5514L253.008 67.2203H340.535C345.789 67.2203 350.037 62.9724 350.037 57.7185V9.50176C350 4.24784 345.752 0 340.535 0Z" fill="#DFDFDF"/>
<path d="M338.635 13.0039H237.842V18.8167H338.635V13.0039Z" fill="white"/>
<path d="M338.635 24.8535H237.842V30.6664H338.635V24.8535Z" fill="white"/>
<path d="M338.635 36.7031H237.842V42.516H338.635V36.7031Z" fill="white"/>
<path d="M304.727 48.5146H237.842V54.3275H304.727V48.5146Z" fill="white"/>
<path d="M229.831 32.5669C229.831 43.2983 221.111 52.0175 210.38 52.0175C199.649 52.0175 190.929 43.2983 190.929 32.5669C190.929 21.8355 199.649 13.1162 210.38 13.1162C221.149 13.1162 229.831 21.8355 229.831 32.5669Z" fill="#181818"/>
<path d="M215.895 26.7907C215.895 29.9207 213.436 32.4545 210.417 32.4545C207.399 32.4545 204.94 29.9207 204.94 26.7907C204.94 23.6608 207.399 21.127 210.417 21.127C213.436 21.127 215.895 23.6608 215.895 26.7907Z" fill="white"/>
<path d="M210.492 33.3125H210.306C204.94 33.3125 200.58 37.6721 200.58 43.0378V49.2605C203.487 50.9746 206.803 52.0179 210.417 52.0179C214.032 52.0179 217.348 50.9746 220.254 49.2605V43.0378C220.254 37.6721 215.895 33.3125 210.492 33.3125Z" fill="white"/>
<path d="M298.579 220.515H239.258C234.414 220.515 230.539 216.602 230.539 211.758V204.865C230.539 200.021 234.451 196.108 239.258 196.108H298.579C303.423 196.108 307.335 200.021 307.335 204.865V211.758C307.335 216.602 303.423 220.515 298.579 220.515Z" fill="#E50000"/>
<path d="M261.242 205.349C261.242 206.579 260.46 207.585 259.193 207.92C260.683 208.218 261.615 209.411 261.615 210.901C261.615 212.951 259.826 214.218 257.032 214.218H251.182V202.331H256.808C259.528 202.331 261.242 203.523 261.242 205.349ZM258.038 205.871C258.038 205.163 257.516 204.753 256.659 204.753H254.274V207.063H256.659C257.516 207.063 258.038 206.616 258.038 205.871ZM258.411 210.529C258.411 209.783 257.74 209.299 256.659 209.336H254.274V211.833H256.659C257.74 211.796 258.411 211.348 258.411 210.529Z" fill="white"/>
<path d="M268.62 211.721C269.999 211.721 270.93 210.789 270.93 209.262V202.331H274.023V209.224C274.023 212.354 271.937 214.329 268.583 214.329C265.229 214.329 263.068 212.354 263.068 209.224V202.331H266.161V209.224C266.198 210.752 267.204 211.721 268.62 211.721Z" fill="white"/>
<path d="M282.37 210.417V214.218H279.277V210.491L274.917 202.331H278.01L280.842 207.436L283.599 202.331H286.692L282.37 210.417Z" fill="white"/>
<path d="M196.593 118.828C192.606 119.61 188.433 119.685 184.595 119.35C183.179 119.238 181.763 118.902 180.384 118.418C180.571 123.411 180.608 135.111 177.068 139.993C177.068 139.993 178.335 145.768 188.731 145.917C199.127 146.103 200.282 138.241 200.282 138.241C200.282 138.241 196.817 126.168 196.593 118.828Z" fill="white"/>
<path d="M177.105 140.179C177.143 140.291 177.18 140.402 177.254 140.589C177.254 140.589 177.254 140.626 177.292 140.626C177.366 140.812 177.478 140.999 177.627 141.222C177.627 141.222 177.627 141.222 177.627 141.259C177.776 141.483 177.962 141.744 178.149 142.005C178.186 142.042 178.223 142.079 178.223 142.116C178.67 142.638 179.266 143.234 180.123 143.756C180.161 143.793 180.198 143.83 180.273 143.83C180.682 144.091 181.167 144.352 181.688 144.576C181.763 144.613 181.838 144.65 181.912 144.65C182.471 144.874 183.067 145.097 183.738 145.284C184.073 142.638 185.079 140.067 186.793 137.906C189.849 134.068 193.91 131.832 198.494 131.124C197.599 127.212 196.705 122.479 196.593 118.828C192.606 119.61 188.433 119.685 184.595 119.35C183.179 119.238 181.763 118.902 180.384 118.418C180.571 123.411 180.608 135.111 177.068 139.993C177.068 139.993 177.068 140.067 177.105 140.104C177.105 140.142 177.105 140.142 177.105 140.179Z" fill="#E50000"/>
<path d="M182.21 90.7694C182.21 90.7694 199.239 85.7391 201.959 89.8751C204.679 94.0112 204.195 100.681 205.312 103.587C206.43 106.531 210.678 109.624 211.125 110.779C211.572 111.971 208.293 114.207 207.846 115.101C207.399 116.033 205.685 125.646 202.704 127.808C199.76 129.932 183.887 124.268 179.937 116.778C176.025 109.326 177.627 93.2287 182.21 90.7694Z" fill="white"/>
<path d="M189.961 93.7501C189.961 93.7501 190.482 97.9234 188.172 102.544C187.166 104.593 192.234 109.996 190.818 112.456C189.886 114.095 188.507 113.685 187.24 110.443C186.793 109.326 185.601 108.58 184.483 108.096C180.31 106.307 179.341 112.642 183.067 114.542C185.676 115.846 184.111 122.479 184.111 122.479C181.316 124.64 172 122.032 173.044 115.25C173.677 110.928 173.975 109.288 172.485 108.245C169.727 106.345 166.188 101.053 170.696 96.582C176.919 90.3966 171.255 88.459 178.409 86.6704C185.601 84.8818 191.526 89.2787 189.961 93.7501Z" fill="#181818"/>
<path d="M177.254 90.1365C177.664 88.5715 180.496 86.5594 181.875 85.5161C184.036 83.9138 186.533 82.8705 189.215 82.1998C191.861 81.5291 194.73 81.4173 197.413 81.9389C199.76 82.3861 201.698 83.4294 204.083 83.6902C206.281 83.9511 208.48 83.8393 210.007 82.5351C210.492 83.9883 210.492 86.932 210.306 87.9381C209.933 90.062 208.517 91.9624 207.25 93.8627C203.785 99.0048 194.395 101.874 187.762 99.1539C184.558 97.8497 181.688 96.6946 180.123 93.9C179.229 92.2605 178.521 91.478 177.254 90.1365Z" fill="#181818"/>
<path d="M268.173 101.24L284.643 137.794C284.643 137.794 279.836 143.234 278.197 142.005C276.594 140.812 251.89 111.152 249.468 109.587C247.083 108.059 268.173 101.24 268.173 101.24Z" fill="#181818"/>
<path d="M227.334 105.786C227.334 105.786 227.409 116.294 233.818 118.716C233.818 118.716 266.757 105.078 273.39 103.774C280.022 102.469 304.131 102.246 304.131 102.246L279.836 58.8359C279.836 58.8359 268.173 82.1246 257.553 89.7632C246.897 97.4019 227.334 105.786 227.334 105.786Z" fill="#E50000"/>
<path d="M248.722 112.679C251.331 111.636 254.051 110.555 256.734 109.549C252.709 105.003 250.586 98.6687 249.803 94.6816C247.307 96.0976 244.698 97.4763 242.202 98.7804C243.32 104.481 245.704 109.176 248.722 112.679Z" fill="#181818"/>
<path d="M313.111 70.0147C319.967 86.559 317.545 103.29 307.708 107.388C297.871 111.487 284.307 101.352 277.451 84.8077C270.595 68.2634 273.017 51.5329 282.854 47.4341C292.691 43.3726 306.255 53.4705 313.111 70.0147Z" fill="#5B5B5B"/>
<path d="M311.769 70.5735C317.619 84.6585 315.533 98.8925 307.149 102.358C298.765 105.823 287.251 97.253 281.401 83.168C275.551 69.083 277.638 54.849 286.022 51.3837C294.405 47.8811 305.957 56.4886 311.769 70.5735Z" fill="#181818"/>
<path d="M266.012 127.547C265.229 127.063 265.453 124.119 265.602 123.374C265.863 122.181 266.683 120.616 265.863 119.461C264.41 117.449 262.323 122.889 262.062 123.672C261.541 125.2 261.354 126.206 261.69 127.286C261.95 128.18 263.59 131.012 264.857 132.056C264.708 132.615 264.521 133.174 264.335 133.77C265.9 134.478 266.794 134.888 268.322 135.782C269.924 136.713 269.813 137.831 271.303 138.837L272.794 135.409C272.123 134.664 267.316 128.367 266.012 127.547Z" fill="white"/>
<path d="M276.557 115.586C275.141 114.058 272.905 114.655 271.191 115.884C269.924 116.816 266.31 119.722 267.279 121.846C268.099 123.598 272.756 119.685 272.756 119.685C271.042 121.175 267.838 122.331 268.658 123.821C269.552 125.461 273.613 123.113 274.508 122.48C273.576 122.703 269.03 125.461 270.856 126.914C272.086 127.883 275.439 125.833 276.445 125.125C275.104 125.535 273.278 126.727 273.651 128.591C274.247 129.597 276.259 128.926 277.377 128.479C279.091 127.771 280.693 127.51 280.805 125.386C280.842 124.976 280.879 124.641 280.879 124.231C280.805 122.703 280.097 120.952 279.389 119.61C278.606 118.195 277.675 116.779 276.557 115.586Z" fill="white"/>
<path d="M103.141 127.733C102.321 126.504 101.725 125.088 101.24 123.672C100.83 122.442 100.532 121.213 100.085 120.02C99.6753 118.865 99.1909 117.673 99.2654 116.443C99.3027 115.661 99.489 115.027 99.7126 114.245C99.9734 113.313 100.309 112.419 100.495 111.45C100.681 110.593 100.607 109.81 100.756 108.953C101.054 107.388 101.427 105.749 102.209 104.333C102.843 103.252 103.513 102.358 104.333 101.427C104.78 100.942 105.078 100.532 105.6 100.085C106.084 99.6753 106.531 99.2654 106.755 98.6692C107.053 97.8122 106.606 97.067 105.786 96.8434C104.333 96.4708 102.023 97.1415 101.128 98.3711C99.8989 100.085 99.3027 102.172 97.924 103.811C93.7134 108.842 89.7264 102.917 84.8078 100.793C83.3919 100.197 81.268 98.6319 80.0383 97.7377C79.144 97.067 75.3806 93.4898 73.592 94.4214C72.2879 95.1293 74.8589 98.1475 76.0886 98.8555C76.573 99.1536 80.8208 102.582 81.3425 102.731C80.1128 102.507 76.8711 100.383 74.2627 98.3339C72.3997 96.8806 70.5738 95.4274 69.5678 96.2472C66.4378 98.8183 78.7342 104.706 79.703 105.227C78.6596 105.302 69.0461 98.4829 68.1146 101.017C67.6302 102.395 69.605 103.774 71.2445 104.668C73.2939 105.786 76.722 106.569 77.5045 107.165C76.0513 107.649 69.6796 103.327 69.6796 105.973C69.6796 107.724 73.6293 108.991 75.1198 109.475C76.6475 109.96 81.1562 113.015 82.6094 113.686C87.3789 115.959 89.3538 115.698 91.2169 118.53C92.4092 120.356 94.5332 129.969 96.2845 133.621L103.141 127.733Z" fill="white"/>
<path d="M263.366 132.466C259.119 144.837 250.027 166.709 247.046 165.182C241.419 162.313 229.309 152.401 220.254 146.364C213.249 141.669 209.747 140.291 209.747 140.291L216.044 170.137C216.044 170.137 245.891 192.793 252.151 189.327C257.069 186.607 269.179 152.14 273.427 137.832C273.427 137.869 263.441 132.54 263.366 132.466Z" fill="#5B5B5B"/>
<path d="M233.818 175.056C230.464 170.696 217.609 158.102 214.144 155.456L215.15 169.616C215.15 169.616 245.22 192.233 251.89 189.402C246.151 185.713 237.879 180.384 233.818 175.056Z" fill="#5B5B5B"/>
<path d="M159.108 141.856C159.108 141.856 122.405 156.686 118.418 155.643C114.431 154.599 101.128 116.741 101.128 116.741L90.0245 121.25C90.0245 121.25 101.911 175.838 109.55 178.372C117.188 180.906 162.759 167.753 162.759 167.753C162.759 167.753 163.43 154.562 159.108 141.856Z" fill="#5B5B5B"/>
<path d="M127.808 175.019C124.566 176.174 121.287 177.329 117.971 178.298C133.546 176.248 162.722 167.827 162.722 167.827C162.722 167.827 163.02 161.754 161.94 153.966C152.848 163.728 140.03 170.622 127.808 175.019Z" fill="#5B5B5B"/>
<path d="M294.405 80.6344C292.729 75.455 287.661 72.4741 283.115 73.9273C281.55 74.4489 280.283 75.4177 279.314 76.6846C279.836 78.8086 280.544 80.9697 281.438 83.1309C282.966 86.8571 284.941 90.1734 287.102 93.0053C287.81 92.968 288.518 92.8935 289.189 92.67C293.735 91.2167 296.082 85.8138 294.405 80.6344Z" fill="#DFDFDF"/>
<path d="M159.182 186.532C157.878 199.276 156.872 226.03 156.127 229.793H216.342C217.423 209.784 217.05 180.831 216.044 170.174C214.33 151.618 209.747 140.328 209.747 140.328C209.747 140.328 205.238 138.912 199.91 136.862C199.91 136.862 188.843 143.644 178.521 136.937C178.521 136.937 159.89 141.334 157.655 142.414C155.754 143.271 160.561 172.932 159.182 186.532Z" fill="#5B5B5B"/>
<path d="M175.093 203.971C175.019 198.009 173.901 192.122 171.665 186.607C171.143 185.34 170.734 184.073 170.547 182.694C170.026 178.707 169.169 176.062 168.013 173.789C166.635 171.739 165.293 169.727 163.952 167.678C163.207 166.672 162.424 165.629 161.567 164.362C160.449 162.722 158.772 159.741 157.878 157.841C158.586 167.194 159.853 179.676 159.145 186.495C157.841 199.239 156.835 225.993 156.09 229.756H184.111C180.496 225.136 178.335 219.472 176.248 212.578C175.391 209.821 175.13 206.915 175.093 203.971Z" fill="#5B5B5B"/>
</svg>
