<svg width="501" height="440" viewBox="0 0 501 440" fill="none" xmlns="http://www.w3.org/2000/svg">
<g clip-path="url(#clip0_345_810)">
<g clip-path="url(#clip1_345_810)">
<path d="M218.094 190.115L214.452 208.867L231.149 218.126L212.142 220.512L208.454 239.285L200.365 221.982L181.377 224.343L195.397 211.263L187.334 193.954L204.086 203.186L218.094 190.115Z" fill="#F5F5F5"/>
<path d="M200.765 314.766C173.861 297.529 157.199 270.376 152.46 241.131C148.323 215.619 153.271 188.512 168.416 165.022C186.53 136.926 215.398 119.916 246.133 115.943C270.573 112.773 296.179 117.848 318.489 132.145C345.393 149.381 362.059 176.532 366.795 205.772L439.193 193.827C438.178 187.582 436.841 181.392 435.189 175.285L406.87 171.648C404.44 164.384 401.477 157.291 397.978 150.434L414.451 127.468C411.148 122.129 407.552 116.947 403.671 111.941L376.9 119.199C371.723 113.264 366.052 107.67 359.888 102.484L366.111 75.7818C363.551 73.9526 360.936 72.1747 358.256 70.4607C355.576 68.7467 352.865 67.1097 350.136 65.5518L328.653 82.0572C321.229 78.3796 313.62 75.3496 305.894 72.9502L301.537 46.5098C295.359 45.0694 289.135 43.9605 282.894 43.1851L269.571 66.2868C261.253 65.7706 252.919 65.9167 244.673 66.7251L230.642 44.2525C224.384 45.2905 218.181 46.649 212.062 48.3257L208.567 74.6336C200.73 77.35 193.094 80.6978 185.738 84.6514L164.094 69.2098C158.735 72.5292 153.533 76.14 148.506 80.0347L155.449 105.906C149.411 111.323 143.743 117.264 138.504 123.711L112.156 117.686C110.311 120.245 108.517 122.866 106.791 125.549C105.061 128.228 103.416 130.939 101.847 133.681L118.517 155.365C115.044 162.661 112.193 170.122 109.935 177.687L82.5944 182.28C81.1284 188.455 79.9943 194.675 79.1941 200.91L103.656 214.914C103.303 222.616 103.535 230.308 104.321 237.926L80.0647 253.081C81.0762 259.329 82.4169 265.515 84.0685 271.623L112.933 275.339C115.453 282.246 118.479 288.986 121.976 295.502L104.797 319.453C108.101 324.792 111.696 329.974 115.577 334.979L144.512 327.133C149.275 332.29 154.451 337.156 159.997 341.706L153.142 371.136C155.697 372.968 158.315 374.75 160.995 376.464C163.671 378.181 166.386 379.815 169.119 381.37L193.44 362.683C199.758 365.606 206.195 368.074 212.715 370.088L217.715 400.415C223.892 401.855 230.121 402.961 236.357 403.739L251.87 376.843C258.66 377.134 265.448 376.97 272.19 376.376L288.606 402.668C294.864 401.63 301.066 400.278 307.185 398.602L291.695 326.904C262.112 336.144 228.83 332.748 200.765 314.766Z" fill="#E50000"/>
<path d="M191.447 175.002L253.632 185.604L260.744 223.204L241.308 256.289L178.356 245.57C186.425 275.986 211.386 300.523 244.464 306.466C290.127 314.672 333.95 284.332 342.341 238.7C350.732 193.067 320.518 149.42 274.855 141.214C241.867 135.286 209.848 149.473 191.447 175.002Z" fill="#E50000"/>
<path d="M491.771 316.103L301.054 200.164L259.091 268.732L449.809 384.67L491.771 316.103ZM334.135 286.538L351.289 258.511L458.438 323.646L441.285 351.674L334.135 286.538Z" fill="#E50000"/>
<path d="M368.159 270.529L352.052 260.738L336.554 286.064L352.66 295.855L368.159 270.529Z" fill="#E50000"/>
<path d="M385.859 281.205L369.752 271.414L354.253 296.74L370.36 306.531L385.859 281.205Z" fill="#E50000"/>
<path d="M403.51 292.158L387.404 282.367L371.905 307.693L388.012 317.484L403.51 292.158Z" fill="#E50000"/>
<path d="M420.894 302.759L404.788 292.968L389.289 318.294L405.396 328.085L420.894 302.759Z" fill="#E50000"/>
</g>
</g>
<defs>
<clipPath id="clip0_345_810">
<rect width="500" height="439.261" fill="white" transform="translate(0.5 0.738525)"/>
</clipPath>
<clipPath id="clip1_345_810">
<rect width="420.576" height="362.464" fill="white" transform="translate(305.307 -28) rotate(54.8334)"/>
</clipPath>
</defs>
</svg>
