<svg width="492" height="440" viewBox="0 0 492 440" fill="none" xmlns="http://www.w3.org/2000/svg">
<g clip-path="url(#clip0_575_326)">
<path d="M209.094 190.115L205.452 208.867L222.149 218.126L203.142 220.512L199.454 239.285L191.365 221.982L172.377 224.343L186.397 211.263L178.334 193.954L195.086 203.186L209.094 190.115Z" fill="#F5F5F5"/>
<path d="M191.765 314.766C164.861 297.529 148.199 270.376 143.46 241.131C139.323 215.619 144.271 188.512 159.416 165.022C177.53 136.926 206.398 119.916 237.133 115.943C261.573 112.773 287.179 117.848 309.489 132.145C336.393 149.381 353.059 176.532 357.795 205.772L430.193 193.827C429.178 187.582 427.841 181.392 426.189 175.285L397.87 171.648C395.44 164.384 392.477 157.291 388.978 150.434L405.451 127.468C402.148 122.129 398.552 116.947 394.671 111.941L367.9 119.199C362.723 113.264 357.052 107.67 350.888 102.484L357.111 75.7818C354.551 73.9526 351.936 72.1747 349.256 70.4607C346.576 68.7467 343.865 67.1097 341.136 65.5518L319.653 82.0572C312.229 78.3796 304.62 75.3496 296.894 72.9502L292.537 46.5098C286.359 45.0694 280.135 43.9605 273.894 43.1851L260.571 66.2868C252.253 65.7706 243.919 65.9167 235.673 66.7251L221.642 44.2525C215.384 45.2905 209.181 46.649 203.062 48.3257L199.567 74.6336C191.73 77.35 184.094 80.6978 176.738 84.6514L155.094 69.2098C149.735 72.5292 144.533 76.14 139.506 80.0347L146.449 105.906C140.411 111.323 134.743 117.264 129.504 123.711L103.156 117.686C101.311 120.245 99.5171 122.866 97.7905 125.549C96.0611 128.228 94.4155 130.939 92.8468 133.681L109.517 155.365C106.044 162.661 103.193 170.122 100.935 177.687L73.5944 182.28C72.1284 188.455 70.9943 194.675 70.1941 200.91L94.6557 214.914C94.3029 222.616 94.5352 230.308 95.3206 237.926L71.0647 253.081C72.0762 259.329 73.4169 265.515 75.0685 271.623L103.933 275.339C106.453 282.246 109.479 288.986 112.976 295.502L95.797 319.453C99.1005 324.792 102.696 329.974 106.577 334.979L135.512 327.133C140.275 332.29 145.451 337.156 150.997 341.706L144.142 371.136C146.697 372.968 149.315 374.75 151.995 376.464C154.671 378.181 157.386 379.815 160.119 381.37L184.44 362.683C190.758 365.606 197.195 368.074 203.715 370.088L208.715 400.415C214.892 401.855 221.121 402.961 227.357 403.739L242.87 376.843C249.66 377.134 256.448 376.97 263.19 376.376L279.606 402.668C285.864 401.63 292.066 400.278 298.185 398.602L282.695 326.904C253.112 336.144 219.83 332.748 191.765 314.766Z" fill="#E50000"/>
<path d="M182.447 175.002L244.632 185.604L251.744 223.204L232.308 256.289L169.356 245.57C177.425 275.986 202.386 300.523 235.464 306.466C281.127 314.672 324.95 284.332 333.341 238.7C341.732 193.067 311.518 149.42 265.855 141.214C232.867 135.286 200.848 149.473 182.447 175.002Z" fill="#E50000"/>
<path d="M482.771 316.103L292.054 200.164L250.091 268.732L440.809 384.67L482.771 316.103ZM325.135 286.538L342.289 258.511L449.438 323.646L432.285 351.674L325.135 286.538Z" fill="#E50000"/>
<path d="M359.159 270.529L343.052 260.738L327.554 286.064L343.66 295.855L359.159 270.529Z" fill="#E50000"/>
<path d="M376.859 281.205L360.752 271.414L345.253 296.74L361.36 306.531L376.859 281.205Z" fill="#E50000"/>
<path d="M394.51 292.158L378.404 282.367L362.905 307.693L379.012 317.484L394.51 292.158Z" fill="#E50000"/>
<path d="M411.894 302.759L395.788 292.968L380.289 318.294L396.396 328.085L411.894 302.759Z" fill="#E50000"/>
</g>
<defs>
<clipPath id="clip0_575_326">
<rect width="420.576" height="362.464" fill="white" transform="translate(296.307 -28) rotate(54.8334)"/>
</clipPath>
</defs>
</svg>
